<svg width="177" height="58" viewBox="0 0 177 58" fill="none" xmlns="http://www.w3.org/2000/svg">
<g clip-path="url(#clip0_4104_9467)">
<rect width="177" height="58" fill="white"/>
<path d="M73.7325 11.5521H73.0736C73.0246 11.3068 72.9358 11.0802 72.8073 10.8723C72.6812 10.662 72.5223 10.4786 72.3307 10.3221C72.1391 10.1655 71.9219 10.0441 71.6789 9.95761C71.4359 9.87117 71.1731 9.82795 70.8904 9.82795C70.4372 9.82795 70.0236 9.94593 69.6498 10.1819C69.2784 10.4179 68.9805 10.7648 68.7562 11.2227C68.5343 11.6783 68.4233 12.2366 68.4233 12.8978C68.4233 13.5636 68.5343 14.1244 68.7562 14.5799C68.9805 15.0355 69.2784 15.3813 69.6498 15.6172C70.0236 15.8509 70.4372 15.9677 70.8904 15.9677C71.1731 15.9677 71.4359 15.9245 71.6789 15.838C71.9219 15.7516 72.1391 15.6313 72.3307 15.4771C72.5223 15.3205 72.6812 15.1371 72.8073 14.9269C72.9358 14.7166 73.0246 14.4888 73.0736 14.2435H73.7325C73.6741 14.5729 73.5643 14.8801 73.4031 15.1652C73.2442 15.4479 73.0409 15.6955 72.7933 15.9081C72.548 16.1207 72.2653 16.2866 71.9452 16.4057C71.6252 16.5249 71.2736 16.5845 70.8904 16.5845C70.2876 16.5845 69.7526 16.4338 69.2854 16.1324C68.8181 15.8287 68.4513 15.4011 68.185 14.8498C67.921 14.2984 67.789 13.6478 67.789 12.8978C67.789 12.1479 67.921 11.4972 68.185 10.9459C68.4513 10.3945 68.8181 9.96812 69.2854 9.66674C69.7526 9.36303 70.2876 9.21117 70.8904 9.21117C71.2736 9.21117 71.6252 9.27075 71.9452 9.3899C72.2653 9.50671 72.548 9.67258 72.7933 9.88752C73.0409 10.1001 73.2442 10.3478 73.4031 10.6305C73.5643 10.9131 73.6741 11.2204 73.7325 11.5521ZM74.7474 16.4863V11.1036H75.3537V11.9306H75.3992C75.5067 11.6596 75.6936 11.4411 75.9599 11.2753C76.2286 11.1071 76.5323 11.023 76.8711 11.023C76.9225 11.023 76.9797 11.0241 77.0428 11.0265C77.1059 11.0288 77.1584 11.0311 77.2005 11.0335V11.6678C77.1724 11.6631 77.1234 11.6561 77.0533 11.6467C76.9832 11.6374 76.9073 11.6327 76.8255 11.6327C76.5452 11.6327 76.2952 11.6923 76.0756 11.8114C75.8583 11.9283 75.6866 12.0906 75.5604 12.2986C75.4343 12.5065 75.3712 12.7436 75.3712 13.01V16.4863H74.7474ZM79.8826 16.5985C79.3803 16.5985 78.9458 16.4817 78.579 16.248C78.2122 16.0121 77.9283 15.6862 77.7274 15.2703C77.5288 14.8521 77.4295 14.3708 77.4295 13.8265C77.4295 13.2845 77.5288 12.8032 77.7274 12.3827C77.9283 11.9598 78.2052 11.6292 78.5579 11.3909C78.9131 11.1503 79.3231 11.03 79.788 11.03C80.08 11.03 80.3616 11.0837 80.6326 11.1912C80.9036 11.2963 81.1465 11.4587 81.3615 11.6783C81.5788 11.8955 81.7505 12.1701 81.8766 12.5018C82.0028 12.8312 82.0659 13.2214 82.0659 13.6723V13.9807H77.8606V13.4305H81.4281C81.4281 13.0847 81.358 12.774 81.2178 12.4983C81.08 12.2203 80.8872 12.0007 80.6396 11.8395C80.3943 11.6783 80.1104 11.5977 79.788 11.5977C79.4469 11.5977 79.1467 11.6888 78.8874 11.871C78.628 12.0532 78.4248 12.2939 78.2776 12.5929C78.1327 12.892 78.0592 13.219 78.0568 13.5742V13.9036C78.0568 14.3311 78.1304 14.7049 78.2776 15.025C78.4271 15.3427 78.6385 15.5892 78.9119 15.7644C79.1852 15.9396 79.5088 16.0273 79.8826 16.0273C80.1373 16.0273 80.3604 15.9875 80.552 15.9081C80.7459 15.8287 80.9082 15.7224 81.0391 15.5892C81.1722 15.4537 81.2727 15.3053 81.3405 15.1441L81.9327 15.3369C81.8509 15.5635 81.7166 15.7726 81.5297 15.9642C81.3451 16.1557 81.1138 16.3099 80.8358 16.4268C80.5601 16.5412 80.2424 16.5985 79.8826 16.5985ZM84.5491 16.609C84.2244 16.609 83.9277 16.5459 83.659 16.4197C83.3903 16.2912 83.1766 16.1067 83.0177 15.866C82.8588 15.6231 82.7794 15.3287 82.7794 14.9829C82.7794 14.7166 82.8296 14.4923 82.9301 14.3101C83.0305 14.1279 83.1731 13.9783 83.3576 13.8615C83.5422 13.7447 83.7606 13.6524 84.0129 13.5847C84.2653 13.5169 84.5433 13.4644 84.847 13.427C85.1484 13.3896 85.403 13.3569 85.611 13.3289C85.8212 13.3008 85.9813 13.2564 86.0911 13.1957C86.2009 13.1349 86.2558 13.0368 86.2558 12.9013V12.7752C86.2558 12.4084 86.146 12.1198 85.9264 11.9096C85.7091 11.697 85.396 11.5907 84.9872 11.5907C84.5994 11.5907 84.2828 11.6759 84.0375 11.8465C83.7945 12.017 83.624 12.218 83.5258 12.4492L82.9336 12.2355C83.0551 11.9411 83.2233 11.7063 83.4382 11.5311C83.6532 11.3535 83.8938 11.2262 84.1601 11.1491C84.4265 11.0697 84.6963 11.03 84.9697 11.03C85.1752 11.03 85.389 11.0568 85.611 11.1106C85.8352 11.1643 86.0432 11.2577 86.2347 11.3909C86.4263 11.5217 86.5817 11.7051 86.7008 11.9411C86.82 12.1747 86.8796 12.4714 86.8796 12.8312V16.4863H86.2558V15.6348H86.2172C86.1425 15.7936 86.0315 15.9478 85.8843 16.0973C85.7371 16.2469 85.5526 16.3695 85.3306 16.4653C85.1087 16.5611 84.8482 16.609 84.5491 16.609ZM84.6332 16.0378C84.965 16.0378 85.2523 15.9642 85.4953 15.817C85.7383 15.6698 85.9252 15.4747 86.056 15.2317C86.1892 14.9864 86.2558 14.7166 86.2558 14.4222V13.6443C86.209 13.6886 86.1308 13.7284 86.021 13.7634C85.9135 13.7984 85.7885 13.83 85.646 13.858C85.5058 13.8837 85.3657 13.9059 85.2255 13.9246C85.0853 13.9433 84.9591 13.9596 84.847 13.9737C84.5433 14.011 84.284 14.0695 84.069 14.1489C83.8541 14.2283 83.6894 14.3381 83.5749 14.4783C83.4604 14.6161 83.4032 14.7937 83.4032 15.011C83.4032 15.338 83.52 15.5915 83.7536 15.7714C83.9872 15.949 84.2805 16.0378 84.6332 16.0378ZM90.2643 11.1036V11.6467H87.6956V11.1036H90.2643ZM88.4981 9.81393H89.1254V15.0811C89.1254 15.3053 89.1639 15.4817 89.241 15.6102C89.3181 15.7364 89.4186 15.8263 89.5424 15.8801C89.6662 15.9315 89.7982 15.9572 89.9384 15.9572C90.0202 15.9572 90.0903 15.9525 90.1487 15.9431C90.2071 15.9315 90.2585 15.9198 90.3029 15.9081L90.436 16.4723C90.3753 16.4957 90.3005 16.5167 90.2118 16.5354C90.123 16.5564 90.0132 16.5669 89.8823 16.5669C89.6534 16.5669 89.4326 16.5167 89.22 16.4162C89.0097 16.3158 88.8369 16.1663 88.7014 15.9677C88.5659 15.7691 88.4981 15.5226 88.4981 15.2282V9.81393ZM93.4047 16.5985C92.9024 16.5985 92.4678 16.4817 92.101 16.248C91.7342 16.0121 91.4504 15.6862 91.2495 15.2703C91.0509 14.8521 90.9516 14.3708 90.9516 13.8265C90.9516 13.2845 91.0509 12.8032 91.2495 12.3827C91.4504 11.9598 91.7272 11.6292 92.08 11.3909C92.4351 11.1503 92.8451 11.03 93.31 11.03C93.6021 11.03 93.8836 11.0837 94.1546 11.1912C94.4256 11.2963 94.6686 11.4587 94.8835 11.6783C95.1008 11.8955 95.2725 12.1701 95.3987 12.5018C95.5248 12.8312 95.5879 13.2214 95.5879 13.6723V13.9807H91.3826V13.4305H94.9501C94.9501 13.0847 94.88 12.774 94.7398 12.4983C94.602 12.2203 94.4093 12.0007 94.1616 11.8395C93.9163 11.6783 93.6325 11.5977 93.31 11.5977C92.969 11.5977 92.6687 11.6888 92.4094 11.871C92.1501 12.0532 91.9468 12.2939 91.7996 12.5929C91.6548 12.892 91.5812 13.219 91.5789 13.5742V13.9036C91.5789 14.3311 91.6525 14.7049 91.7996 15.025C91.9492 15.3427 92.1606 15.5892 92.4339 15.7644C92.7073 15.9396 93.0309 16.0273 93.4047 16.0273C93.6593 16.0273 93.8824 15.9875 94.074 15.9081C94.2679 15.8287 94.4303 15.7224 94.5611 15.5892C94.6943 15.4537 94.7947 15.3053 94.8625 15.1441L95.4547 15.3369C95.373 15.5635 95.2386 15.7726 95.0517 15.9642C94.8672 16.1557 94.6359 16.3099 94.3579 16.4268C94.0822 16.5412 93.7645 16.5985 93.4047 16.5985ZM99.3831 18.5049C99.2593 18.5049 99.1436 18.4932 99.0361 18.4698C98.9287 18.4465 98.8434 18.4208 98.7803 18.3927L98.9485 17.8425C99.1611 17.908 99.3504 17.9313 99.5163 17.9126C99.6821 17.8963 99.8293 17.8215 99.9578 17.6883C100.086 17.5575 100.201 17.3566 100.301 17.0856L100.497 16.5389L98.5175 11.1036H99.1938L100.792 15.6628H100.841L102.439 11.1036H103.115L100.837 17.3379C100.742 17.5972 100.624 17.8133 100.483 17.9862C100.343 18.1614 100.181 18.2911 99.9964 18.3752C99.8141 18.4616 99.6097 18.5049 99.3831 18.5049ZM105.84 16.5985C105.375 16.5985 104.964 16.4805 104.607 16.2445C104.252 16.0086 103.974 15.6826 103.773 15.2668C103.572 14.8486 103.471 14.3662 103.471 13.8195C103.471 13.2681 103.572 12.7833 103.773 12.3651C103.974 11.9446 104.252 11.6175 104.607 11.3839C104.964 11.1479 105.375 11.03 105.84 11.03C106.305 11.03 106.715 11.1479 107.07 11.3839C107.426 11.6199 107.704 11.9469 107.904 12.3651C108.108 12.7833 108.209 13.2681 108.209 13.8195C108.209 14.3662 108.109 14.8486 107.908 15.2668C107.707 15.6826 107.428 16.0086 107.07 16.2445C106.715 16.4805 106.305 16.5985 105.84 16.5985ZM105.84 16.0273C106.214 16.0273 106.531 15.9268 106.79 15.7259C107.049 15.525 107.246 15.2574 107.379 14.9234C107.514 14.5893 107.582 14.2213 107.582 13.8195C107.582 13.4176 107.514 13.0485 107.379 12.7121C107.246 12.3757 107.049 12.1058 106.79 11.9026C106.531 11.6993 106.214 11.5977 105.84 11.5977C105.469 11.5977 105.152 11.6993 104.891 11.9026C104.631 12.1058 104.434 12.3757 104.298 12.7121C104.165 13.0485 104.099 13.4176 104.099 13.8195C104.099 14.2213 104.165 14.5893 104.298 14.9234C104.434 15.2574 104.631 15.525 104.891 15.7259C105.15 15.9268 105.467 16.0273 105.84 16.0273ZM112.604 14.4292V11.1036H113.228V16.4863H112.604V15.5927H112.555C112.429 15.8684 112.229 16.0985 111.956 16.2831C111.683 16.4653 111.348 16.5564 110.954 16.5564C110.61 16.5564 110.305 16.4817 110.039 16.3321C109.773 16.1803 109.564 15.9583 109.412 15.6663C109.26 15.3743 109.184 15.0156 109.184 14.5904V11.1036H109.808V14.5519C109.808 14.9724 109.932 15.3112 110.179 15.5682C110.427 15.8228 110.745 15.9502 111.132 15.9502C111.375 15.9502 111.609 15.8917 111.833 15.7749C112.058 15.6581 112.242 15.4876 112.387 15.2633C112.532 15.0367 112.604 14.7587 112.604 14.4292ZM114.485 16.4863V11.1036H115.091V11.9306H115.137C115.244 11.6596 115.431 11.4411 115.697 11.2753C115.966 11.1071 116.27 11.023 116.608 11.023C116.66 11.023 116.717 11.0241 116.78 11.0265C116.843 11.0288 116.896 11.0311 116.938 11.0335V11.6678C116.91 11.6631 116.861 11.6561 116.791 11.6467C116.721 11.6374 116.645 11.6327 116.563 11.6327C116.283 11.6327 116.033 11.6923 115.813 11.8114C115.596 11.9283 115.424 12.0906 115.298 12.2986C115.172 12.5065 115.109 12.7436 115.109 13.01V16.4863H114.485Z" fill="black"/>
<path d="M75.408 20.3087H77.6684V27.2518C77.6684 28.0314 77.4822 28.7135 77.1098 29.2982C76.7409 29.8828 76.2241 30.3388 75.5594 30.6659C74.8946 30.9896 74.1203 31.1514 73.2363 31.1514C72.3489 31.1514 71.5728 30.9896 70.908 30.6659C70.2433 30.3388 69.7265 29.8828 69.3576 29.2982C68.9887 28.7135 68.8042 28.0314 68.8042 27.2518V20.3087H71.0646V27.0586C71.0646 27.4658 71.1534 27.8278 71.3309 28.1445C71.5119 28.4612 71.7659 28.71 72.0931 28.891C72.4202 29.0719 72.8013 29.1624 73.2363 29.1624C73.6748 29.1624 74.0559 29.0719 74.3796 28.891C74.7067 28.71 74.959 28.4612 75.1365 28.1445C75.3175 27.8278 75.408 27.4658 75.408 27.0586V20.3087ZM81.1222 26.3643V31H78.8984V22.9815H81.0178V24.3962H81.1118C81.2893 23.9299 81.5869 23.561 82.0045 23.2895C82.4221 23.0146 82.9285 22.8771 83.5236 22.8771C84.0804 22.8771 84.5659 22.9989 84.9801 23.2425C85.3942 23.4862 85.7162 23.8342 85.9459 24.2866C86.1756 24.7356 86.2904 25.2715 86.2904 25.8945V31H84.0665V26.2912C84.07 25.8005 83.9447 25.4177 83.6907 25.1428C83.4366 24.8643 83.0868 24.7251 82.6414 24.7251C82.3421 24.7251 82.0776 24.7895 81.8479 24.9183C81.6217 25.047 81.4442 25.235 81.3154 25.4821C81.1901 25.7257 81.1257 26.0198 81.1222 26.3643ZM87.4551 31V22.9815H89.679V31H87.4551ZM88.5723 21.9479C88.2416 21.9479 87.958 21.8383 87.7214 21.619C87.4882 21.3963 87.3716 21.13 87.3716 20.8203C87.3716 20.514 87.4882 20.2513 87.7214 20.032C87.958 19.8093 88.2416 19.6979 88.5723 19.6979C88.9029 19.6979 89.1848 19.8093 89.418 20.032C89.6546 20.2513 89.773 20.514 89.773 20.8203C89.773 21.13 89.6546 21.3963 89.418 21.619C89.1848 21.8383 88.9029 21.9479 88.5723 21.9479ZM98.348 22.9815L95.5446 31H93.0389L90.2355 22.9815H92.5847L94.25 28.7187H94.3335L95.9936 22.9815H98.348ZM102.294 31.1566C101.469 31.1566 100.759 30.9896 100.164 30.6555C99.5723 30.3179 99.1164 29.8411 98.7962 29.2251C98.476 28.6056 98.3159 27.873 98.3159 27.0273C98.3159 26.2025 98.476 25.4786 98.7962 24.8556C99.1164 24.2327 99.5671 23.7472 100.148 23.3992C100.733 23.0511 101.419 22.8771 102.205 22.8771C102.734 22.8771 103.227 22.9624 103.682 23.1329C104.142 23.3 104.542 23.5523 104.883 23.8899C105.228 24.2275 105.496 24.652 105.687 25.1636C105.878 25.6718 105.974 26.2669 105.974 26.949V27.5598H99.2034V26.1816H103.881C103.881 25.8614 103.811 25.5778 103.672 25.3307C103.533 25.0836 103.34 24.8904 103.093 24.7512C102.849 24.6085 102.565 24.5372 102.242 24.5372C101.904 24.5372 101.605 24.6155 101.344 24.7721C101.086 24.9252 100.884 25.1323 100.738 25.3933C100.592 25.6509 100.517 25.938 100.514 26.2547V27.565C100.514 27.9617 100.587 28.3046 100.733 28.5934C100.883 28.8823 101.093 29.105 101.365 29.2616C101.636 29.4182 101.958 29.4965 102.33 29.4965C102.577 29.4965 102.804 29.4617 103.009 29.3921C103.214 29.3225 103.39 29.2181 103.536 29.0789C103.682 28.9397 103.794 28.7692 103.87 28.5673L105.927 28.703C105.823 29.1972 105.609 29.6288 105.285 29.9977C104.965 30.3631 104.551 30.6485 104.043 30.8538C103.538 31.0557 102.955 31.1566 102.294 31.1566ZM106.837 31V22.9815H108.993V24.3806H109.077C109.223 23.8829 109.468 23.507 109.813 23.253C110.158 22.9954 110.554 22.8667 111.003 22.8667C111.115 22.8667 111.235 22.8736 111.363 22.8876C111.492 22.9015 111.605 22.9206 111.703 22.945V24.9183C111.598 24.887 111.454 24.8591 111.27 24.8348C111.085 24.8104 110.916 24.7982 110.763 24.7982C110.436 24.7982 110.144 24.8696 109.886 25.0122C109.632 25.1515 109.43 25.3463 109.281 25.5969C109.134 25.8475 109.061 26.1364 109.061 26.4635V31H106.837ZM118.936 25.268L116.9 25.3933C116.865 25.2193 116.791 25.0627 116.676 24.9235C116.561 24.7808 116.41 24.6677 116.222 24.5842C116.037 24.4972 115.816 24.4537 115.559 24.4537C115.214 24.4537 114.923 24.5268 114.687 24.6729C114.45 24.8156 114.332 25.007 114.332 25.2472C114.332 25.4386 114.408 25.6004 114.562 25.7327C114.715 25.8649 114.977 25.9711 115.35 26.0511L116.801 26.3434C117.581 26.5035 118.162 26.7611 118.545 27.1161C118.927 27.471 119.119 27.9374 119.119 28.5151C119.119 29.0406 118.964 29.5018 118.654 29.8985C118.348 30.2953 117.927 30.605 117.391 30.8277C116.858 31.047 116.244 31.1566 115.548 31.1566C114.487 31.1566 113.641 30.9356 113.011 30.4936C112.385 30.0482 112.017 29.4426 111.91 28.6769L114.097 28.5621C114.163 28.8858 114.323 29.1329 114.577 29.3034C114.831 29.4704 115.157 29.554 115.553 29.554C115.943 29.554 116.256 29.4791 116.493 29.3295C116.733 29.1764 116.855 28.9797 116.858 28.7396C116.855 28.5377 116.77 28.3724 116.603 28.2436C116.436 28.1114 116.178 28.0105 115.83 27.9409L114.441 27.6642C113.658 27.5076 113.075 27.2361 112.693 26.8498C112.313 26.4635 112.124 25.9711 112.124 25.3725C112.124 24.8574 112.263 24.4136 112.541 24.0413C112.823 23.6689 113.218 23.3818 113.726 23.1799C114.238 22.978 114.836 22.8771 115.522 22.8771C116.535 22.8771 117.332 23.0912 117.913 23.5192C118.498 23.9473 118.839 24.5302 118.936 25.268ZM122.218 31.1514C121.706 31.1514 121.25 31.0626 120.85 30.8852C120.45 30.7042 120.133 30.4379 119.9 30.0864C119.67 29.7315 119.555 29.2895 119.555 28.7605C119.555 28.315 119.637 27.9409 119.801 27.6381C119.964 27.3353 120.187 27.0917 120.469 26.9072C120.751 26.7228 121.071 26.5836 121.429 26.4896C121.791 26.3956 122.171 26.3295 122.568 26.2912C123.034 26.2425 123.41 26.1973 123.695 26.1555C123.981 26.1103 124.188 26.0441 124.316 25.9571C124.445 25.8701 124.51 25.7414 124.51 25.5708V25.5395C124.51 25.2089 124.405 24.9531 124.196 24.7721C123.991 24.5911 123.699 24.5006 123.319 24.5006C122.919 24.5006 122.601 24.5894 122.364 24.7669C122.127 24.9409 121.971 25.1602 121.894 25.4247L119.837 25.2576C119.942 24.7704 120.147 24.3493 120.453 23.9943C120.76 23.6358 121.155 23.3609 121.638 23.1695C122.126 22.9746 122.689 22.8771 123.33 22.8771C123.775 22.8771 124.202 22.9293 124.609 23.0337C125.019 23.1381 125.383 23.3 125.7 23.5192C126.02 23.7385 126.272 24.0204 126.457 24.3649C126.641 24.706 126.733 25.1149 126.733 25.5917V31H124.624V29.8881H124.562C124.433 30.1386 124.261 30.3596 124.045 30.551C123.829 30.739 123.57 30.8869 123.267 30.9948C122.964 31.0992 122.615 31.1514 122.218 31.1514ZM122.855 29.6166C123.182 29.6166 123.471 29.5522 123.721 29.4235C123.972 29.2912 124.168 29.1137 124.311 28.891C124.454 28.6682 124.525 28.4159 124.525 28.134V27.2831C124.456 27.3283 124.36 27.3701 124.238 27.4084C124.12 27.4432 123.986 27.4763 123.836 27.5076C123.686 27.5354 123.537 27.5615 123.387 27.5859C123.237 27.6068 123.102 27.6259 122.98 27.6433C122.719 27.6816 122.491 27.7425 122.296 27.826C122.101 27.9095 121.95 28.0227 121.842 28.1653C121.734 28.3046 121.68 28.4786 121.68 28.6874C121.68 28.9902 121.79 29.2216 122.009 29.3817C122.232 29.5383 122.514 29.6166 122.855 29.6166ZM130.095 20.3087V31H127.871V20.3087H130.095ZM68.8042 46V35.3087H73.0849C73.8715 35.3087 74.5275 35.4253 75.053 35.6585C75.5785 35.8916 75.9735 36.2153 76.238 36.6295C76.5025 37.0401 76.6348 37.5134 76.6348 38.0494C76.6348 38.467 76.5512 38.8342 76.3842 39.1509C76.2171 39.4641 75.9874 39.7216 75.6951 39.9235C75.4062 40.1219 75.0756 40.2628 74.7032 40.3463V40.4508C75.1104 40.4682 75.4915 40.583 75.8465 40.7953C76.205 41.0076 76.4956 41.3052 76.7183 41.688C76.941 42.0673 77.0524 42.5198 77.0524 43.0453C77.0524 43.6126 76.9114 44.1189 76.6295 44.5644C76.3511 45.0064 75.9387 45.3562 75.3923 45.6137C74.8459 45.8712 74.1725 46 73.372 46H68.8042ZM71.0646 44.152H72.9074C73.5374 44.152 73.9967 44.0319 74.2856 43.7918C74.5745 43.5482 74.7189 43.2245 74.7189 42.8208C74.7189 42.525 74.6475 42.264 74.5049 42.0377C74.3622 41.8115 74.1586 41.634 73.8941 41.5053C73.6331 41.3765 73.3216 41.3121 72.9596 41.3121H71.0646V44.152ZM71.0646 39.7825H72.7404C73.0501 39.7825 73.3251 39.7286 73.5652 39.6207C73.8088 39.5094 74.0002 39.3527 74.1394 39.1509C74.2821 38.949 74.3535 38.7072 74.3535 38.4253C74.3535 38.0389 74.216 37.7275 73.9411 37.4908C73.6696 37.2542 73.2833 37.1358 72.7821 37.1358H71.0646V39.7825ZM81.5164 46.1566C80.7055 46.1566 80.0042 45.9843 79.4126 45.6398C78.8244 45.2918 78.3702 44.808 78.0501 44.1885C77.7299 43.5656 77.5698 42.8434 77.5698 42.0221C77.5698 41.1938 77.7299 40.4699 78.0501 39.8504C78.3702 39.2275 78.8244 38.7437 79.4126 38.3992C80.0042 38.0511 80.7055 37.8771 81.5164 37.8771C82.3273 37.8771 83.0268 38.0511 83.615 38.3992C84.2066 38.7437 84.6625 39.2275 84.9827 39.8504C85.3029 40.4699 85.463 41.1938 85.463 42.0221C85.463 42.8434 85.3029 43.5656 84.9827 44.1885C84.6625 44.808 84.2066 45.2918 83.615 45.6398C83.0268 45.9843 82.3273 46.1566 81.5164 46.1566ZM81.5268 44.4339C81.8957 44.4339 82.2037 44.3295 82.4508 44.1207C82.6979 43.9084 82.8841 43.6195 83.0094 43.2541C83.1382 42.8887 83.2026 42.4728 83.2026 42.0064C83.2026 41.5401 83.1382 41.1242 83.0094 40.7588C82.8841 40.3933 82.6979 40.1045 82.4508 39.8922C82.2037 39.6799 81.8957 39.5737 81.5268 39.5737C81.1544 39.5737 80.8412 39.6799 80.5872 39.8922C80.3366 40.1045 80.1469 40.3933 80.0181 40.7588C79.8928 41.1242 79.8302 41.5401 79.8302 42.0064C79.8302 42.4728 79.8928 42.8887 80.0181 43.2541C80.1469 43.6195 80.3366 43.9084 80.5872 44.1207C80.8412 44.3295 81.1544 44.4339 81.5268 44.4339ZM89.9439 46.1566C89.133 46.1566 88.4318 45.9843 87.8401 45.6398C87.252 45.2918 86.7978 44.808 86.4776 44.1885C86.1574 43.5656 85.9973 42.8434 85.9973 42.0221C85.9973 41.1938 86.1574 40.4699 86.4776 39.8504C86.7978 39.2275 87.252 38.7437 87.8401 38.3992C88.4318 38.0511 89.133 37.8771 89.9439 37.8771C90.7548 37.8771 91.4543 38.0511 92.0425 38.3992C92.6341 38.7437 93.0901 39.2275 93.4102 39.8504C93.7304 40.4699 93.8905 41.1938 93.8905 42.0221C93.8905 42.8434 93.7304 43.5656 93.4102 44.1885C93.0901 44.808 92.6341 45.2918 92.0425 45.6398C91.4543 45.9843 90.7548 46.1566 89.9439 46.1566ZM89.9544 44.4339C90.3233 44.4339 90.6313 44.3295 90.8784 44.1207C91.1255 43.9084 91.3117 43.6195 91.4369 43.2541C91.5657 42.8887 91.6301 42.4728 91.6301 42.0064C91.6301 41.5401 91.5657 41.1242 91.4369 40.7588C91.3117 40.3933 91.1255 40.1045 90.8784 39.8922C90.6313 39.6799 90.3233 39.5737 89.9544 39.5737C89.582 39.5737 89.2688 39.6799 89.0147 39.8922C88.7641 40.1045 88.5744 40.3933 88.4457 40.7588C88.3204 41.1242 88.2577 41.5401 88.2577 42.0064C88.2577 42.4728 88.3204 42.8887 88.4457 43.2541C88.5744 43.6195 88.7641 43.9084 89.0147 44.1207C89.2688 44.3295 89.582 44.4339 89.9544 44.4339ZM96.7636 43.6926L96.7688 41.025H97.0925L99.6609 37.9815H102.214L98.763 42.0116H98.2357L96.7636 43.6926ZM94.7485 46V35.3087H96.9724V46H94.7485ZM99.7601 46L97.4005 42.5076L98.8831 40.9362L102.365 46H99.7601ZM102.717 46V37.9815H104.836V39.3962H104.93C105.097 38.9264 105.376 38.5558 105.765 38.2843C106.155 38.0128 106.622 37.8771 107.164 37.8771C107.714 37.8771 108.182 38.0146 108.569 38.2895C108.955 38.561 109.213 38.9299 109.341 39.3962H109.425C109.588 38.9369 109.884 38.5697 110.312 38.2947C110.744 38.0163 111.254 37.8771 111.842 37.8771C112.59 37.8771 113.197 38.1155 113.664 38.5923C114.134 39.0656 114.369 39.7373 114.369 40.6074V46H112.15V41.0459C112.15 40.6004 112.032 40.2663 111.795 40.0436C111.558 39.8208 111.262 39.7095 110.907 39.7095C110.504 39.7095 110.189 39.8382 109.963 40.0958C109.736 40.3498 109.623 40.6857 109.623 41.1033V46H107.467V40.9989C107.467 40.6056 107.354 40.2924 107.128 40.0592C106.905 39.8261 106.611 39.7095 106.246 39.7095C105.999 39.7095 105.776 39.7721 105.577 39.8974C105.383 40.0192 105.228 40.1915 105.113 40.4142C104.998 40.6335 104.941 40.891 104.941 41.1868V46H102.717ZM117.824 46.1514C117.312 46.1514 116.856 46.0626 116.456 45.8852C116.056 45.7042 115.739 45.4379 115.506 45.0864C115.276 44.7315 115.161 44.2895 115.161 43.7605C115.161 43.315 115.243 42.9409 115.407 42.6381C115.57 42.3353 115.793 42.0917 116.075 41.9072C116.357 41.7228 116.677 41.5836 117.035 41.4896C117.397 41.3956 117.777 41.3295 118.173 41.2912C118.64 41.2425 119.016 41.1973 119.301 41.1555C119.586 41.1103 119.794 41.0441 119.922 40.9571C120.051 40.8701 120.115 40.7414 120.115 40.5708V40.5395C120.115 40.2089 120.011 39.9531 119.802 39.7721C119.597 39.5911 119.305 39.5006 118.925 39.5006C118.525 39.5006 118.207 39.5894 117.97 39.7669C117.733 39.9409 117.577 40.1602 117.5 40.4247L115.443 40.2576C115.548 39.7704 115.753 39.3493 116.059 38.9943C116.365 38.6358 116.76 38.3609 117.244 38.1695C117.731 37.9746 118.295 37.8771 118.936 37.8771C119.381 37.8771 119.807 37.9293 120.215 38.0337C120.625 38.1381 120.989 38.3 121.306 38.5192C121.626 38.7385 121.878 39.0204 122.063 39.3649C122.247 39.706 122.339 40.1149 122.339 40.5917V46H120.23V44.8881H120.168C120.039 45.1386 119.867 45.3596 119.651 45.551C119.435 45.739 119.176 45.8869 118.873 45.9948C118.57 46.0992 118.22 46.1514 117.824 46.1514ZM118.461 44.6166C118.788 44.6166 119.077 44.5522 119.327 44.4235C119.578 44.2912 119.774 44.1137 119.917 43.891C120.06 43.6682 120.131 43.4159 120.131 43.134V42.2831C120.061 42.3283 119.966 42.3701 119.844 42.4084C119.726 42.4432 119.592 42.4763 119.442 42.5076C119.292 42.5354 119.143 42.5615 118.993 42.5859C118.843 42.6068 118.708 42.6259 118.586 42.6433C118.325 42.6816 118.097 42.7425 117.902 42.826C117.707 42.9095 117.556 43.0227 117.448 43.1653C117.34 43.3046 117.286 43.4786 117.286 43.6874C117.286 43.9902 117.396 44.2216 117.615 44.3817C117.838 44.5383 118.12 44.6166 118.461 44.6166ZM123.477 46V37.9815H125.633V39.3806H125.716C125.862 38.8829 126.108 38.507 126.452 38.253C126.797 37.9954 127.194 37.8667 127.642 37.8667C127.754 37.8667 127.874 37.8736 128.003 37.8876C128.131 37.9015 128.245 37.9206 128.342 37.945V39.9183C128.238 39.887 128.093 39.8591 127.909 39.8348C127.724 39.8104 127.555 39.7982 127.402 39.7982C127.075 39.7982 126.783 39.8696 126.525 40.0122C126.271 40.1515 126.069 40.3463 125.92 40.5969C125.774 40.8475 125.7 41.1364 125.7 41.4635V46H123.477ZM130.919 43.6926L130.924 41.025H131.248L133.816 37.9815H136.369L132.918 42.0116H132.391L130.919 43.6926ZM128.904 46V35.3087H131.128V46H128.904ZM133.915 46L131.556 42.5076L133.038 40.9362L136.52 46H133.915ZM139.096 35.3087V46H136.872V35.3087H139.096ZM143.943 46.1566C143.119 46.1566 142.409 45.9896 141.814 45.6555C141.222 45.3179 140.766 44.8411 140.446 44.2251C140.126 43.6056 139.966 42.873 139.966 42.0273C139.966 41.2025 140.126 40.4786 140.446 39.8556C140.766 39.2327 141.217 38.7472 141.798 38.3992C142.383 38.0511 143.068 37.8771 143.855 37.8771C144.384 37.8771 144.876 37.9624 145.332 38.1329C145.791 38.3 146.192 38.5523 146.533 38.8899C146.877 39.2275 147.145 39.652 147.337 40.1636C147.528 40.6718 147.624 41.2669 147.624 41.949V42.5598H140.853V41.1816H145.53C145.53 40.8614 145.461 40.5778 145.322 40.3307C145.182 40.0836 144.989 39.8904 144.742 39.7512C144.499 39.6085 144.215 39.5372 143.891 39.5372C143.554 39.5372 143.254 39.6155 142.993 39.7721C142.736 39.9252 142.534 40.1323 142.388 40.3933C142.242 40.6509 142.167 40.938 142.163 41.2547V42.565C142.163 42.9617 142.236 43.3046 142.383 43.5934C142.532 43.8823 142.743 44.105 143.014 44.2616C143.286 44.4182 143.608 44.4965 143.98 44.4965C144.227 44.4965 144.453 44.4617 144.659 44.3921C144.864 44.3225 145.04 44.2181 145.186 44.0789C145.332 43.9397 145.443 43.7692 145.52 43.5673L147.577 43.703C147.472 44.1972 147.258 44.6288 146.935 44.9977C146.615 45.3631 146.2 45.6485 145.692 45.8538C145.188 46.0557 144.605 46.1566 143.943 46.1566ZM152.752 37.9815V39.652H147.923V37.9815H152.752ZM149.02 36.0604H151.243V43.536C151.243 43.7413 151.275 43.9014 151.337 44.0163C151.4 44.1276 151.487 44.2059 151.598 44.2512C151.713 44.2964 151.845 44.319 151.995 44.319C152.1 44.319 152.204 44.3103 152.308 44.2929C152.413 44.2721 152.493 44.2564 152.548 44.246L152.898 45.9008C152.787 45.9356 152.63 45.9756 152.428 46.0209C152.227 46.0696 151.981 46.0992 151.692 46.1096C151.156 46.1305 150.687 46.0592 150.283 45.8956C149.883 45.732 149.571 45.478 149.348 45.1334C149.126 44.7889 149.016 44.3538 149.02 43.8283V36.0604Z" fill="black"/>
<rect x="13.875" y="6" width="45" height="45" rx="15.3409" fill="url(#paint0_linear_4104_9467)"/>
<ellipse cx="36.375" cy="26.2148" rx="17.5781" ry="16.3477" fill="url(#paint1_linear_4104_9467)"/>
<ellipse cx="36.375" cy="26.3906" rx="15.8203" ry="14.4141" fill="url(#paint2_linear_4104_9467)" fill-opacity="0.8"/>
<g filter="url(#filter0_d_4104_9467)">
<path d="M30.6479 43.6954C25.7143 43.6954 21.7148 39.6959 21.7148 34.7623V24.4467C21.7148 19.5131 25.7143 15.5137 30.6479 15.5137H42.027C46.9606 15.5137 50.96 19.5132 50.96 24.4468V34.7623C50.96 39.6959 46.9606 43.6954 42.027 43.6954H30.6479Z" fill="#D9D9D9"/>
<path d="M30.6479 43.6954C25.7143 43.6954 21.7148 39.6959 21.7148 34.7623V24.4467C21.7148 19.5131 25.7143 15.5137 30.6479 15.5137H42.027C46.9606 15.5137 50.96 19.5132 50.96 24.4468V34.7623C50.96 39.6959 46.9606 43.6954 42.027 43.6954H30.6479Z" fill="url(#paint3_linear_4104_9467)"/>
</g>
<path fill-rule="evenodd" clip-rule="evenodd" d="M29.7155 17.0116C29.3844 17.059 29.1373 17.1032 29.0908 17.1232C29.065 17.1344 29.0088 17.1491 28.9659 17.1559C28.805 17.1815 28.0877 17.4204 27.8571 17.5251C27.194 17.8262 27.076 17.8929 26.4666 18.3112C26.2985 18.4266 25.9035 18.7853 25.5142 19.176C25.2761 19.415 25.1643 19.5382 24.9741 19.7712C24.8255 19.9531 24.3841 20.6512 24.2639 20.8941C24.2385 20.9456 24.2047 21.0088 24.189 21.0346C24.1649 21.074 24.0943 21.2258 23.9353 21.5807C23.9062 21.6455 23.7322 22.2022 23.6476 22.5012C23.6208 22.5956 23.5898 22.7361 23.5787 22.8133C23.5675 22.8905 23.5455 22.9958 23.5298 23.0473C23.5141 23.0988 23.4802 23.4569 23.4545 23.8431C23.4158 24.423 23.41 25.1781 23.4209 28.1807C23.4376 32.7807 23.4679 35.6906 23.5017 35.9508C23.5613 36.4096 23.6622 36.8857 23.7489 37.1179C23.7624 37.1539 23.7976 37.2607 23.8271 37.3551C23.9575 37.7726 24.2012 38.3122 24.4331 38.6969C24.4693 38.757 24.5128 38.8378 24.5298 38.8764C24.5467 38.915 24.5735 38.9466 24.5892 38.9466C24.605 38.9466 24.6259 38.9782 24.6358 39.0168C24.6458 39.0554 24.6861 39.1221 24.7254 39.165C24.7648 39.2079 24.8216 39.2813 24.8516 39.3282C24.8816 39.375 25.0001 39.5224 25.1149 39.6558C25.8927 40.5597 26.8466 41.2557 27.8486 41.6503C28.0079 41.713 28.1516 41.7763 28.1679 41.7909C28.1842 41.8055 28.2308 41.8175 28.2715 41.8175C28.3121 41.8175 28.3751 41.8334 28.4114 41.8528C28.4478 41.8723 28.5558 41.9081 28.6514 41.9325C28.7471 41.9568 28.9097 41.9982 29.0127 42.0243C29.1158 42.0505 29.3126 42.0855 29.45 42.1021C29.5874 42.1187 29.7462 42.1448 29.8028 42.16C29.9192 42.1914 35.6331 42.1876 35.6646 42.1562C35.6757 42.1451 35.6916 41.0497 35.6999 39.7221C35.7082 38.3945 35.7282 37.1462 35.7444 36.948C35.8126 36.1118 36.1231 35.4315 36.6802 34.8977C36.8427 34.7421 37.4502 34.3281 37.5162 34.3281C37.5406 34.3281 37.598 34.309 37.6436 34.2857C37.9945 34.1058 38.3037 34.0805 40.147 34.0805C41.7534 34.0805 42.2458 34.1065 42.4218 34.2006C42.4568 34.2192 42.5056 34.2345 42.5303 34.2345C42.6266 34.2345 43.2721 34.5726 43.3639 34.6711C43.3725 34.6803 43.4528 34.7482 43.5424 34.822C43.7085 34.9589 44.0198 35.325 44.0198 35.3835C44.0198 35.4013 44.0374 35.4347 44.0588 35.4576C44.1032 35.505 44.1777 35.6583 44.2455 35.8416C44.3796 36.2044 44.4045 36.3261 44.419 36.692C44.4274 36.9022 44.4447 37.0742 44.4575 37.0742C44.5086 37.0742 44.6671 36.8792 44.7671 36.6933L44.8728 36.4969L44.8999 35.6232C44.9149 35.1426 44.9232 32.0874 44.9185 28.8338L44.9099 22.9181L44.8162 22.7361C44.7647 22.636 44.6685 22.5107 44.6025 22.4575C44.4846 22.3625 44.4749 22.3605 44.0404 22.3404C43.7971 22.3292 43.5383 22.3029 43.4651 22.2819C42.9812 22.1434 42.8052 21.448 43.1715 21.122C43.2233 21.0759 43.3251 21.0079 43.3977 20.9708C43.5211 20.908 43.5631 20.9045 44.0324 20.9183C44.5725 20.9341 44.6336 20.9479 45.0348 21.1438C45.2949 21.2708 45.5496 21.4762 45.7532 21.7233C45.9945 22.0161 46.1865 22.4558 46.2359 22.8289C46.282 23.1761 46.2843 36.3857 46.2384 36.6374C46.1644 37.0424 46.0315 37.3484 45.7962 37.6553C45.5705 37.9498 45.2228 38.2325 45.0296 38.2787C44.981 38.2904 44.9214 38.3155 44.8973 38.3346C44.8664 38.3591 44.213 38.3719 42.6697 38.3781L40.4858 38.3869L40.3399 38.3161C40.0766 38.1884 39.9585 38.0083 39.961 37.7384C39.9643 37.3791 40.1831 37.1042 40.5241 37.0307C40.5684 37.0212 41.0532 37.0105 41.6016 37.007C42.1501 37.0035 42.7076 36.995 42.8408 36.9881L43.0828 36.9757L43.0815 36.8455C43.077 36.4127 42.8477 35.9968 42.4645 35.7264C42.3494 35.6451 42.2334 35.5781 42.2068 35.5775C42.1802 35.5769 42.1444 35.5625 42.1274 35.5454C42.0354 35.4535 41.765 35.4388 40.1626 35.4382L40.0343 35.4382C38.7598 35.4377 38.4872 35.4376 38.251 35.5302C38.1867 35.5555 38.1252 35.5876 38.0468 35.6284L38.0329 35.6357L38.0178 35.6435C37.6816 35.8183 37.414 36.0858 37.2603 36.4008L37.2526 36.4164L37.2457 36.4306C37.2425 36.437 37.2394 36.4433 37.2364 36.4494L37.2315 36.4594C37.2006 36.5219 37.1746 36.5745 37.153 36.6285C37.0427 36.9036 37.0418 37.2225 37.0363 39.1641L37.036 39.281L37.0357 39.3783L37.0353 39.5193C37.0308 41.0118 37.0396 42.0734 37.0567 42.1184L37.0856 42.1944L40.1077 42.1814C43.2857 42.1677 43.3103 42.1667 43.8793 42.0231C43.9823 41.9971 44.1495 41.955 44.2507 41.9296C44.3519 41.9042 44.4496 41.8686 44.4678 41.8505C44.4859 41.8323 44.5243 41.8175 44.553 41.8175C44.6161 41.8175 44.8134 41.7352 45.1945 41.5501C45.351 41.474 45.4902 41.4118 45.5039 41.4118C45.5175 41.4118 45.5747 41.3767 45.631 41.3338C45.6874 41.2909 45.7463 41.2558 45.762 41.2558C45.7778 41.2558 45.8489 41.2137 45.92 41.1622C45.9911 41.1107 46.0568 41.0686 46.0659 41.0686C46.1275 41.0686 46.8636 40.4489 47.1387 40.1654C47.5082 39.7847 47.9551 39.2369 47.9551 39.1647C47.9551 39.1477 47.9669 39.1338 47.9813 39.1338C47.9957 39.1338 48.024 39.1022 48.0441 39.0636C48.0642 39.025 48.1051 38.9558 48.135 38.9097C48.3692 38.549 48.617 38.0726 48.765 37.6984C48.8024 37.604 48.8451 37.4986 48.8601 37.4643C48.9059 37.3591 49.017 36.9732 49.017 36.9192C49.017 36.8912 49.0294 36.855 49.0447 36.8386C49.1145 36.7642 49.2292 35.9325 49.2533 35.3267C49.2858 34.5098 49.296 24.8209 49.265 24.1395C49.2302 23.3727 49.1465 22.713 49.0493 22.4388C49.034 22.3959 48.9912 22.2555 48.9541 22.1268C48.917 21.998 48.8667 21.8485 48.8425 21.7944C48.8182 21.7403 48.7983 21.6818 48.7983 21.6643C48.7983 21.6468 48.7781 21.5928 48.7534 21.5442C48.7287 21.4956 48.685 21.3997 48.6563 21.331C48.5617 21.105 48.4729 20.928 48.3577 20.7363C48.2953 20.6323 48.2344 20.5165 48.2224 20.4788C48.2105 20.4412 48.1901 20.4104 48.1771 20.4104C48.1641 20.4104 48.1224 20.3483 48.0845 20.2723C48.0465 20.1963 48.0053 20.1296 47.993 20.124C47.9807 20.1185 47.9222 20.0438 47.8629 19.958C47.6713 19.6805 47.3977 19.3609 47.0636 19.0242C46.9106 18.87 46.5054 18.5098 46.4133 18.446C46.3424 18.397 46.3269 18.385 46.2091 18.2879C46.1678 18.2539 46.1166 18.2261 46.0953 18.2261C46.074 18.2261 46.0485 18.205 46.0386 18.1792C46.0287 18.1535 46.0003 18.1324 45.9754 18.1324C45.9505 18.1324 45.9255 18.1212 45.9198 18.1074C45.9079 18.0789 45.5383 17.8516 45.5038 17.8516C45.4913 17.8516 45.4219 17.8116 45.3495 17.7628C45.1285 17.6138 44.267 17.2668 43.8636 17.1643C43.6447 17.1086 43.2774 17.0414 43.0204 17.0099C42.7338 16.9748 29.9612 16.9764 29.7155 17.0116ZM32.0017 20.402C32.024 20.3809 32.0914 20.34 32.1516 20.311C32.3985 20.1922 32.7649 20.2561 32.9805 20.4557C33.1438 20.6069 33.2759 20.9556 33.2759 21.2353C33.276 21.4423 33.3816 22.0728 33.4463 22.2516C33.5295 22.4815 33.5986 22.6261 33.6255 22.6261C33.6394 22.6261 33.6507 22.6407 33.6507 22.6585C33.6507 22.718 33.7884 22.8887 34.0273 23.1257C34.1964 23.2934 34.3299 23.3926 34.496 23.4741C34.7177 23.5829 34.8507 23.6212 35.4153 23.7382C35.7018 23.7976 35.8147 23.8565 35.9451 24.0146C36.1593 24.2743 36.2037 24.5928 36.0643 24.8682C35.9175 25.1581 35.7092 25.2832 35.1967 25.3891C35.0593 25.4175 34.9007 25.4604 34.8443 25.4845C34.7879 25.5085 34.7231 25.5282 34.7003 25.5282C34.6394 25.5282 34.3101 25.7086 34.1661 25.8209C33.9403 25.997 33.557 26.4609 33.557 26.5581C33.557 26.5724 33.5373 26.6239 33.5133 26.6725C33.4892 26.721 33.454 26.8111 33.4351 26.8727C33.3837 27.039 33.276 27.6457 33.2752 27.7732C33.2743 27.9054 33.1729 28.3009 33.1143 28.4002C32.9085 28.7496 32.4296 28.9104 32.1042 28.7393C31.8186 28.5892 31.6616 28.317 31.6199 27.8998C31.5329 27.0296 31.4402 26.7128 31.1477 26.2854C31.0275 26.1096 30.7339 25.8193 30.6494 25.7925C30.6167 25.7821 30.59 25.7605 30.59 25.7445C30.59 25.7285 30.5735 25.7154 30.5534 25.7154C30.5333 25.7154 30.4946 25.6962 30.4675 25.6727C30.3394 25.5617 29.92 25.4319 29.3886 25.3389C29.2861 25.3209 29.1877 25.2949 29.17 25.2811C29.1522 25.2672 29.1025 25.2474 29.0596 25.237C28.9481 25.21 28.8216 25.0814 28.7314 24.9036C28.6297 24.7031 28.622 24.3682 28.715 24.1929C28.8783 23.8849 28.968 23.8406 29.8404 23.6369C29.9692 23.6068 30.2068 23.5197 30.3684 23.4433C30.6032 23.3322 30.7068 23.2597 30.8853 23.0822C31.1222 22.8464 31.2915 22.6065 31.3834 22.3764C31.4143 22.2992 31.4595 22.1892 31.484 22.1319C31.5084 22.0747 31.5498 21.829 31.576 21.5858C31.6021 21.3427 31.6378 21.0704 31.6553 20.9807C31.6918 20.7941 31.8172 20.5409 31.9029 20.481C31.9349 20.4586 31.9793 20.423 32.0017 20.402ZM26.8814 21.7991C27.144 21.4113 27.3991 21.2249 27.9664 21.0059C28.1872 20.9208 28.2288 20.9154 28.6882 20.9126C29.164 20.9098 29.1787 20.9117 29.2973 20.9911C29.4305 21.0802 29.5564 21.2167 29.5582 21.2738C29.5588 21.2938 29.5769 21.3161 29.5983 21.3232C29.6258 21.3324 29.6371 21.419 29.6365 21.6145C29.6356 21.9167 29.6045 21.9972 29.4232 22.1649C29.2959 22.2827 29.1962 22.3061 28.7422 22.3248C28.1643 22.3486 28.0173 22.43 27.8818 22.8008C27.8287 22.946 27.8259 23.2957 27.8266 29.7097C27.8266 30.0417 27.8266 30.3577 27.8266 30.6585V30.6692C27.8269 36.3649 27.8269 36.6028 27.9412 36.7551C27.9462 36.7618 27.9514 36.7682 27.9568 36.775C27.9634 36.7833 27.9704 36.7919 27.9778 36.8019C28.0626 36.9166 28.2289 37.0118 28.3447 37.0118C28.4554 37.0118 28.6942 37.1148 28.7783 37.1988C29.0257 37.446 28.9993 37.9258 28.725 38.1693C28.6073 38.2738 28.3705 38.3537 28.1781 38.3537C27.9738 38.3537 27.6338 38.2662 27.4908 38.1768C27.4267 38.1368 27.3658 38.104 27.3555 38.104C27.3291 38.104 27.0526 37.8798 27.0092 37.8232C26.9895 37.7974 26.9368 37.7342 26.8921 37.6827C26.8475 37.6313 26.8109 37.5716 26.8109 37.5501C26.8109 37.5287 26.8 37.5111 26.7867 37.5111C26.7415 37.5111 26.5674 37.1289 26.4954 36.8714C26.4586 36.7399 26.4517 35.6247 26.4517 29.7877C26.4517 23.0937 26.4537 22.8518 26.5109 22.6144C26.5787 22.3332 26.6989 22.0686 26.8814 21.7991ZM39.755 22.1334C39.9446 21.9012 40.0844 21.7972 40.2636 21.755C40.4373 21.7142 40.4937 21.7161 40.6728 21.7693C41.0068 21.8683 41.2172 22.2006 41.2548 22.6885C41.3296 23.6561 41.4994 24.1082 41.9598 24.5656C42.3303 24.9336 42.5743 25.0403 43.3483 25.1727C43.7067 25.234 43.867 25.3034 44.0021 25.4559C44.2777 25.767 44.2714 26.2157 43.9868 26.5396C43.858 26.6861 43.7243 26.7514 43.4108 26.821C42.9617 26.9205 42.7881 26.9657 42.6612 27.016C42.4626 27.0948 42.2708 27.1955 42.2708 27.221C42.2708 27.2339 42.2547 27.2445 42.235 27.2445C42.2038 27.2445 41.9711 27.4178 41.8797 27.5091C41.7069 27.6818 41.4275 28.157 41.4275 28.2783C41.4275 28.3035 41.4146 28.3376 41.3988 28.3538C41.3609 28.393 41.2804 28.8773 41.2565 29.2104C41.2255 29.6423 41.1278 29.8935 40.9128 30.0941C40.6672 30.3232 40.3648 30.3662 40.1002 30.2096C39.9164 30.1009 39.8035 30.0081 39.8035 29.966C39.8035 29.9494 39.7838 29.9195 39.7598 29.8996C39.7358 29.8797 39.6932 29.7933 39.6651 29.7075C39.6187 29.5655 39.5976 29.4442 39.5382 28.9764C39.4911 28.6058 39.4743 28.6017 39.1826 28.8906C39.0656 29.0064 38.7341 29.3259 38.4459 29.6005C38.1577 29.8751 37.6953 30.3192 37.4182 30.5874C37.1412 30.8556 36.7751 31.2067 36.6048 31.3676C36.2393 31.7128 36.166 31.7836 35.0569 32.8615C34.049 33.8409 33.8566 34.0272 33.0621 34.7919C32.7298 35.1118 32.1918 35.6368 31.8664 35.9586C31.5412 36.2805 31.2624 36.5437 31.247 36.5437C31.2317 36.5437 31.2005 36.5618 31.1778 36.5839C31.1551 36.606 31.0662 36.6517 30.9804 36.6854C30.7743 36.7661 30.2784 36.7689 30.1371 36.69C30.0856 36.6613 30.0314 36.6377 30.0167 36.6375C29.9607 36.6371 29.6489 36.3708 29.6118 36.2917C29.6003 36.2673 29.5788 36.2262 29.5641 36.2005C29.4372 35.9794 29.4187 35.9018 29.4187 35.5906L29.4187 35.5624C29.4186 35.4545 29.4185 35.37 29.4339 35.2884C29.4894 34.9948 29.7459 34.739 30.9259 33.5623L31.0116 33.4769C31.7674 32.7231 32.757 31.7461 33.2107 31.3059C33.6644 30.8656 34.5077 30.0392 35.0846 29.4693C37.24 27.3405 37.4346 27.1509 37.4631 27.1509C37.4791 27.1509 37.4923 27.1402 37.4923 27.1271C37.4923 27.1141 37.5286 27.0642 37.5731 27.0163C37.667 26.9152 37.6529 26.8388 37.5406 26.8388C37.43 26.8388 37.1844 26.7788 37.055 26.7201C36.776 26.5936 36.6174 26.3339 36.6185 26.0051C36.6195 25.6881 36.7391 25.4676 37.0008 25.3004C37.0886 25.2444 37.1411 25.231 37.6953 25.123C38.2224 25.0204 38.3648 24.9726 38.6074 24.817C38.7742 24.7099 39.1635 24.3156 39.2139 24.2027C39.2294 24.168 39.27 24.0933 39.3043 24.0367C39.4473 23.8004 39.5703 23.3021 39.5982 22.8462C39.6161 22.5545 39.6916 22.211 39.755 22.1334ZM32.3289 22.2516C32.3545 22.14 32.3827 21.9268 32.3915 21.7778C32.4042 21.5625 32.4164 21.5104 32.4513 21.5237C32.4841 21.5363 32.4951 21.6062 32.4951 21.8005C32.4951 22.446 32.8012 23.2107 33.2511 23.6894C33.6354 24.0982 34.0054 24.2996 34.7438 24.5021C34.8427 24.5292 34.8658 24.5446 34.8219 24.5541C34.7876 24.5615 34.7454 24.5784 34.7282 24.5918C34.711 24.6051 34.6478 24.6257 34.5877 24.6376C34.3172 24.691 33.884 24.8826 33.6378 25.0578C33.4587 25.1852 33.2204 25.4173 33.1172 25.565C33.0774 25.622 33.0265 25.6798 33.0042 25.6936C32.9819 25.7073 32.9636 25.7377 32.9636 25.7612C32.9636 25.7846 32.9513 25.8085 32.9363 25.8142C32.8965 25.8294 32.7252 26.1802 32.6545 26.3916C32.5443 26.7209 32.5021 26.9135 32.4843 27.1679C32.4585 27.5375 32.4208 27.5916 32.3984 27.2913C32.3753 26.9827 32.3167 26.6676 32.2583 26.5376C32.2339 26.4836 32.214 26.4256 32.214 26.4089C32.214 26.3357 32.0387 25.9915 31.8841 25.7612C31.7326 25.5355 31.3505 25.1225 31.2931 25.1225C31.2807 25.1225 31.2192 25.0835 31.1566 25.0357C31.094 24.9881 30.9725 24.917 30.8867 24.8778C30.8008 24.8386 30.7061 24.7934 30.6763 24.7773C30.6465 24.7612 30.5973 24.7479 30.567 24.7478C30.5367 24.7477 30.4746 24.7282 30.429 24.7044C30.3834 24.6807 30.2569 24.6511 30.1479 24.6388C29.8179 24.6013 29.8003 24.5371 30.1059 24.4856C30.3281 24.4481 30.871 24.2563 30.871 24.2152C30.871 24.203 30.9096 24.1834 30.9566 24.1716C31.0037 24.1598 31.0493 24.1407 31.0581 24.1292C31.0669 24.1176 31.1345 24.0672 31.2084 24.0171C31.3733 23.9053 31.668 23.6209 31.7929 23.453C31.844 23.3844 31.8941 23.3212 31.9044 23.3126C31.9245 23.2958 32.1444 22.8385 32.182 22.7353C32.2626 22.5138 32.2872 22.4327 32.3289 22.2516ZM40.422 23.0005C40.4105 23.0434 40.3922 23.1979 40.3812 23.3438C40.352 23.7334 40.2744 24.054 40.1271 24.3939C40.1037 24.448 40.0845 24.5077 40.0845 24.5265C40.0845 24.5454 40.0719 24.5608 40.0564 24.5608C40.0409 24.5608 40.0122 24.5994 39.9927 24.6466C39.9731 24.6938 39.9346 24.7746 39.9071 24.8261C39.8469 24.939 39.3195 25.4689 39.2057 25.5309C39.1612 25.5551 39.0558 25.6122 38.9716 25.6576C38.8874 25.7031 38.6783 25.785 38.5068 25.8395C38.3353 25.8941 38.1706 25.9517 38.1408 25.9675C38.1109 25.9833 38.0582 25.9963 38.0237 25.9963C37.9886 25.9963 37.9608 26.0169 37.9608 26.0431C37.9608 26.0762 37.9944 26.0899 38.0758 26.0899C38.2024 26.0899 38.5083 26.1643 38.6791 26.2366C38.9437 26.3487 39.2095 26.4979 39.2099 26.5346C39.21 26.5474 39.2304 26.558 39.2553 26.558C39.2803 26.558 39.3119 26.5759 39.3256 26.5978C39.3393 26.6197 39.4106 26.6843 39.4838 26.7413C39.7688 26.9629 40.0614 27.4411 40.2212 27.9466C40.28 28.1323 40.3651 28.5713 40.367 28.6987C40.3678 28.7484 40.3877 28.8313 40.4114 28.8828C40.454 28.9757 40.4543 28.9751 40.4568 28.8017C40.4594 28.621 40.5391 28.1995 40.6275 27.8994C40.6771 27.7307 40.9175 27.231 40.9969 27.1316C41.069 27.0413 41.472 26.637 41.5667 26.5599C41.7956 26.3736 42.4709 26.0921 42.6973 26.0885C42.7462 26.0877 42.8283 26.0678 42.8798 26.0442L42.9735 26.0013L42.8739 25.9988C42.8191 25.9974 42.7665 25.9838 42.7571 25.9686C42.7477 25.9534 42.6871 25.9311 42.6225 25.9192C42.4802 25.8928 42.1509 25.7886 42.076 25.7461C42.0462 25.7292 42.0061 25.7154 41.9869 25.7154C41.9676 25.7154 41.8895 25.6733 41.8131 25.6218C41.7367 25.5703 41.6626 25.5282 41.6484 25.5282C41.6342 25.5282 41.5257 25.4386 41.4073 25.3291C41.1011 25.0458 40.8331 24.6678 40.7222 24.3629C40.5657 23.9324 40.4896 23.5925 40.4625 23.2034C40.4498 23.021 40.4357 22.9499 40.422 23.0005ZM37.5307 28.062C37.8617 27.7367 38.1958 27.4075 38.2731 27.3305C38.3504 27.2534 38.4433 27.1885 38.4795 27.1862C38.5488 27.1819 38.745 27.3002 38.8509 27.4102C38.9886 27.5533 39.1495 27.7925 39.141 27.8415C39.136 27.8701 38.7965 28.234 38.3866 28.6503L37.6412 29.4071L37.5214 29.2854C37.4555 29.2184 37.401 29.147 37.4001 29.1267C37.3993 29.1064 37.3717 29.0813 37.3388 29.0709C37.306 29.0605 37.2003 28.9623 37.104 28.8527L36.929 28.6535L37.5307 28.062Z" fill="white"/>
<path d="M36.2274 29.494C36.2102 29.5109 35.9282 29.7876 35.6006 30.1088C35.2731 30.4299 34.1558 31.5305 33.1177 32.5546C32.0796 33.5785 31.1373 34.5053 31.0238 34.6141C30.9102 34.7229 30.703 34.9211 30.5631 35.0547C30.3148 35.2919 30.3089 35.301 30.3089 35.4456C30.3089 35.5659 30.3261 35.6125 30.4008 35.6942C30.4815 35.7825 30.5123 35.7948 30.6527 35.7948C30.7786 35.7948 30.8373 35.7765 30.9278 35.709C31.0431 35.6231 31.5021 35.1829 32.4493 34.2501C33.4247 33.2897 34.9641 31.7985 35.4775 31.3168C35.6604 31.1452 35.8772 30.9416 35.9591 30.8643C36.041 30.7871 36.2719 30.5716 36.4722 30.3854C36.6725 30.1992 36.8364 30.0328 36.8364 30.0156C36.8364 29.9792 36.3157 29.4593 36.2816 29.4616C36.2689 29.4625 36.2445 29.4771 36.2274 29.494Z" fill="#1CAEFF"/>
<path fill-rule="evenodd" clip-rule="evenodd" d="M34.529 18.3682C34.5399 18.3212 34.5519 18.2314 34.5556 18.1686C34.5611 18.0779 34.5663 18.0559 34.5811 18.0615C34.5951 18.0668 34.5998 18.0963 34.5998 18.1781C34.5998 18.4501 34.7301 18.7723 34.9218 18.9739C35.0855 19.1462 35.243 19.2311 35.5575 19.3164C35.5996 19.3278 35.6095 19.3343 35.5908 19.3383C35.5762 19.3414 35.5582 19.3485 35.5509 19.3541C35.5436 19.3598 35.5166 19.3684 35.491 19.3735C35.3759 19.3959 35.1913 19.4767 35.0865 19.5505C35.0102 19.6041 34.9087 19.7019 34.8648 19.7642C34.8478 19.7882 34.8261 19.8126 34.8166 19.8183C34.8071 19.8241 34.7993 19.8369 34.7993 19.8468C34.7993 19.8567 34.7941 19.8668 34.7877 19.8692C34.7707 19.8756 34.6978 20.0234 34.6677 20.1124C34.6208 20.2512 34.6028 20.3323 34.5952 20.4395C34.5842 20.5952 34.5681 20.618 34.5586 20.4915C34.5487 20.3615 34.5238 20.2287 34.4989 20.174C34.4885 20.1512 34.4801 20.1268 34.4801 20.1197C34.4801 20.0889 34.4054 19.9438 34.3395 19.8468C34.275 19.7518 34.1123 19.5777 34.0878 19.5777C34.0825 19.5777 34.0564 19.5613 34.0297 19.5412C34.003 19.5211 33.9513 19.4911 33.9147 19.4746C33.8781 19.4581 33.8378 19.4391 33.8251 19.4323C33.8124 19.4255 33.7915 19.4199 33.7786 19.4199C33.7657 19.4198 33.7392 19.4116 33.7198 19.4016C33.7004 19.3916 33.6465 19.3792 33.6001 19.3739C33.4595 19.3582 33.452 19.3311 33.5822 19.3094C33.6768 19.2936 33.9081 19.2128 33.9081 19.1955C33.9081 19.1904 33.9245 19.1821 33.9445 19.1771C33.9646 19.1722 33.984 19.1641 33.9877 19.1592C33.9915 19.1544 34.0203 19.1331 34.0517 19.112C34.122 19.0649 34.2475 18.9451 34.3007 18.8744C34.3224 18.8454 34.3438 18.8188 34.3482 18.8152C34.3568 18.8081 34.4504 18.6155 34.4664 18.572C34.5008 18.4787 34.5112 18.4445 34.529 18.3682Z" fill="#2BB8FF"/>
<path fill-rule="evenodd" clip-rule="evenodd" d="M37.7874 19.1309C37.804 19.0594 37.8223 18.9229 37.828 18.8275C37.8363 18.6896 37.8442 18.6562 37.8669 18.6648C37.8881 18.6728 37.8953 18.7176 37.8953 18.842C37.8953 19.2554 38.0939 19.7451 38.3859 20.0516C38.6354 20.3135 38.8755 20.4424 39.3547 20.5721C39.4189 20.5895 39.4339 20.5993 39.4054 20.6054C39.3831 20.6101 39.3558 20.621 39.3446 20.6295C39.3335 20.6381 39.2924 20.6513 39.2534 20.6589C39.0779 20.6931 38.7967 20.8158 38.6369 20.9279C38.5207 21.0095 38.366 21.1582 38.2991 21.2528C38.2732 21.2893 38.2402 21.3263 38.2257 21.3351C38.2112 21.3439 38.1994 21.3634 38.1994 21.3784C38.1994 21.3934 38.1914 21.4087 38.1816 21.4124C38.1558 21.4221 38.0447 21.6468 37.9988 21.7821C37.9272 21.993 37.8998 22.1163 37.8883 22.2793C37.8716 22.516 37.8471 22.5506 37.8325 22.3583C37.8175 22.1606 37.7795 21.9589 37.7416 21.8757C37.7258 21.841 37.7129 21.8039 37.7129 21.7932C37.7129 21.7463 37.5991 21.5259 37.4987 21.3784C37.4004 21.2339 37.1524 20.9694 37.1152 20.9694C37.1071 20.9694 37.0672 20.9444 37.0266 20.9138C36.986 20.8833 36.9071 20.8378 36.8514 20.8127C36.7956 20.7876 36.7342 20.7586 36.7149 20.7483C36.6955 20.738 36.6636 20.7295 36.6439 20.7295C36.6242 20.7294 36.5839 20.7169 36.5544 20.7017C36.5248 20.6865 36.4427 20.6675 36.3719 20.6596C36.1578 20.6357 36.1463 20.5945 36.3446 20.5615C36.4889 20.5375 36.8413 20.4147 36.8413 20.3884C36.8413 20.3806 36.8662 20.368 36.8968 20.3605C36.9273 20.3529 36.957 20.3407 36.9627 20.3333C36.9684 20.3259 37.0122 20.2936 37.0602 20.2615C37.1672 20.1899 37.3585 20.0078 37.4395 19.9003C37.4727 19.8563 37.5053 19.8158 37.5119 19.8103C37.525 19.7996 37.6677 19.5067 37.6921 19.4406C37.7444 19.2988 37.7604 19.2469 37.7874 19.1309Z" fill="#2BB8FF"/>
<path fill-rule="evenodd" clip-rule="evenodd" d="M33.4024 37.7799C33.4024 38.1339 33.1154 38.4209 32.7614 38.4209H30.5179C30.1639 38.4209 29.8769 38.1339 29.8769 37.7799C29.8769 37.4259 30.1639 37.1389 30.5179 37.1389H32.7614C33.1154 37.1389 33.4024 37.4259 33.4024 37.7799Z" fill="#8CBAF1"/>
</g>
<rect x="0.572368" y="0.572368" width="175.855" height="56.8553" stroke="#ECEDEF" stroke-width="1.14474"/>
<defs>
<filter id="filter0_d_4104_9467" x="20.0625" y="15.2676" width="32.5508" height="31.4863" filterUnits="userSpaceOnUse" color-interpolation-filters="sRGB">
<feFlood flood-opacity="0" result="BackgroundImageFix"/>
<feColorMatrix in="SourceAlpha" type="matrix" values="0 0 0 0 0 0 0 0 0 0 0 0 0 0 0 0 0 0 127 0" result="hardAlpha"/>
<feOffset dy="1.40625"/>
<feGaussianBlur stdDeviation="0.826172"/>
<feComposite in2="hardAlpha" operator="out"/>
<feColorMatrix type="matrix" values="0 0 0 0 0.00392157 0 0 0 0 0.0901961 0 0 0 0 0.231373 0 0 0 0.5 0"/>
<feBlend mode="normal" in2="BackgroundImageFix" result="effect1_dropShadow_4104_9467"/>
<feBlend mode="normal" in="SourceGraphic" in2="effect1_dropShadow_4104_9467" result="shape"/>
</filter>
<linearGradient id="paint0_linear_4104_9467" x1="36.375" y1="6" x2="36.375" y2="51" gradientUnits="userSpaceOnUse">
<stop stop-color="#6CCCFB"/>
<stop offset="1" stop-color="#3B6CF2"/>
</linearGradient>
<linearGradient id="paint1_linear_4104_9467" x1="36.375" y1="9.86719" x2="36.375" y2="42.5625" gradientUnits="userSpaceOnUse">
<stop stop-color="#6CCCFB" stop-opacity="0.2"/>
<stop offset="1" stop-color="#8EEBFD" stop-opacity="0.5"/>
</linearGradient>
<linearGradient id="paint2_linear_4104_9467" x1="36.375" y1="11.9766" x2="36.375" y2="40.8047" gradientUnits="userSpaceOnUse">
<stop stop-color="#8DEAFC"/>
<stop offset="1" stop-color="#8EEBFD" stop-opacity="0.5"/>
</linearGradient>
<linearGradient id="paint3_linear_4104_9467" x1="36.3374" y1="15.5137" x2="36.3374" y2="43.6954" gradientUnits="userSpaceOnUse">
<stop stop-color="#1B4680"/>
<stop offset="1" stop-color="#001539"/>
</linearGradient>
<clipPath id="clip0_4104_9467">
<rect width="177" height="58" fill="white"/>
</clipPath>
</defs>
</svg>
