<svg width="241" height="58" viewBox="0 0 241 58" fill="none" xmlns="http://www.w3.org/2000/svg">
<rect x="0.572368" y="0.572368" width="239.855" height="56.8553" fill="white"/>
<rect x="0.572368" y="0.572368" width="239.855" height="56.8553" stroke="#ECEDEF" stroke-width="1.14474"/>
<path d="M70.4877 12H69.9537C69.9139 11.8011 69.8419 11.6174 69.7377 11.4489C69.6355 11.2784 69.5067 11.1297 69.3514 11.0028C69.1961 10.8759 69.0199 10.7775 68.823 10.7074C68.626 10.6373 68.4129 10.6023 68.1838 10.6023C67.8163 10.6023 67.4811 10.6979 67.1781 10.8892C66.877 11.0805 66.6355 11.3617 66.4537 11.733C66.2737 12.1023 66.1838 12.5549 66.1838 13.0909C66.1838 13.6307 66.2737 14.0852 66.4537 14.4545C66.6355 14.8239 66.877 15.1042 67.1781 15.2955C67.4811 15.4848 67.8163 15.5795 68.1838 15.5795C68.4129 15.5795 68.626 15.5445 68.823 15.4744C69.0199 15.4044 69.1961 15.3068 69.3514 15.1818C69.5067 15.0549 69.6355 14.9062 69.7377 14.7358C69.8419 14.5653 69.9139 14.3807 69.9537 14.1818H70.4877C70.4404 14.4489 70.3514 14.6979 70.2207 14.929C70.0919 15.1581 69.9271 15.3589 69.7264 15.5312C69.5275 15.7036 69.2984 15.8381 69.0389 15.9347C68.7794 16.0312 68.4944 16.0795 68.1838 16.0795C67.6951 16.0795 67.2614 15.9574 66.8826 15.7131C66.5038 15.4669 66.2065 15.1203 65.9906 14.6733C65.7766 14.2263 65.6696 13.6989 65.6696 13.0909C65.6696 12.483 65.7766 11.9555 65.9906 11.5085C66.2065 11.0616 66.5038 10.7159 66.8826 10.4716C67.2614 10.2254 67.6951 10.1023 68.1838 10.1023C68.4944 10.1023 68.7794 10.1506 69.0389 10.2472C69.2984 10.3419 69.5275 10.4763 69.7264 10.6506C69.9271 10.8229 70.0919 11.0237 70.2207 11.2528C70.3514 11.482 70.4404 11.7311 70.4877 12ZM71.3105 16V11.6364H71.802V12.3068H71.8389C71.926 12.0871 72.0775 11.91 72.2935 11.7756C72.5113 11.6392 72.7575 11.571 73.0321 11.571C73.0738 11.571 73.1202 11.572 73.1713 11.5739C73.2224 11.5758 73.265 11.5777 73.2991 11.5795V12.0938C73.2764 12.09 73.2366 12.0843 73.1798 12.0767C73.123 12.0691 73.0615 12.0653 72.9952 12.0653C72.7679 12.0653 72.5652 12.1136 72.3872 12.2102C72.2111 12.3049 72.0719 12.4366 71.9696 12.6051C71.8673 12.7737 71.8162 12.9659 71.8162 13.1818V16H71.3105ZM75.4735 16.0909C75.0663 16.0909 74.714 15.9962 74.4166 15.8068C74.1193 15.6155 73.8892 15.3513 73.7263 15.0142C73.5653 14.6752 73.4848 14.285 73.4848 13.8438C73.4848 13.4044 73.5653 13.0142 73.7263 12.6733C73.8892 12.3305 74.1136 12.0625 74.3996 11.8693C74.6875 11.6742 75.0199 11.5767 75.3968 11.5767C75.6335 11.5767 75.8617 11.6203 76.0814 11.7074C76.3011 11.7926 76.4981 11.9242 76.6723 12.1023C76.8485 12.2784 76.9877 12.5009 77.0899 12.7699C77.1922 13.0369 77.2433 13.3532 77.2433 13.7188V13.9688H73.8343V13.5227H76.7263C76.7263 13.2424 76.6695 12.9905 76.5558 12.767C76.4441 12.5417 76.2879 12.3636 76.0871 12.233C75.8882 12.1023 75.6581 12.0369 75.3968 12.0369C75.1202 12.0369 74.8769 12.1108 74.6666 12.2585C74.4564 12.4062 74.2916 12.6013 74.1723 12.8438C74.0549 13.0862 73.9952 13.3513 73.9933 13.6392V13.9062C73.9933 14.2528 74.053 14.5559 74.1723 14.8153C74.2935 15.0729 74.4649 15.2727 74.6865 15.4148C74.9081 15.5568 75.1704 15.6278 75.4735 15.6278C75.6799 15.6278 75.8608 15.5956 76.0161 15.5312C76.1733 15.4669 76.3049 15.3807 76.411 15.2727C76.5189 15.1629 76.6004 15.0426 76.6553 14.9119L77.1354 15.0682C77.0691 15.2519 76.9602 15.4214 76.8087 15.5767C76.6591 15.732 76.4716 15.857 76.2462 15.9517C76.0227 16.0445 75.7651 16.0909 75.4735 16.0909ZM79.2564 16.0994C78.9932 16.0994 78.7527 16.0483 78.5349 15.946C78.317 15.8419 78.1438 15.6922 78.015 15.4972C77.8862 15.3002 77.8218 15.0616 77.8218 14.7812C77.8218 14.5653 77.8625 14.3835 77.9439 14.2358C78.0254 14.0881 78.1409 13.9669 78.2905 13.8722C78.4402 13.7775 78.6172 13.7027 78.8218 13.6477C79.0263 13.5928 79.2517 13.5502 79.4979 13.5199C79.7422 13.4896 79.9487 13.4631 80.1172 13.4403C80.2877 13.4176 80.4174 13.3816 80.5064 13.3324C80.5955 13.2831 80.64 13.2036 80.64 13.0938V12.9915C80.64 12.6941 80.5509 12.4602 80.3729 12.2898C80.1968 12.1174 79.943 12.0312 79.6116 12.0312C79.2972 12.0312 79.0405 12.1004 78.8417 12.2386C78.6447 12.3769 78.5064 12.5398 78.4269 12.7273L77.9468 12.554C78.0453 12.3153 78.1816 12.125 78.3559 11.983C78.5301 11.839 78.7252 11.7358 78.9411 11.6733C79.157 11.6089 79.3758 11.5767 79.5974 11.5767C79.764 11.5767 79.9373 11.5985 80.1172 11.642C80.2991 11.6856 80.4676 11.7614 80.6229 11.8693C80.7782 11.9754 80.9042 12.1241 81.0008 12.3153C81.0974 12.5047 81.1456 12.7453 81.1456 13.0369V16H80.64V15.3097H80.6087C80.5481 15.4384 80.4581 15.5634 80.3388 15.6847C80.2195 15.8059 80.0699 15.9053 79.89 15.983C79.71 16.0606 79.4989 16.0994 79.2564 16.0994ZM79.3246 15.6364C79.5936 15.6364 79.8265 15.5767 80.0235 15.4574C80.2205 15.3381 80.372 15.1799 80.478 14.983C80.586 14.7841 80.64 14.5653 80.64 14.3267V13.696C80.6021 13.732 80.5386 13.7642 80.4496 13.7926C80.3625 13.821 80.2612 13.8466 80.1456 13.8693C80.032 13.8902 79.9184 13.9081 79.8047 13.9233C79.6911 13.9384 79.5888 13.9517 79.4979 13.9631C79.2517 13.9934 79.0415 14.0407 78.8672 14.1051C78.693 14.1695 78.5595 14.2585 78.4667 14.3722C78.3739 14.4839 78.3275 14.6278 78.3275 14.804C78.3275 15.0691 78.4222 15.2746 78.6116 15.4205C78.8009 15.5644 79.0386 15.6364 79.3246 15.6364ZM83.8896 11.6364V12.0767H81.8072V11.6364H83.8896ZM82.4577 10.5909H82.9663V14.8608C82.9663 15.0426 82.9975 15.1856 83.06 15.2898C83.1225 15.392 83.204 15.465 83.3043 15.5085C83.4047 15.5502 83.5117 15.571 83.6254 15.571C83.6916 15.571 83.7485 15.5672 83.7958 15.5597C83.8432 15.5502 83.8848 15.5407 83.9208 15.5312L84.0288 15.9886C83.9795 16.0076 83.9189 16.0246 83.847 16.0398C83.775 16.0568 83.686 16.0653 83.5799 16.0653C83.3943 16.0653 83.2153 16.0246 83.043 15.9432C82.8725 15.8617 82.7324 15.7405 82.6225 15.5795C82.5127 15.4186 82.4577 15.2188 82.4577 14.9801V10.5909ZM86.4353 16.0909C86.0281 16.0909 85.6759 15.9962 85.3785 15.8068C85.0812 15.6155 84.8511 15.3513 84.6882 15.0142C84.5272 14.6752 84.4467 14.285 84.4467 13.8438C84.4467 13.4044 84.5272 13.0142 84.6882 12.6733C84.8511 12.3305 85.0755 12.0625 85.3615 11.8693C85.6493 11.6742 85.9817 11.5767 86.3586 11.5767C86.5954 11.5767 86.8236 11.6203 87.0433 11.7074C87.263 11.7926 87.46 11.9242 87.6342 12.1023C87.8103 12.2784 87.9495 12.5009 88.0518 12.7699C88.1541 13.0369 88.2052 13.3532 88.2052 13.7188V13.9688H84.7961V13.5227H87.6882C87.6882 13.2424 87.6314 12.9905 87.5177 12.767C87.406 12.5417 87.2497 12.3636 87.049 12.233C86.8501 12.1023 86.62 12.0369 86.3586 12.0369C86.0821 12.0369 85.8387 12.1108 85.6285 12.2585C85.4183 12.4062 85.2535 12.6013 85.1342 12.8438C85.0168 13.0862 84.9571 13.3513 84.9552 13.6392V13.9062C84.9552 14.2528 85.0149 14.5559 85.1342 14.8153C85.2554 15.0729 85.4268 15.2727 85.6484 15.4148C85.87 15.5568 86.1323 15.6278 86.4353 15.6278C86.6418 15.6278 86.8226 15.5956 86.9779 15.5312C87.1351 15.4669 87.2668 15.3807 87.3728 15.2727C87.4808 15.1629 87.5622 15.0426 87.6172 14.9119L88.0973 15.0682C88.031 15.2519 87.9221 15.4214 87.7706 15.5767C87.6209 15.732 87.4334 15.857 87.2081 15.9517C86.9846 16.0445 86.727 16.0909 86.4353 16.0909ZM91.2818 17.6364C91.1815 17.6364 91.0877 17.6269 91.0006 17.608C90.9135 17.589 90.8443 17.5682 90.7932 17.5455L90.9296 17.0994C91.1019 17.1525 91.2553 17.1714 91.3898 17.1562C91.5243 17.143 91.6436 17.0824 91.7477 16.9744C91.8519 16.8684 91.9447 16.7055 92.0262 16.4858L92.1852 16.0426L90.5801 11.6364H91.1284L92.4239 15.3324H92.4637L93.7591 11.6364H94.3074L92.4608 16.6903C92.3832 16.9006 92.2875 17.0758 92.1739 17.2159C92.0602 17.358 91.9286 17.4631 91.779 17.5312C91.6313 17.6013 91.4656 17.6364 91.2818 17.6364ZM96.5165 16.0909C96.1396 16.0909 95.8063 15.9953 95.5165 15.804C95.2286 15.6127 95.0033 15.3485 94.8404 15.0114C94.6775 14.6723 94.5961 14.2812 94.5961 13.8381C94.5961 13.3911 94.6775 12.9981 94.8404 12.6591C95.0033 12.3182 95.2286 12.053 95.5165 11.8636C95.8063 11.6723 96.1396 11.5767 96.5165 11.5767C96.8934 11.5767 97.2258 11.6723 97.5137 11.8636C97.8016 12.0549 98.0269 12.3201 98.1898 12.6591C98.3546 12.9981 98.437 13.3911 98.437 13.8381C98.437 14.2812 98.3555 14.6723 98.1927 15.0114C98.0298 15.3485 97.8035 15.6127 97.5137 15.804C97.2258 15.9953 96.8934 16.0909 96.5165 16.0909ZM96.5165 15.6278C96.8196 15.6278 97.0762 15.5464 97.2864 15.3835C97.4966 15.2206 97.6557 15.0038 97.7637 14.733C97.8735 14.4621 97.9285 14.1638 97.9285 13.8381C97.9285 13.5123 97.8735 13.2131 97.7637 12.9403C97.6557 12.6676 97.4966 12.4489 97.2864 12.2841C97.0762 12.1193 96.8196 12.0369 96.5165 12.0369C96.2154 12.0369 95.9588 12.1193 95.7466 12.2841C95.5364 12.4489 95.3764 12.6676 95.2665 12.9403C95.1586 13.2131 95.1046 13.5123 95.1046 13.8381C95.1046 14.1638 95.1586 14.4621 95.2665 14.733C95.3764 15.0038 95.5364 15.2206 95.7466 15.3835C95.9569 15.5464 96.2135 15.6278 96.5165 15.6278ZM102 14.3324V11.6364H102.505V16H102V15.2756H101.96C101.858 15.4991 101.696 15.6856 101.474 15.8352C101.253 15.983 100.982 16.0568 100.662 16.0568C100.383 16.0568 100.136 15.9962 99.9202 15.875C99.7043 15.7519 99.5348 15.572 99.4117 15.3352C99.2886 15.0985 99.2271 14.8078 99.2271 14.4631V11.6364H99.7327V14.4318C99.7327 14.7727 99.8331 15.0473 100.034 15.2557C100.235 15.4621 100.492 15.5653 100.807 15.5653C101.004 15.5653 101.193 15.518 101.375 15.4233C101.557 15.3286 101.706 15.1903 101.824 15.0085C101.941 14.8248 102 14.5994 102 14.3324ZM103.524 16V11.6364H104.016V12.3068H104.053C104.14 12.0871 104.291 11.91 104.507 11.7756C104.725 11.6392 104.971 11.571 105.246 11.571C105.288 11.571 105.334 11.572 105.385 11.5739C105.436 11.5758 105.479 11.5777 105.513 11.5795V12.0938C105.49 12.09 105.45 12.0843 105.394 12.0767C105.337 12.0691 105.275 12.0653 105.209 12.0653C104.982 12.0653 104.779 12.1136 104.601 12.2102C104.425 12.3049 104.286 12.4366 104.183 12.6051C104.081 12.7737 104.03 12.9659 104.03 13.1818V16H103.524Z" fill="black"/>
<path d="M72.533 19.8224H74.7934V26.7655C74.7934 27.545 74.6072 28.2272 74.2348 28.8118C73.8659 29.3965 73.3491 29.8524 72.6844 30.1796C72.0196 30.5032 71.2453 30.6651 70.3613 30.6651C69.4739 30.6651 68.6978 30.5032 68.033 30.1796C67.3683 29.8524 66.8515 29.3965 66.4826 28.8118C66.1137 28.2272 65.9292 27.545 65.9292 26.7655V19.8224H68.1896V26.5723C68.1896 26.9795 68.2784 27.3414 68.4559 27.6581C68.6369 27.9748 68.8909 28.2237 69.2181 28.4046C69.5452 28.5856 69.9263 28.6761 70.3613 28.6761C70.7998 28.6761 71.1809 28.5856 71.5046 28.4046C71.8317 28.2237 72.084 27.9748 72.2615 27.6581C72.4425 27.3414 72.533 26.9795 72.533 26.5723V19.8224ZM78.2472 25.878V30.5137H76.0234V22.4952H78.1428V23.9099H78.2368C78.4143 23.4436 78.7119 23.0747 79.1295 22.8032C79.5471 22.5283 80.0535 22.3908 80.6486 22.3908C81.2054 22.3908 81.6909 22.5126 82.1051 22.7562C82.5192 22.9998 82.8412 23.3479 83.0709 23.8003C83.3006 24.2492 83.4154 24.7852 83.4154 25.4082V30.5137H81.1915V25.8049C81.195 25.3142 81.0697 24.9314 80.8157 24.6564C80.5616 24.378 80.2118 24.2388 79.7664 24.2388C79.4671 24.2388 79.2026 24.3032 78.9729 24.432C78.7467 24.5607 78.5692 24.7487 78.4404 24.9957C78.3151 25.2394 78.2507 25.5334 78.2472 25.878ZM84.5801 30.5137V22.4952H86.804V30.5137H84.5801ZM85.6973 21.4616C85.3666 21.4616 85.083 21.3519 84.8464 21.1327C84.6132 20.9099 84.4966 20.6437 84.4966 20.334C84.4966 20.0277 84.6132 19.7649 84.8464 19.5457C85.083 19.323 85.3666 19.2116 85.6973 19.2116C86.0279 19.2116 86.3098 19.323 86.543 19.5457C86.7796 19.7649 86.898 20.0277 86.898 20.334C86.898 20.6437 86.7796 20.9099 86.543 21.1327C86.3098 21.3519 86.0279 21.4616 85.6973 21.4616ZM95.473 22.4952L92.6696 30.5137H90.1639L87.3605 22.4952H89.7097L91.375 28.2324H91.4585L93.1186 22.4952H95.473ZM99.4188 30.6703C98.594 30.6703 97.8841 30.5032 97.2889 30.1691C96.6973 29.8315 96.2414 29.3548 95.9212 28.7387C95.601 28.1193 95.4409 27.3867 95.4409 26.541C95.4409 25.7162 95.601 24.9923 95.9212 24.3693C96.2414 23.7463 96.6921 23.2608 97.2733 22.9128C97.8579 22.5648 98.5436 22.3908 99.3301 22.3908C99.8591 22.3908 100.352 22.4761 100.807 22.6466C101.267 22.8136 101.667 23.066 102.008 23.4035C102.353 23.7411 102.621 24.1657 102.812 24.6773C103.003 25.1854 103.099 25.7805 103.099 26.4627V27.0735H96.3284V25.6953H101.006C101.006 25.3751 100.936 25.0915 100.797 24.8444C100.658 24.5973 100.465 24.4041 100.218 24.2649C99.9739 24.1222 99.6903 24.0509 99.3666 24.0509C99.0291 24.0509 98.7297 24.1292 98.4687 24.2858C98.2112 24.4389 98.0093 24.646 97.8632 24.907C97.717 25.1645 97.6422 25.4517 97.6387 25.7684V27.0787C97.6387 27.4754 97.7118 27.8182 97.8579 28.1071C98.0076 28.3959 98.2182 28.6187 98.4896 28.7753C98.7611 28.9319 99.083 29.0102 99.4554 29.0102C99.7025 29.0102 99.9287 28.9754 100.134 28.9058C100.339 28.8362 100.515 28.7318 100.661 28.5926C100.807 28.4534 100.919 28.2828 100.995 28.081L103.052 28.2167C102.948 28.7109 102.734 29.1425 102.41 29.5114C102.09 29.8768 101.676 30.1622 101.168 30.3675C100.663 30.5694 100.08 30.6703 99.4188 30.6703ZM103.962 30.5137V22.4952H106.118V23.8943H106.202C106.348 23.3966 106.593 23.0207 106.938 22.7667C107.283 22.5091 107.679 22.3803 108.128 22.3803C108.24 22.3803 108.36 22.3873 108.488 22.4012C108.617 22.4152 108.73 22.4343 108.828 22.4587V24.432C108.723 24.4006 108.579 24.3728 108.395 24.3484C108.21 24.3241 108.041 24.3119 107.888 24.3119C107.561 24.3119 107.269 24.3832 107.011 24.5259C106.757 24.6651 106.555 24.86 106.406 25.1106C106.259 25.3612 106.186 25.65 106.186 25.9772V30.5137H103.962ZM116.061 24.7817L114.025 24.907C113.99 24.733 113.916 24.5764 113.801 24.4372C113.686 24.2945 113.535 24.1814 113.347 24.0978C113.162 24.0108 112.941 23.9673 112.684 23.9673C112.339 23.9673 112.048 24.0404 111.812 24.1866C111.575 24.3293 111.457 24.5207 111.457 24.7608C111.457 24.9522 111.533 25.1141 111.687 25.2463C111.84 25.3786 112.102 25.4847 112.475 25.5648L113.926 25.8571C114.706 26.0172 115.287 26.2747 115.67 26.6297C116.052 26.9847 116.244 27.4511 116.244 28.0288C116.244 28.5543 116.089 29.0154 115.779 29.4122C115.473 29.8089 115.052 30.1187 114.516 30.3414C113.983 30.5607 113.369 30.6703 112.673 30.6703C111.612 30.6703 110.766 30.4493 110.136 30.0073C109.51 29.5618 109.142 28.9563 109.035 28.1906L111.222 28.0758C111.288 28.3994 111.448 28.6465 111.702 28.8171C111.956 28.9841 112.282 29.0676 112.678 29.0676C113.068 29.0676 113.381 28.9928 113.618 28.8432C113.858 28.69 113.98 28.4934 113.983 28.2533C113.98 28.0514 113.895 27.8861 113.728 27.7573C113.561 27.6251 113.303 27.5241 112.955 27.4545L111.566 27.1779C110.783 27.0212 110.2 26.7498 109.818 26.3635C109.438 25.9772 109.249 25.4847 109.249 24.8861C109.249 24.371 109.388 23.9273 109.666 23.5549C109.948 23.1825 110.343 22.8954 110.851 22.6936C111.363 22.4917 111.961 22.3908 112.647 22.3908C113.66 22.3908 114.457 22.6048 115.038 23.0329C115.623 23.461 115.964 24.0439 116.061 24.7817ZM119.343 30.6651C118.831 30.6651 118.375 30.5763 117.975 30.3988C117.575 30.2179 117.258 29.9516 117.025 29.6001C116.795 29.2451 116.68 28.8031 116.68 28.2741C116.68 27.8287 116.762 27.4545 116.926 27.1518C117.089 26.849 117.312 26.6054 117.594 26.4209C117.876 26.2365 118.196 26.0972 118.554 26.0033C118.916 25.9093 119.296 25.8432 119.693 25.8049C120.159 25.7562 120.535 25.7109 120.82 25.6692C121.106 25.6239 121.313 25.5578 121.441 25.4708C121.57 25.3838 121.635 25.255 121.635 25.0845V25.0532C121.635 24.7226 121.53 24.4668 121.321 24.2858C121.116 24.1048 120.824 24.0143 120.444 24.0143C120.044 24.0143 119.726 24.1031 119.489 24.2806C119.252 24.4546 119.096 24.6738 119.019 24.9383L116.962 24.7713C117.067 24.284 117.272 23.8629 117.578 23.5079C117.885 23.1495 118.28 22.8745 118.763 22.6831C119.251 22.4882 119.814 22.3908 120.455 22.3908C120.9 22.3908 121.327 22.443 121.734 22.5474C122.144 22.6518 122.508 22.8136 122.825 23.0329C123.145 23.2521 123.397 23.534 123.582 23.8786C123.766 24.2197 123.858 24.6286 123.858 25.1054V30.5137H121.749V29.4017H121.687C121.558 29.6523 121.386 29.8733 121.17 30.0647C120.954 30.2527 120.695 30.4006 120.392 30.5085C120.089 30.6129 119.74 30.6651 119.343 30.6651ZM119.98 29.1303C120.307 29.1303 120.596 29.0659 120.846 28.9371C121.097 28.8049 121.293 28.6274 121.436 28.4046C121.579 28.1819 121.65 27.9296 121.65 27.6477V26.7968C121.581 26.842 121.485 26.8838 121.363 26.9221C121.245 26.9569 121.111 26.9899 120.961 27.0212C120.811 27.0491 120.662 27.0752 120.512 27.0996C120.362 27.1204 120.227 27.1396 120.105 27.157C119.844 27.1953 119.616 27.2562 119.421 27.3397C119.226 27.4232 119.075 27.5363 118.967 27.679C118.859 27.8182 118.805 27.9922 118.805 28.2011C118.805 28.5038 118.915 28.7353 119.134 28.8954C119.357 29.052 119.639 29.1303 119.98 29.1303ZM127.22 19.8224V30.5137H124.996V19.8224H127.22ZM65.9292 45.5137V34.8224H70.2099C70.9965 34.8224 71.6525 34.939 72.178 35.1721C72.7035 35.4053 73.0985 35.729 73.363 36.1431C73.6275 36.5538 73.7598 37.0271 73.7598 37.5631C73.7598 37.9807 73.6762 38.3479 73.5092 38.6646C73.3421 38.9778 73.1124 39.2353 72.8201 39.4372C72.5312 39.6355 72.2006 39.7765 71.8282 39.86V39.9644C72.2354 39.9818 72.6165 40.0967 72.9715 40.309C73.33 40.5213 73.6206 40.8188 73.8433 41.2017C74.066 41.581 74.1774 42.0334 74.1774 42.5589C74.1774 43.1262 74.0364 43.6326 73.7545 44.0781C73.4761 44.5201 73.0637 44.8698 72.5173 45.1274C71.9709 45.3849 71.2975 45.5137 70.497 45.5137H65.9292ZM68.1896 43.6657H70.0324C70.6624 43.6657 71.1217 43.5456 71.4106 43.3055C71.6995 43.0618 71.8439 42.7382 71.8439 42.3345C71.8439 42.0387 71.7725 41.7776 71.6299 41.5514C71.4872 41.3252 71.2836 41.1477 71.0191 41.0189C70.7581 40.8902 70.4466 40.8258 70.0846 40.8258H68.1896V43.6657ZM68.1896 39.2962H69.8654C70.1751 39.2962 70.4501 39.2423 70.6902 39.1344C70.9338 39.023 71.1252 38.8664 71.2644 38.6646C71.4071 38.4627 71.4785 38.2208 71.4785 37.9389C71.4785 37.5526 71.341 37.2411 71.0661 37.0045C70.7946 36.7678 70.4083 36.6495 69.9071 36.6495H68.1896V39.2962ZM78.6414 45.6703C77.8305 45.6703 77.1292 45.498 76.5376 45.1535C75.9494 44.8054 75.4952 44.3217 75.1751 43.7022C74.8549 43.0792 74.6948 42.3571 74.6948 41.5358C74.6948 40.7075 74.8549 39.9836 75.1751 39.3641C75.4952 38.7411 75.9494 38.2574 76.5376 37.9128C77.1292 37.5648 77.8305 37.3908 78.6414 37.3908C79.4523 37.3908 80.1518 37.5648 80.74 37.9128C81.3316 38.2574 81.7875 38.7411 82.1077 39.3641C82.4279 39.9836 82.588 40.7075 82.588 41.5358C82.588 42.3571 82.4279 43.0792 82.1077 43.7022C81.7875 44.3217 81.3316 44.8054 80.74 45.1535C80.1518 45.498 79.4523 45.6703 78.6414 45.6703ZM78.6518 43.9476C79.0207 43.9476 79.3287 43.8432 79.5758 43.6343C79.8229 43.422 80.0091 43.1332 80.1344 42.7678C80.2632 42.4023 80.3276 41.9864 80.3276 41.5201C80.3276 41.0537 80.2632 40.6379 80.1344 40.2724C80.0091 39.907 79.8229 39.6181 79.5758 39.4058C79.3287 39.1936 79.0207 39.0874 78.6518 39.0874C78.2794 39.0874 77.9662 39.1936 77.7122 39.4058C77.4616 39.6181 77.2719 39.907 77.1431 40.2724C77.0178 40.6379 76.9552 41.0537 76.9552 41.5201C76.9552 41.9864 77.0178 42.4023 77.1431 42.7678C77.2719 43.1332 77.4616 43.422 77.7122 43.6343C77.9662 43.8432 78.2794 43.9476 78.6518 43.9476ZM87.0689 45.6703C86.258 45.6703 85.5568 45.498 84.9651 45.1535C84.377 44.8054 83.9228 44.3217 83.6026 43.7022C83.2824 43.0792 83.1223 42.3571 83.1223 41.5358C83.1223 40.7075 83.2824 39.9836 83.6026 39.3641C83.9228 38.7411 84.377 38.2574 84.9651 37.9128C85.5568 37.5648 86.258 37.3908 87.0689 37.3908C87.8798 37.3908 88.5793 37.5648 89.1675 37.9128C89.7591 38.2574 90.2151 38.7411 90.5352 39.3641C90.8554 39.9836 91.0155 40.7075 91.0155 41.5358C91.0155 42.3571 90.8554 43.0792 90.5352 43.7022C90.2151 44.3217 89.7591 44.8054 89.1675 45.1535C88.5793 45.498 87.8798 45.6703 87.0689 45.6703ZM87.0794 43.9476C87.4483 43.9476 87.7563 43.8432 88.0034 43.6343C88.2505 43.422 88.4367 43.1332 88.5619 42.7678C88.6907 42.4023 88.7551 41.9864 88.7551 41.5201C88.7551 41.0537 88.6907 40.6379 88.5619 40.2724C88.4367 39.907 88.2505 39.6181 88.0034 39.4058C87.7563 39.1936 87.4483 39.0874 87.0794 39.0874C86.707 39.0874 86.3938 39.1936 86.1397 39.4058C85.8891 39.6181 85.6994 39.907 85.5707 40.2724C85.4454 40.6379 85.3827 41.0537 85.3827 41.5201C85.3827 41.9864 85.4454 42.4023 85.5707 42.7678C85.6994 43.1332 85.8891 43.422 86.1397 43.6343C86.3938 43.8432 86.707 43.9476 87.0794 43.9476ZM93.8886 43.2063L93.8938 40.5387H94.2175L96.7859 37.4952H99.3387L95.888 41.5253H95.3607L93.8886 43.2063ZM91.8735 45.5137V34.8224H94.0974V45.5137H91.8735ZM96.8851 45.5137L94.5255 42.0212L96.0081 40.4499L99.49 45.5137H96.8851ZM99.8417 45.5137V37.4952H101.961V38.9099H102.055C102.222 38.4401 102.501 38.0694 102.89 37.798C103.28 37.5265 103.747 37.3908 104.289 37.3908C104.839 37.3908 105.307 37.5283 105.694 37.8032C106.08 38.0747 106.338 38.4436 106.466 38.9099H106.55C106.713 38.4505 107.009 38.0834 107.437 37.8084C107.869 37.53 108.379 37.3908 108.967 37.3908C109.715 37.3908 110.322 37.6292 110.789 38.106C111.259 38.5793 111.494 39.251 111.494 40.121V45.5137H109.275V40.5595C109.275 40.1141 109.157 39.78 108.92 39.5572C108.683 39.3345 108.387 39.2231 108.032 39.2231C107.629 39.2231 107.314 39.3519 107.088 39.6094C106.861 39.8635 106.748 40.1993 106.748 40.617V45.5137H104.592V40.5126C104.592 40.1193 104.479 39.8061 104.253 39.5729C104.03 39.3397 103.736 39.2231 103.371 39.2231C103.124 39.2231 102.901 39.2858 102.702 39.4111C102.508 39.5329 102.353 39.7051 102.238 39.9279C102.123 40.1471 102.066 40.4047 102.066 40.7005V45.5137H99.8417ZM114.949 45.6651C114.437 45.6651 113.981 45.5763 113.581 45.3988C113.181 45.2179 112.864 44.9516 112.631 44.6001C112.401 44.2451 112.286 43.8031 112.286 43.2741C112.286 42.8287 112.368 42.4545 112.532 42.1518C112.695 41.849 112.918 41.6054 113.2 41.4209C113.482 41.2365 113.802 41.0972 114.16 41.0033C114.522 40.9093 114.902 40.8432 115.298 40.8049C115.765 40.7562 116.141 40.7109 116.426 40.6692C116.711 40.6239 116.919 40.5578 117.047 40.4708C117.176 40.3838 117.24 40.255 117.24 40.0845V40.0532C117.24 39.7226 117.136 39.4668 116.927 39.2858C116.722 39.1048 116.43 39.0143 116.05 39.0143C115.65 39.0143 115.332 39.1031 115.095 39.2806C114.858 39.4546 114.702 39.6738 114.625 39.9383L112.568 39.7713C112.673 39.284 112.878 38.8629 113.184 38.5079C113.49 38.1495 113.885 37.8745 114.369 37.6831C114.856 37.4882 115.42 37.3908 116.061 37.3908C116.506 37.3908 116.932 37.443 117.34 37.5474C117.75 37.6518 118.114 37.8136 118.431 38.0329C118.751 38.2521 119.003 38.534 119.188 38.8786C119.372 39.2197 119.464 39.6286 119.464 40.1054V45.5137H117.355V44.4017H117.293C117.164 44.6523 116.992 44.8733 116.776 45.0647C116.56 45.2527 116.301 45.4006 115.998 45.5085C115.695 45.6129 115.345 45.6651 114.949 45.6651ZM115.586 44.1303C115.913 44.1303 116.202 44.0659 116.452 43.9371C116.703 43.8049 116.899 43.6274 117.042 43.4046C117.185 43.1819 117.256 42.9296 117.256 42.6477V41.7968C117.186 41.842 117.091 41.8838 116.969 41.9221C116.851 41.9569 116.717 41.9899 116.567 42.0212C116.417 42.0491 116.268 42.0752 116.118 42.0996C115.968 42.1204 115.833 42.1396 115.711 42.157C115.45 42.1953 115.222 42.2562 115.027 42.3397C114.832 42.4232 114.681 42.5363 114.573 42.679C114.465 42.8182 114.411 42.9922 114.411 43.2011C114.411 43.5038 114.521 43.7353 114.74 43.8954C114.963 44.052 115.245 44.1303 115.586 44.1303ZM120.602 45.5137V37.4952H122.758V38.8943H122.841C122.987 38.3966 123.233 38.0207 123.577 37.7667C123.922 37.5091 124.319 37.3803 124.767 37.3803C124.879 37.3803 124.999 37.3873 125.128 37.4012C125.256 37.4152 125.37 37.4343 125.467 37.4587V39.432C125.363 39.4006 125.218 39.3728 125.034 39.3484C124.849 39.3241 124.68 39.3119 124.527 39.3119C124.2 39.3119 123.908 39.3832 123.65 39.5259C123.396 39.6651 123.194 39.86 123.045 40.1106C122.899 40.3612 122.825 40.65 122.825 40.9772V45.5137H120.602ZM128.044 43.2063L128.049 40.5387H128.373L130.941 37.4952H133.494L130.043 41.5253H129.516L128.044 43.2063ZM126.029 45.5137V34.8224H128.253V45.5137H126.029ZM131.04 45.5137L128.681 42.0212L130.163 40.4499L133.645 45.5137H131.04ZM136.221 34.8224V45.5137H133.997V34.8224H136.221ZM141.068 45.6703C140.244 45.6703 139.534 45.5032 138.939 45.1691C138.347 44.8315 137.891 44.3548 137.571 43.7387C137.251 43.1193 137.091 42.3867 137.091 41.541C137.091 40.7162 137.251 39.9923 137.571 39.3693C137.891 38.7463 138.342 38.2608 138.923 37.9128C139.508 37.5648 140.193 37.3908 140.98 37.3908C141.509 37.3908 142.001 37.4761 142.457 37.6466C142.916 37.8136 143.317 38.066 143.658 38.4035C144.002 38.7411 144.27 39.1657 144.462 39.6773C144.653 40.1854 144.749 40.7805 144.749 41.4627V42.0735H137.978V40.6953H142.655C142.655 40.3751 142.586 40.0915 142.447 39.8444C142.307 39.5973 142.114 39.4041 141.867 39.2649C141.624 39.1222 141.34 39.0509 141.016 39.0509C140.679 39.0509 140.379 39.1292 140.118 39.2858C139.861 39.4389 139.659 39.646 139.513 39.907C139.367 40.1645 139.292 40.4517 139.288 40.7684V42.0787C139.288 42.4754 139.361 42.8182 139.508 43.1071C139.657 43.3959 139.868 43.6187 140.139 43.7753C140.411 43.9319 140.733 44.0102 141.105 44.0102C141.352 44.0102 141.578 43.9754 141.784 43.9058C141.989 43.8362 142.165 43.7318 142.311 43.5926C142.457 43.4534 142.568 43.2828 142.645 43.081L144.702 43.2167C144.597 43.7109 144.383 44.1425 144.06 44.5114C143.74 44.8768 143.325 45.1622 142.817 45.3675C142.313 45.5694 141.73 45.6703 141.068 45.6703ZM149.877 37.4952V39.1657H145.048V37.4952H149.877ZM146.145 35.5741H148.368V43.0497C148.368 43.255 148.4 43.4151 148.462 43.5299C148.525 43.6413 148.612 43.7196 148.723 43.7649C148.838 43.8101 148.97 43.8327 149.12 43.8327C149.225 43.8327 149.329 43.824 149.433 43.8066C149.538 43.7857 149.618 43.7701 149.673 43.7596L150.023 45.4145C149.912 45.4493 149.755 45.4893 149.553 45.5346C149.352 45.5833 149.106 45.6129 148.817 45.6233C148.281 45.6442 147.812 45.5728 147.408 45.4093C147.008 45.2457 146.696 44.9916 146.473 44.6471C146.251 44.3025 146.141 43.8675 146.145 43.342V35.5741Z" fill="black"/>
<rect x="13.875" y="6" width="45" height="45" rx="15.3409" fill="url(#paint0_linear_4104_9467)"/>
<ellipse cx="36.375" cy="26.2148" rx="17.5781" ry="16.3477" fill="url(#paint1_linear_4104_9467)"/>
<ellipse cx="36.375" cy="26.3906" rx="15.8203" ry="14.4141" fill="url(#paint2_linear_4104_9467)" fill-opacity="0.8"/>
<g filter="url(#filter0_d_4104_9467)">
<path d="M30.6479 43.6954C25.7143 43.6954 21.7148 39.6959 21.7148 34.7623V24.4467C21.7148 19.5131 25.7143 15.5137 30.6479 15.5137H42.027C46.9606 15.5137 50.96 19.5132 50.96 24.4468V34.7623C50.96 39.6959 46.9606 43.6954 42.027 43.6954H30.6479Z" fill="#D9D9D9"/>
<path d="M30.6479 43.6954C25.7143 43.6954 21.7148 39.6959 21.7148 34.7623V24.4467C21.7148 19.5131 25.7143 15.5137 30.6479 15.5137H42.027C46.9606 15.5137 50.96 19.5132 50.96 24.4468V34.7623C50.96 39.6959 46.9606 43.6954 42.027 43.6954H30.6479Z" fill="url(#paint3_linear_4104_9467)"/>
</g>
<path fill-rule="evenodd" clip-rule="evenodd" d="M29.7155 17.0116C29.3844 17.059 29.1373 17.1032 29.0908 17.1232C29.065 17.1344 29.0088 17.1491 28.9659 17.1559C28.805 17.1815 28.0877 17.4204 27.8571 17.5251C27.194 17.8262 27.076 17.8929 26.4666 18.3112C26.2985 18.4266 25.9035 18.7853 25.5142 19.176C25.2761 19.415 25.1643 19.5382 24.9741 19.7712C24.8255 19.9531 24.3841 20.6512 24.2639 20.8941C24.2385 20.9456 24.2047 21.0088 24.189 21.0346C24.1649 21.074 24.0943 21.2258 23.9353 21.5807C23.9062 21.6455 23.7322 22.2022 23.6476 22.5012C23.6208 22.5956 23.5898 22.7361 23.5787 22.8133C23.5675 22.8905 23.5455 22.9958 23.5298 23.0473C23.5141 23.0988 23.4802 23.4569 23.4545 23.8431C23.4158 24.423 23.41 25.1781 23.4209 28.1807C23.4376 32.7807 23.4679 35.6906 23.5017 35.9508C23.5613 36.4096 23.6622 36.8857 23.7489 37.1179C23.7624 37.1539 23.7976 37.2607 23.8271 37.3551C23.9575 37.7726 24.2012 38.3122 24.4331 38.6969C24.4693 38.757 24.5128 38.8378 24.5298 38.8764C24.5467 38.915 24.5735 38.9466 24.5892 38.9466C24.605 38.9466 24.6259 38.9782 24.6358 39.0168C24.6458 39.0554 24.6861 39.1221 24.7254 39.165C24.7648 39.2079 24.8216 39.2813 24.8516 39.3282C24.8816 39.375 25.0001 39.5224 25.1149 39.6558C25.8927 40.5597 26.8466 41.2557 27.8486 41.6503C28.0079 41.713 28.1516 41.7763 28.1679 41.7909C28.1842 41.8055 28.2308 41.8175 28.2715 41.8175C28.3121 41.8175 28.3751 41.8334 28.4114 41.8528C28.4478 41.8723 28.5558 41.9081 28.6514 41.9325C28.7471 41.9568 28.9097 41.9982 29.0127 42.0243C29.1158 42.0505 29.3126 42.0855 29.45 42.1021C29.5874 42.1187 29.7462 42.1448 29.8028 42.16C29.9192 42.1914 35.6331 42.1876 35.6646 42.1562C35.6757 42.1451 35.6916 41.0497 35.6999 39.7221C35.7082 38.3945 35.7282 37.1462 35.7444 36.948C35.8126 36.1118 36.1231 35.4315 36.6802 34.8977C36.8427 34.7421 37.4502 34.3281 37.5162 34.3281C37.5406 34.3281 37.598 34.309 37.6436 34.2857C37.9945 34.1058 38.3037 34.0805 40.147 34.0805C41.7534 34.0805 42.2458 34.1065 42.4218 34.2006C42.4568 34.2192 42.5056 34.2345 42.5303 34.2345C42.6266 34.2345 43.2721 34.5726 43.3639 34.6711C43.3725 34.6803 43.4528 34.7482 43.5424 34.822C43.7085 34.9589 44.0198 35.325 44.0198 35.3835C44.0198 35.4013 44.0374 35.4347 44.0588 35.4576C44.1032 35.505 44.1777 35.6583 44.2455 35.8416C44.3796 36.2044 44.4045 36.3261 44.419 36.692C44.4274 36.9022 44.4447 37.0742 44.4575 37.0742C44.5086 37.0742 44.6671 36.8792 44.7671 36.6933L44.8728 36.4969L44.8999 35.6232C44.9149 35.1426 44.9232 32.0874 44.9185 28.8338L44.9099 22.9181L44.8162 22.7361C44.7647 22.636 44.6685 22.5107 44.6025 22.4575C44.4846 22.3625 44.4749 22.3605 44.0404 22.3404C43.7971 22.3292 43.5383 22.3029 43.4651 22.2819C42.9812 22.1434 42.8052 21.448 43.1715 21.122C43.2233 21.0759 43.3251 21.0079 43.3977 20.9708C43.5211 20.908 43.5631 20.9045 44.0324 20.9183C44.5725 20.9341 44.6336 20.9479 45.0348 21.1438C45.2949 21.2708 45.5496 21.4762 45.7532 21.7233C45.9945 22.0161 46.1865 22.4558 46.2359 22.8289C46.282 23.1761 46.2843 36.3857 46.2384 36.6374C46.1644 37.0424 46.0315 37.3484 45.7962 37.6553C45.5705 37.9498 45.2228 38.2325 45.0296 38.2787C44.981 38.2904 44.9214 38.3155 44.8973 38.3346C44.8664 38.3591 44.213 38.3719 42.6697 38.3781L40.4858 38.3869L40.3399 38.3161C40.0766 38.1884 39.9585 38.0083 39.961 37.7384C39.9643 37.3791 40.1831 37.1042 40.5241 37.0307C40.5684 37.0212 41.0532 37.0105 41.6016 37.007C42.1501 37.0035 42.7076 36.995 42.8408 36.9881L43.0828 36.9757L43.0815 36.8455C43.077 36.4127 42.8477 35.9968 42.4645 35.7264C42.3494 35.6451 42.2334 35.5781 42.2068 35.5775C42.1802 35.5769 42.1444 35.5625 42.1274 35.5454C42.0354 35.4535 41.765 35.4388 40.1626 35.4382L40.0343 35.4382C38.7598 35.4377 38.4872 35.4376 38.251 35.5302C38.1867 35.5555 38.1252 35.5876 38.0468 35.6284L38.0329 35.6357L38.0178 35.6435C37.6816 35.8183 37.414 36.0858 37.2603 36.4008L37.2526 36.4164L37.2457 36.4306C37.2425 36.437 37.2394 36.4433 37.2364 36.4494L37.2315 36.4594C37.2006 36.5219 37.1746 36.5745 37.153 36.6285C37.0427 36.9036 37.0418 37.2225 37.0363 39.1641L37.036 39.281L37.0357 39.3783L37.0353 39.5193C37.0308 41.0118 37.0396 42.0734 37.0567 42.1184L37.0856 42.1944L40.1077 42.1814C43.2857 42.1677 43.3103 42.1667 43.8793 42.0231C43.9823 41.9971 44.1495 41.955 44.2507 41.9296C44.3519 41.9042 44.4496 41.8686 44.4678 41.8505C44.4859 41.8323 44.5243 41.8175 44.553 41.8175C44.6161 41.8175 44.8134 41.7352 45.1945 41.5501C45.351 41.474 45.4902 41.4118 45.5039 41.4118C45.5175 41.4118 45.5747 41.3767 45.631 41.3338C45.6874 41.2909 45.7463 41.2558 45.762 41.2558C45.7778 41.2558 45.8489 41.2137 45.92 41.1622C45.9911 41.1107 46.0568 41.0686 46.0659 41.0686C46.1275 41.0686 46.8636 40.4489 47.1387 40.1654C47.5082 39.7847 47.9551 39.2369 47.9551 39.1647C47.9551 39.1477 47.9669 39.1338 47.9813 39.1338C47.9957 39.1338 48.024 39.1022 48.0441 39.0636C48.0642 39.025 48.1051 38.9558 48.135 38.9097C48.3692 38.549 48.617 38.0726 48.765 37.6984C48.8024 37.604 48.8451 37.4986 48.8601 37.4643C48.9059 37.3591 49.017 36.9732 49.017 36.9192C49.017 36.8912 49.0294 36.855 49.0447 36.8386C49.1145 36.7642 49.2292 35.9325 49.2533 35.3267C49.2858 34.5098 49.296 24.8209 49.265 24.1395C49.2302 23.3727 49.1465 22.713 49.0493 22.4388C49.034 22.3959 48.9912 22.2555 48.9541 22.1268C48.917 21.998 48.8667 21.8485 48.8425 21.7944C48.8182 21.7403 48.7983 21.6818 48.7983 21.6643C48.7983 21.6468 48.7781 21.5928 48.7534 21.5442C48.7287 21.4956 48.685 21.3997 48.6563 21.331C48.5617 21.105 48.4729 20.928 48.3577 20.7363C48.2953 20.6323 48.2344 20.5165 48.2224 20.4788C48.2105 20.4412 48.1901 20.4104 48.1771 20.4104C48.1641 20.4104 48.1224 20.3483 48.0845 20.2723C48.0465 20.1963 48.0053 20.1296 47.993 20.124C47.9807 20.1185 47.9222 20.0438 47.8629 19.958C47.6713 19.6805 47.3977 19.3609 47.0636 19.0242C46.9106 18.87 46.5054 18.5098 46.4133 18.446C46.3424 18.397 46.3269 18.385 46.2091 18.2879C46.1678 18.2539 46.1166 18.2261 46.0953 18.2261C46.074 18.2261 46.0485 18.205 46.0386 18.1792C46.0287 18.1535 46.0003 18.1324 45.9754 18.1324C45.9505 18.1324 45.9255 18.1212 45.9198 18.1074C45.9079 18.0789 45.5383 17.8516 45.5038 17.8516C45.4913 17.8516 45.4219 17.8116 45.3495 17.7628C45.1285 17.6138 44.267 17.2668 43.8636 17.1643C43.6447 17.1086 43.2774 17.0414 43.0204 17.0099C42.7338 16.9748 29.9612 16.9764 29.7155 17.0116ZM32.0017 20.402C32.024 20.3809 32.0914 20.34 32.1516 20.311C32.3985 20.1922 32.7649 20.2561 32.9805 20.4557C33.1438 20.6069 33.2759 20.9556 33.2759 21.2353C33.276 21.4423 33.3816 22.0728 33.4463 22.2516C33.5295 22.4815 33.5986 22.6261 33.6255 22.6261C33.6394 22.6261 33.6507 22.6407 33.6507 22.6585C33.6507 22.718 33.7884 22.8887 34.0273 23.1257C34.1964 23.2934 34.3299 23.3926 34.496 23.4741C34.7177 23.5829 34.8507 23.6212 35.4153 23.7382C35.7018 23.7976 35.8147 23.8565 35.9451 24.0146C36.1593 24.2743 36.2037 24.5928 36.0643 24.8682C35.9175 25.1581 35.7092 25.2832 35.1967 25.3891C35.0593 25.4175 34.9007 25.4604 34.8443 25.4845C34.7879 25.5085 34.7231 25.5282 34.7003 25.5282C34.6394 25.5282 34.3101 25.7086 34.1661 25.8209C33.9403 25.997 33.557 26.4609 33.557 26.5581C33.557 26.5724 33.5373 26.6239 33.5133 26.6725C33.4892 26.721 33.454 26.8111 33.4351 26.8727C33.3837 27.039 33.276 27.6457 33.2752 27.7732C33.2743 27.9054 33.1729 28.3009 33.1143 28.4002C32.9085 28.7496 32.4296 28.9104 32.1042 28.7393C31.8186 28.5892 31.6616 28.317 31.6199 27.8998C31.5329 27.0296 31.4402 26.7128 31.1477 26.2854C31.0275 26.1096 30.7339 25.8193 30.6494 25.7925C30.6167 25.7821 30.59 25.7605 30.59 25.7445C30.59 25.7285 30.5735 25.7154 30.5534 25.7154C30.5333 25.7154 30.4946 25.6962 30.4675 25.6727C30.3394 25.5617 29.92 25.4319 29.3886 25.3389C29.2861 25.3209 29.1877 25.2949 29.17 25.2811C29.1522 25.2672 29.1025 25.2474 29.0596 25.237C28.9481 25.21 28.8216 25.0814 28.7314 24.9036C28.6297 24.7031 28.622 24.3682 28.715 24.1929C28.8783 23.8849 28.968 23.8406 29.8404 23.6369C29.9692 23.6068 30.2068 23.5197 30.3684 23.4433C30.6032 23.3322 30.7068 23.2597 30.8853 23.0822C31.1222 22.8464 31.2915 22.6065 31.3834 22.3764C31.4143 22.2992 31.4595 22.1892 31.484 22.1319C31.5084 22.0747 31.5498 21.829 31.576 21.5858C31.6021 21.3427 31.6378 21.0704 31.6553 20.9807C31.6918 20.7941 31.8172 20.5409 31.9029 20.481C31.9349 20.4586 31.9793 20.423 32.0017 20.402ZM26.8814 21.7991C27.144 21.4113 27.3991 21.2249 27.9664 21.0059C28.1872 20.9208 28.2288 20.9154 28.6882 20.9126C29.164 20.9098 29.1787 20.9117 29.2973 20.9911C29.4305 21.0802 29.5564 21.2167 29.5582 21.2738C29.5588 21.2938 29.5769 21.3161 29.5983 21.3232C29.6258 21.3324 29.6371 21.419 29.6365 21.6145C29.6356 21.9167 29.6045 21.9972 29.4232 22.1649C29.2959 22.2827 29.1962 22.3061 28.7422 22.3248C28.1643 22.3486 28.0173 22.43 27.8818 22.8008C27.8287 22.946 27.8259 23.2957 27.8266 29.7097C27.8266 30.0417 27.8266 30.3577 27.8266 30.6585V30.6692C27.8269 36.3649 27.8269 36.6028 27.9412 36.7551C27.9462 36.7618 27.9514 36.7682 27.9568 36.775C27.9634 36.7833 27.9704 36.7919 27.9778 36.8019C28.0626 36.9166 28.2289 37.0118 28.3447 37.0118C28.4554 37.0118 28.6942 37.1148 28.7783 37.1988C29.0257 37.446 28.9993 37.9258 28.725 38.1693C28.6073 38.2738 28.3705 38.3537 28.1781 38.3537C27.9738 38.3537 27.6338 38.2662 27.4908 38.1768C27.4267 38.1368 27.3658 38.104 27.3555 38.104C27.3291 38.104 27.0526 37.8798 27.0092 37.8232C26.9895 37.7974 26.9368 37.7342 26.8921 37.6827C26.8475 37.6313 26.8109 37.5716 26.8109 37.5501C26.8109 37.5287 26.8 37.5111 26.7867 37.5111C26.7415 37.5111 26.5674 37.1289 26.4954 36.8714C26.4586 36.7399 26.4517 35.6247 26.4517 29.7877C26.4517 23.0937 26.4537 22.8518 26.5109 22.6144C26.5787 22.3332 26.6989 22.0686 26.8814 21.7991ZM39.755 22.1334C39.9446 21.9012 40.0844 21.7972 40.2636 21.755C40.4373 21.7142 40.4937 21.7161 40.6728 21.7693C41.0068 21.8683 41.2172 22.2006 41.2548 22.6885C41.3296 23.6561 41.4994 24.1082 41.9598 24.5656C42.3303 24.9336 42.5743 25.0403 43.3483 25.1727C43.7067 25.234 43.867 25.3034 44.0021 25.4559C44.2777 25.767 44.2714 26.2157 43.9868 26.5396C43.858 26.6861 43.7243 26.7514 43.4108 26.821C42.9617 26.9205 42.7881 26.9657 42.6612 27.016C42.4626 27.0948 42.2708 27.1955 42.2708 27.221C42.2708 27.2339 42.2547 27.2445 42.235 27.2445C42.2038 27.2445 41.9711 27.4178 41.8797 27.5091C41.7069 27.6818 41.4275 28.157 41.4275 28.2783C41.4275 28.3035 41.4146 28.3376 41.3988 28.3538C41.3609 28.393 41.2804 28.8773 41.2565 29.2104C41.2255 29.6423 41.1278 29.8935 40.9128 30.0941C40.6672 30.3232 40.3648 30.3662 40.1002 30.2096C39.9164 30.1009 39.8035 30.0081 39.8035 29.966C39.8035 29.9494 39.7838 29.9195 39.7598 29.8996C39.7358 29.8797 39.6932 29.7933 39.6651 29.7075C39.6187 29.5655 39.5976 29.4442 39.5382 28.9764C39.4911 28.6058 39.4743 28.6017 39.1826 28.8906C39.0656 29.0064 38.7341 29.3259 38.4459 29.6005C38.1577 29.8751 37.6953 30.3192 37.4182 30.5874C37.1412 30.8556 36.7751 31.2067 36.6048 31.3676C36.2393 31.7128 36.166 31.7836 35.0569 32.8615C34.049 33.8409 33.8566 34.0272 33.0621 34.7919C32.7298 35.1118 32.1918 35.6368 31.8664 35.9586C31.5412 36.2805 31.2624 36.5437 31.247 36.5437C31.2317 36.5437 31.2005 36.5618 31.1778 36.5839C31.1551 36.606 31.0662 36.6517 30.9804 36.6854C30.7743 36.7661 30.2784 36.7689 30.1371 36.69C30.0856 36.6613 30.0314 36.6377 30.0167 36.6375C29.9607 36.6371 29.6489 36.3708 29.6118 36.2917C29.6003 36.2673 29.5788 36.2262 29.5641 36.2005C29.4372 35.9794 29.4187 35.9018 29.4187 35.5906L29.4187 35.5624C29.4186 35.4545 29.4185 35.37 29.4339 35.2884C29.4894 34.9948 29.7459 34.739 30.9259 33.5623L31.0116 33.4769C31.7674 32.7231 32.757 31.7461 33.2107 31.3059C33.6644 30.8656 34.5077 30.0392 35.0846 29.4693C37.24 27.3405 37.4346 27.1509 37.4631 27.1509C37.4791 27.1509 37.4923 27.1402 37.4923 27.1271C37.4923 27.1141 37.5286 27.0642 37.5731 27.0163C37.667 26.9152 37.6529 26.8388 37.5406 26.8388C37.43 26.8388 37.1844 26.7788 37.055 26.7201C36.776 26.5936 36.6174 26.3339 36.6185 26.0051C36.6195 25.6881 36.7391 25.4676 37.0008 25.3004C37.0886 25.2444 37.1411 25.231 37.6953 25.123C38.2224 25.0204 38.3648 24.9726 38.6074 24.817C38.7742 24.7099 39.1635 24.3156 39.2139 24.2027C39.2294 24.168 39.27 24.0933 39.3043 24.0367C39.4473 23.8004 39.5703 23.3021 39.5982 22.8462C39.6161 22.5545 39.6916 22.211 39.755 22.1334ZM32.3289 22.2516C32.3545 22.14 32.3827 21.9268 32.3915 21.7778C32.4042 21.5625 32.4164 21.5104 32.4513 21.5237C32.4841 21.5363 32.4951 21.6062 32.4951 21.8005C32.4951 22.446 32.8012 23.2107 33.2511 23.6894C33.6354 24.0982 34.0054 24.2996 34.7438 24.5021C34.8427 24.5292 34.8658 24.5446 34.8219 24.5541C34.7876 24.5615 34.7454 24.5784 34.7282 24.5918C34.711 24.6051 34.6478 24.6257 34.5877 24.6376C34.3172 24.691 33.884 24.8826 33.6378 25.0578C33.4587 25.1852 33.2204 25.4173 33.1172 25.565C33.0774 25.622 33.0265 25.6798 33.0042 25.6936C32.9819 25.7073 32.9636 25.7377 32.9636 25.7612C32.9636 25.7846 32.9513 25.8085 32.9363 25.8142C32.8965 25.8294 32.7252 26.1802 32.6545 26.3916C32.5443 26.7209 32.5021 26.9135 32.4843 27.1679C32.4585 27.5375 32.4208 27.5916 32.3984 27.2913C32.3753 26.9827 32.3167 26.6676 32.2583 26.5376C32.2339 26.4836 32.214 26.4256 32.214 26.4089C32.214 26.3357 32.0387 25.9915 31.8841 25.7612C31.7326 25.5355 31.3505 25.1225 31.2931 25.1225C31.2807 25.1225 31.2192 25.0835 31.1566 25.0357C31.094 24.9881 30.9725 24.917 30.8867 24.8778C30.8008 24.8386 30.7061 24.7934 30.6763 24.7773C30.6465 24.7612 30.5973 24.7479 30.567 24.7478C30.5367 24.7477 30.4746 24.7282 30.429 24.7044C30.3834 24.6807 30.2569 24.6511 30.1479 24.6388C29.8179 24.6013 29.8003 24.5371 30.1059 24.4856C30.3281 24.4481 30.871 24.2563 30.871 24.2152C30.871 24.203 30.9096 24.1834 30.9566 24.1716C31.0037 24.1598 31.0493 24.1407 31.0581 24.1292C31.0669 24.1176 31.1345 24.0672 31.2084 24.0171C31.3733 23.9053 31.668 23.6209 31.7929 23.453C31.844 23.3844 31.8941 23.3212 31.9044 23.3126C31.9245 23.2958 32.1444 22.8385 32.182 22.7353C32.2626 22.5138 32.2872 22.4327 32.3289 22.2516ZM40.422 23.0005C40.4105 23.0434 40.3922 23.1979 40.3812 23.3438C40.352 23.7334 40.2744 24.054 40.1271 24.3939C40.1037 24.448 40.0845 24.5077 40.0845 24.5265C40.0845 24.5454 40.0719 24.5608 40.0564 24.5608C40.0409 24.5608 40.0122 24.5994 39.9927 24.6466C39.9731 24.6938 39.9346 24.7746 39.9071 24.8261C39.8469 24.939 39.3195 25.4689 39.2057 25.5309C39.1612 25.5551 39.0558 25.6122 38.9716 25.6576C38.8874 25.7031 38.6783 25.785 38.5068 25.8395C38.3353 25.8941 38.1706 25.9517 38.1408 25.9675C38.1109 25.9833 38.0582 25.9963 38.0237 25.9963C37.9886 25.9963 37.9608 26.0169 37.9608 26.0431C37.9608 26.0762 37.9944 26.0899 38.0758 26.0899C38.2024 26.0899 38.5083 26.1643 38.6791 26.2366C38.9437 26.3487 39.2095 26.4979 39.2099 26.5346C39.21 26.5474 39.2304 26.558 39.2553 26.558C39.2803 26.558 39.3119 26.5759 39.3256 26.5978C39.3393 26.6197 39.4106 26.6843 39.4838 26.7413C39.7688 26.9629 40.0614 27.4411 40.2212 27.9466C40.28 28.1323 40.3651 28.5713 40.367 28.6987C40.3678 28.7484 40.3877 28.8313 40.4114 28.8828C40.454 28.9757 40.4543 28.9751 40.4568 28.8017C40.4594 28.621 40.5391 28.1995 40.6275 27.8994C40.6771 27.7307 40.9175 27.231 40.9969 27.1316C41.069 27.0413 41.472 26.637 41.5667 26.5599C41.7956 26.3736 42.4709 26.0921 42.6973 26.0885C42.7462 26.0877 42.8283 26.0678 42.8798 26.0442L42.9735 26.0013L42.8739 25.9988C42.8191 25.9974 42.7665 25.9838 42.7571 25.9686C42.7477 25.9534 42.6871 25.9311 42.6225 25.9192C42.4802 25.8928 42.1509 25.7886 42.076 25.7461C42.0462 25.7292 42.0061 25.7154 41.9869 25.7154C41.9676 25.7154 41.8895 25.6733 41.8131 25.6218C41.7367 25.5703 41.6626 25.5282 41.6484 25.5282C41.6342 25.5282 41.5257 25.4386 41.4073 25.3291C41.1011 25.0458 40.8331 24.6678 40.7222 24.3629C40.5657 23.9324 40.4896 23.5925 40.4625 23.2034C40.4498 23.021 40.4357 22.9499 40.422 23.0005ZM37.5307 28.062C37.8617 27.7367 38.1958 27.4075 38.2731 27.3305C38.3504 27.2534 38.4433 27.1885 38.4795 27.1862C38.5488 27.1819 38.745 27.3002 38.8509 27.4102C38.9886 27.5533 39.1495 27.7925 39.141 27.8415C39.136 27.8701 38.7965 28.234 38.3866 28.6503L37.6412 29.4071L37.5214 29.2854C37.4555 29.2184 37.401 29.147 37.4001 29.1267C37.3993 29.1064 37.3717 29.0813 37.3388 29.0709C37.306 29.0605 37.2003 28.9623 37.104 28.8527L36.929 28.6535L37.5307 28.062Z" fill="white"/>
<path d="M36.2274 29.494C36.2102 29.5109 35.9282 29.7876 35.6006 30.1088C35.2731 30.4299 34.1558 31.5305 33.1177 32.5546C32.0796 33.5785 31.1373 34.5053 31.0238 34.6141C30.9102 34.7229 30.703 34.9211 30.5631 35.0547C30.3148 35.2919 30.3089 35.301 30.3089 35.4456C30.3089 35.5659 30.3261 35.6125 30.4008 35.6942C30.4815 35.7825 30.5123 35.7948 30.6527 35.7948C30.7786 35.7948 30.8373 35.7765 30.9278 35.709C31.0431 35.6231 31.5021 35.1829 32.4493 34.2501C33.4247 33.2897 34.9641 31.7985 35.4775 31.3168C35.6604 31.1452 35.8772 30.9416 35.9591 30.8643C36.041 30.7871 36.2719 30.5716 36.4722 30.3854C36.6725 30.1992 36.8364 30.0328 36.8364 30.0156C36.8364 29.9792 36.3157 29.4593 36.2816 29.4616C36.2689 29.4625 36.2445 29.4771 36.2274 29.494Z" fill="#1CAEFF"/>
<path fill-rule="evenodd" clip-rule="evenodd" d="M34.529 18.3682C34.5399 18.3212 34.5519 18.2314 34.5556 18.1686C34.5611 18.0779 34.5663 18.0559 34.5811 18.0615C34.5951 18.0668 34.5998 18.0963 34.5998 18.1781C34.5998 18.4501 34.7301 18.7723 34.9218 18.9739C35.0855 19.1462 35.243 19.2311 35.5575 19.3164C35.5996 19.3278 35.6095 19.3343 35.5908 19.3383C35.5762 19.3414 35.5582 19.3485 35.5509 19.3541C35.5436 19.3598 35.5166 19.3684 35.491 19.3735C35.3759 19.3959 35.1913 19.4767 35.0865 19.5505C35.0102 19.6041 34.9087 19.7019 34.8648 19.7642C34.8478 19.7882 34.8261 19.8126 34.8166 19.8183C34.8071 19.8241 34.7993 19.8369 34.7993 19.8468C34.7993 19.8567 34.7941 19.8668 34.7877 19.8692C34.7707 19.8756 34.6978 20.0234 34.6677 20.1124C34.6208 20.2512 34.6028 20.3323 34.5952 20.4395C34.5842 20.5952 34.5681 20.618 34.5586 20.4915C34.5487 20.3615 34.5238 20.2287 34.4989 20.174C34.4885 20.1512 34.4801 20.1268 34.4801 20.1197C34.4801 20.0889 34.4054 19.9438 34.3395 19.8468C34.275 19.7518 34.1123 19.5777 34.0878 19.5777C34.0825 19.5777 34.0564 19.5613 34.0297 19.5412C34.003 19.5211 33.9513 19.4911 33.9147 19.4746C33.8781 19.4581 33.8378 19.4391 33.8251 19.4323C33.8124 19.4255 33.7915 19.4199 33.7786 19.4199C33.7657 19.4198 33.7392 19.4116 33.7198 19.4016C33.7004 19.3916 33.6465 19.3792 33.6001 19.3739C33.4595 19.3582 33.452 19.3311 33.5822 19.3094C33.6768 19.2936 33.9081 19.2128 33.9081 19.1955C33.9081 19.1904 33.9245 19.1821 33.9445 19.1771C33.9646 19.1722 33.984 19.1641 33.9877 19.1592C33.9915 19.1544 34.0203 19.1331 34.0517 19.112C34.122 19.0649 34.2475 18.9451 34.3007 18.8744C34.3224 18.8454 34.3438 18.8188 34.3482 18.8152C34.3568 18.8081 34.4504 18.6155 34.4664 18.572C34.5008 18.4787 34.5112 18.4445 34.529 18.3682Z" fill="#2BB8FF"/>
<path fill-rule="evenodd" clip-rule="evenodd" d="M37.7874 19.1309C37.804 19.0594 37.8223 18.9229 37.828 18.8275C37.8363 18.6896 37.8442 18.6562 37.8669 18.6648C37.8881 18.6728 37.8953 18.7176 37.8953 18.842C37.8953 19.2554 38.0939 19.7451 38.3859 20.0516C38.6354 20.3135 38.8755 20.4424 39.3547 20.5721C39.4189 20.5895 39.4339 20.5993 39.4054 20.6054C39.3831 20.6101 39.3558 20.621 39.3446 20.6295C39.3335 20.6381 39.2924 20.6513 39.2534 20.6589C39.0779 20.6931 38.7967 20.8158 38.6369 20.9279C38.5207 21.0095 38.366 21.1582 38.2991 21.2528C38.2732 21.2893 38.2402 21.3263 38.2257 21.3351C38.2112 21.3439 38.1994 21.3634 38.1994 21.3784C38.1994 21.3934 38.1914 21.4087 38.1816 21.4124C38.1558 21.4221 38.0447 21.6468 37.9988 21.7821C37.9272 21.993 37.8998 22.1163 37.8883 22.2793C37.8716 22.516 37.8471 22.5506 37.8325 22.3583C37.8175 22.1606 37.7795 21.9589 37.7416 21.8757C37.7258 21.841 37.7129 21.8039 37.7129 21.7932C37.7129 21.7463 37.5991 21.5259 37.4987 21.3784C37.4004 21.2339 37.1524 20.9694 37.1152 20.9694C37.1071 20.9694 37.0672 20.9444 37.0266 20.9138C36.986 20.8833 36.9071 20.8378 36.8514 20.8127C36.7956 20.7876 36.7342 20.7586 36.7149 20.7483C36.6955 20.738 36.6636 20.7295 36.6439 20.7295C36.6242 20.7294 36.5839 20.7169 36.5544 20.7017C36.5248 20.6865 36.4427 20.6675 36.3719 20.6596C36.1578 20.6357 36.1463 20.5945 36.3446 20.5615C36.4889 20.5375 36.8413 20.4147 36.8413 20.3884C36.8413 20.3806 36.8662 20.368 36.8968 20.3605C36.9273 20.3529 36.957 20.3407 36.9627 20.3333C36.9684 20.3259 37.0122 20.2936 37.0602 20.2615C37.1672 20.1899 37.3585 20.0078 37.4395 19.9003C37.4727 19.8563 37.5053 19.8158 37.5119 19.8103C37.525 19.7996 37.6677 19.5067 37.6921 19.4406C37.7444 19.2988 37.7604 19.2469 37.7874 19.1309Z" fill="#2BB8FF"/>
<path fill-rule="evenodd" clip-rule="evenodd" d="M33.4024 37.7799C33.4024 38.1339 33.1154 38.4209 32.7614 38.4209H30.5179C30.1639 38.4209 29.8769 38.1339 29.8769 37.7799C29.8769 37.4259 30.1639 37.1389 30.5179 37.1389H32.7614C33.1154 37.1389 33.4024 37.4259 33.4024 37.7799Z" fill="#8CBAF1"/>
<rect x="157" y="4" width="69.9767" height="51" rx="4.74419" fill="#E7E7E7"/>
<path d="M166.526 19L164.27 10.7612H165.034L166.9 17.8454H166.965L168.831 10.7612H169.7L171.567 17.8454H171.631L173.498 10.7612H174.266L172.01 19H171.205L169.294 12.0123H169.242L167.331 19H166.526ZM176.85 19.1287C176.317 19.1287 175.845 18.9933 175.434 18.7224C175.027 18.4516 174.708 18.0774 174.477 17.6C174.246 17.12 174.131 16.5662 174.131 15.9386C174.131 15.3057 174.246 14.7492 174.477 14.2691C174.708 13.7864 175.027 13.4109 175.434 13.1427C175.845 12.8719 176.317 12.7364 176.85 12.7364C177.384 12.7364 177.855 12.8719 178.262 13.1427C178.67 13.4136 178.989 13.7891 179.22 14.2691C179.453 14.7492 179.57 15.3057 179.57 15.9386C179.57 16.5662 179.455 17.12 179.224 17.6C178.993 18.0774 178.673 18.4516 178.262 18.7224C177.855 18.9933 177.384 19.1287 176.85 19.1287ZM176.85 18.473C177.28 18.473 177.643 18.3577 177.941 18.127C178.238 17.8964 178.464 17.5893 178.616 17.2058C178.772 16.8223 178.85 16.3999 178.85 15.9386C178.85 15.4773 178.772 15.0536 178.616 14.6674C178.464 14.2812 178.238 13.9714 177.941 13.7381C177.643 13.5048 177.28 13.3881 176.85 13.3881C176.424 13.3881 176.061 13.5048 175.76 13.7381C175.463 13.9714 175.236 14.2812 175.08 14.6674C174.928 15.0536 174.851 15.4773 174.851 15.9386C174.851 16.3999 174.928 16.8223 175.08 17.2058C175.236 17.5893 175.463 17.8964 175.76 18.127C176.058 18.3577 176.421 18.473 176.85 18.473ZM180.689 19V12.8209H181.385V13.7703H181.437C181.56 13.4592 181.775 13.2084 182.081 13.018C182.389 12.8249 182.738 12.7284 183.127 12.7284C183.186 12.7284 183.251 12.7297 183.324 12.7324C183.396 12.7351 183.456 12.7378 183.505 12.7404V13.4686C183.473 13.4632 183.416 13.4552 183.336 13.4444C183.255 13.4337 183.168 13.4283 183.074 13.4283C182.752 13.4283 182.465 13.4967 182.213 13.6335C181.964 13.7676 181.767 13.954 181.622 14.1927C181.477 14.4314 181.405 14.7036 181.405 15.0093V19H180.689ZM184.925 16.6667L184.917 15.7294H185.078L187.975 12.8209H188.88L186.019 15.6852L185.955 15.6972L184.925 16.6667ZM184.273 19V10.7612H184.99V19H184.273ZM188.123 19L185.613 15.826L186.128 15.3312L189.041 19H188.123ZM193.924 14.1766L193.268 14.3616C193.204 14.1766 193.112 14.009 192.994 13.8588C192.876 13.7086 192.722 13.5893 192.532 13.5008C192.344 13.4123 192.111 13.368 191.832 13.368C191.413 13.368 191.07 13.4672 190.802 13.6657C190.534 13.8642 190.4 14.1203 190.4 14.4341C190.4 14.6996 190.491 14.9155 190.673 15.0817C190.858 15.2453 191.143 15.3754 191.526 15.472L192.459 15.7013C192.977 15.8273 193.365 16.0271 193.622 16.3007C193.882 16.5742 194.012 16.9175 194.012 17.3305C194.012 17.6792 193.916 17.9889 193.723 18.2598C193.53 18.5307 193.26 18.7439 192.914 18.8994C192.571 19.0523 192.172 19.1287 191.719 19.1287C191.116 19.1287 190.618 18.9933 190.227 18.7224C189.835 18.4489 189.584 18.0546 189.474 17.5397L190.162 17.3707C190.251 17.7382 190.424 18.0157 190.681 18.2035C190.941 18.3912 191.283 18.4851 191.707 18.4851C192.182 18.4851 192.561 18.3791 192.846 18.1673C193.13 17.9527 193.272 17.6845 193.272 17.3627C193.272 17.1133 193.189 16.9041 193.023 16.7351C192.856 16.5635 192.604 16.4374 192.266 16.357L191.257 16.1156C190.72 15.9869 190.323 15.7831 190.066 15.5041C189.808 15.2252 189.68 14.8793 189.68 14.4662C189.68 14.1256 189.772 13.8266 189.957 13.5691C190.142 13.309 190.397 13.1052 190.722 12.9577C191.046 12.8102 191.416 12.7364 191.832 12.7364C192.398 12.7364 192.85 12.8651 193.188 13.1226C193.528 13.3774 193.774 13.7287 193.924 14.1766ZM199.232 19L197.365 12.8209H198.121L199.586 17.9179H199.638L201.098 12.8209H201.859L203.307 17.9058H203.363L204.828 12.8209H205.584L203.717 19H202.977L201.513 13.9352H201.436L199.972 19H199.232ZM206.531 19V12.8209H207.251V19H206.531ZM206.897 11.7589C206.749 11.7589 206.623 11.7092 206.519 11.61C206.414 11.5081 206.362 11.3861 206.362 11.2439C206.362 11.1018 206.414 10.9811 206.519 10.8819C206.623 10.78 206.749 10.729 206.897 10.729C207.044 10.729 207.17 10.78 207.275 10.8819C207.38 10.9811 207.432 11.1018 207.432 11.2439C207.432 11.3861 207.38 11.5081 207.275 11.61C207.17 11.7092 207.044 11.7589 206.897 11.7589ZM211.125 12.8209V13.4444H208.176V12.8209H211.125ZM209.098 11.3405H209.818V17.3868C209.818 17.6443 209.862 17.8468 209.951 17.9943C210.039 18.1391 210.154 18.2424 210.297 18.304C210.439 18.363 210.59 18.3925 210.751 18.3925C210.845 18.3925 210.925 18.3872 210.992 18.3765C211.06 18.363 211.119 18.3496 211.169 18.3362L211.322 18.9839C211.253 19.0107 211.167 19.0349 211.065 19.0563C210.963 19.0805 210.837 19.0925 210.687 19.0925C210.424 19.0925 210.17 19.0349 209.926 18.9195C209.685 18.8042 209.487 18.6326 209.331 18.4046C209.175 18.1767 209.098 17.8937 209.098 17.5558V11.3405ZM213.147 15.1381V19H212.431V10.7612H213.147V13.7904H213.212C213.356 13.4713 213.58 13.2165 213.883 13.0261C214.189 12.8356 214.575 12.7404 215.042 12.7404C215.46 12.7404 215.828 12.8263 216.144 12.9979C216.461 13.1695 216.707 13.423 216.884 13.7582C217.061 14.0935 217.15 14.5065 217.15 14.9973V19H216.43V15.0415C216.43 14.5319 216.288 14.131 216.003 13.8387C215.722 13.5437 215.341 13.3962 214.861 13.3962C214.531 13.3962 214.237 13.4659 213.98 13.6054C213.722 13.7448 213.519 13.946 213.368 14.2088C213.221 14.4689 213.147 14.7787 213.147 15.1381Z" fill="black"/>
<path d="M213.804 27.2729C214.198 27.2729 214.575 27.4293 214.854 27.7077C215.132 27.9862 215.289 28.3639 215.289 28.7576V46.575C215.289 46.9688 215.132 47.3464 214.854 47.6249C214.575 47.9033 214.198 48.0598 213.804 48.0598H204.895C204.502 48.0598 204.124 47.9033 203.845 47.6249C203.567 47.3464 203.411 46.9688 203.411 46.575V28.7576C203.411 28.3639 203.567 27.9862 203.845 27.7077C204.124 27.4293 204.502 27.2729 204.895 27.2729H213.804ZM204.895 25.7881C204.108 25.7881 203.352 26.1009 202.796 26.6578C202.239 27.2147 201.926 27.9701 201.926 28.7576V46.575C201.926 47.3626 202.239 48.1179 202.796 48.6748C203.352 49.2317 204.108 49.5445 204.895 49.5445H213.804C214.592 49.5445 215.347 49.2317 215.904 48.6748C216.461 48.1179 216.774 47.3626 216.774 46.575V28.7576C216.774 27.9701 216.461 27.2147 215.904 26.6578C215.347 26.1009 214.592 25.7881 213.804 25.7881H204.895Z" fill="black"/>
<path d="M209.348 46.575C209.742 46.575 210.12 46.4186 210.398 46.1401C210.676 45.8617 210.833 45.484 210.833 45.0902C210.833 44.6965 210.676 44.3188 210.398 44.0404C210.12 43.7619 209.742 43.6055 209.348 43.6055C208.954 43.6055 208.577 43.7619 208.298 44.0404C208.02 44.3188 207.863 44.6965 207.863 45.0902C207.863 45.484 208.02 45.8617 208.298 46.1401C208.577 46.4186 208.954 46.575 209.348 46.575Z" fill="black"/>
<path d="M186.36 45C186.037 45.8311 185.492 46.3851 184.873 46.3851H177.061C176.433 46.3851 175.898 45.8311 175.574 45H165.297V46.616C165.344 47.2081 165.622 47.7579 166.072 48.1467C166.521 48.5354 167.105 48.7319 167.698 48.6936H194.292C194.885 48.7319 195.469 48.5354 195.918 48.1467C196.367 47.7579 196.645 47.2081 196.693 46.616V45H186.36Z" fill="black"/>
<path d="M170.835 30.2278H191.15V43.1554H193.92V27.9839C193.927 27.6083 193.786 27.245 193.526 26.9734C193.267 26.7018 192.91 26.5439 192.535 26.5342H169.45C169.074 26.5439 168.718 26.7018 168.458 26.9734C168.199 27.245 168.057 27.6083 168.065 27.9839V43.1554H170.835V30.2278Z" fill="black"/>
<defs>
<filter id="filter0_d_4104_9467" x="20.0625" y="15.2676" width="32.5508" height="31.4863" filterUnits="userSpaceOnUse" color-interpolation-filters="sRGB">
<feFlood flood-opacity="0" result="BackgroundImageFix"/>
<feColorMatrix in="SourceAlpha" type="matrix" values="0 0 0 0 0 0 0 0 0 0 0 0 0 0 0 0 0 0 127 0" result="hardAlpha"/>
<feOffset dy="1.40625"/>
<feGaussianBlur stdDeviation="0.826172"/>
<feComposite in2="hardAlpha" operator="out"/>
<feColorMatrix type="matrix" values="0 0 0 0 0.00392157 0 0 0 0 0.0901961 0 0 0 0 0.231373 0 0 0 0.5 0"/>
<feBlend mode="normal" in2="BackgroundImageFix" result="effect1_dropShadow_4104_9467"/>
<feBlend mode="normal" in="SourceGraphic" in2="effect1_dropShadow_4104_9467" result="shape"/>
</filter>
<linearGradient id="paint0_linear_4104_9467" x1="36.375" y1="6" x2="36.375" y2="51" gradientUnits="userSpaceOnUse">
<stop stop-color="#6CCCFB"/>
<stop offset="1" stop-color="#3B6CF2"/>
</linearGradient>
<linearGradient id="paint1_linear_4104_9467" x1="36.375" y1="9.86719" x2="36.375" y2="42.5625" gradientUnits="userSpaceOnUse">
<stop stop-color="#6CCCFB" stop-opacity="0.2"/>
<stop offset="1" stop-color="#8EEBFD" stop-opacity="0.5"/>
</linearGradient>
<linearGradient id="paint2_linear_4104_9467" x1="36.375" y1="11.9766" x2="36.375" y2="40.8047" gradientUnits="userSpaceOnUse">
<stop stop-color="#8DEAFC"/>
<stop offset="1" stop-color="#8EEBFD" stop-opacity="0.5"/>
</linearGradient>
<linearGradient id="paint3_linear_4104_9467" x1="36.3374" y1="15.5137" x2="36.3374" y2="43.6954" gradientUnits="userSpaceOnUse">
<stop stop-color="#1B4680"/>
<stop offset="1" stop-color="#001539"/>
</linearGradient>
</defs>
</svg>
