<svg width="166" height="58" viewBox="0 0 166 58" fill="none" xmlns="http://www.w3.org/2000/svg">
<g clip-path="url(#clip0_4104_9467)">
<rect x="0.125" width="165.224" height="58" fill="white"/>
<path d="M71.8589 9.05212H71.4004C71.3662 8.88138 71.3044 8.72366 71.215 8.57894C71.1272 8.43259 71.0166 8.30495 70.8833 8.196C70.7499 8.08706 70.5987 8.0025 70.4296 7.94234C70.2605 7.88218 70.0776 7.85209 69.8808 7.85209C69.5654 7.85209 69.2775 7.93421 69.0174 8.09844C68.7588 8.26267 68.5515 8.50414 68.3954 8.82284C68.2409 9.13992 68.1637 9.52855 68.1637 9.98872C68.1637 10.4521 68.2409 10.8424 68.3954 11.1595C68.5515 11.4766 68.7588 11.7172 69.0174 11.8814C69.2775 12.044 69.5654 12.1253 69.8808 12.1253C70.0776 12.1253 70.2605 12.0953 70.4296 12.0351C70.5987 11.9749 70.7499 11.8912 70.8833 11.7839C71.0166 11.6749 71.1272 11.5473 71.215 11.4009C71.3044 11.2546 71.3662 11.0961 71.4004 10.9253H71.8589C71.8182 11.1546 71.7418 11.3684 71.6296 11.5668C71.5191 11.7636 71.3776 11.9359 71.2052 12.0839C71.0345 12.2319 70.8377 12.3473 70.615 12.4302C70.3922 12.5132 70.1475 12.5546 69.8808 12.5546C69.4613 12.5546 69.0889 12.4497 68.7637 12.24C68.4385 12.0286 68.1832 11.731 67.9979 11.3473C67.8141 10.9635 67.7222 10.5107 67.7222 9.98872C67.7222 9.46676 67.8141 9.01391 67.9979 8.63016C68.1832 8.24641 68.4385 7.94966 68.7637 7.7399C69.0889 7.52851 69.4613 7.42282 69.8808 7.42282C70.1475 7.42282 70.3922 7.46428 70.615 7.54721C70.8377 7.62851 71.0345 7.74396 71.2052 7.89356C71.3776 8.04153 71.5191 8.21389 71.6296 8.41064C71.7418 8.60739 71.8182 8.82122 71.8589 9.05212ZM72.5653 12.4863V8.73992H72.9872V9.31554H73.0189C73.0937 9.12692 73.2238 8.97488 73.4092 8.85943C73.5962 8.74236 73.8076 8.68382 74.0434 8.68382C74.0791 8.68382 74.119 8.68463 74.1629 8.68626C74.2068 8.68788 74.2434 8.68951 74.2726 8.69114V9.13261C74.2531 9.12935 74.219 9.12448 74.1702 9.11797C74.1214 9.11147 74.0686 9.10822 74.0116 9.10822C73.8165 9.10822 73.6425 9.14968 73.4897 9.23261C73.3385 9.31391 73.2189 9.42692 73.1311 9.57164C73.0433 9.71636 72.9994 9.8814 72.9994 10.0668V12.4863H72.5653ZM76.1394 12.5644C75.7898 12.5644 75.4873 12.4831 75.2321 12.3205C74.9768 12.1562 74.7792 11.9294 74.6394 11.64C74.5012 11.3489 74.432 11.0139 74.432 10.6351C74.432 10.2578 74.5012 9.92287 74.6394 9.63018C74.7792 9.33586 74.9719 9.10578 75.2174 8.93992C75.4646 8.77244 75.75 8.6887 76.0735 8.6887C76.2768 8.6887 76.4727 8.72609 76.6614 8.80089C76.85 8.87406 77.0191 8.98708 77.1687 9.13992C77.3199 9.29115 77.4394 9.48221 77.5272 9.71311C77.615 9.94238 77.6589 10.2139 77.6589 10.5278V10.7424H74.7321V10.3595H77.215C77.215 10.1188 77.1662 9.90254 77.0687 9.71067C76.9727 9.51717 76.8386 9.36432 76.6662 9.25212C76.4955 9.13992 76.2979 9.08383 76.0735 9.08383C75.8361 9.08383 75.6272 9.14724 75.4467 9.27407C75.2662 9.4009 75.1247 9.56839 75.0223 9.77652C74.9215 9.98466 74.8703 10.2123 74.8686 10.4595V10.6887C74.8686 10.9863 74.9199 11.2465 75.0223 11.4692C75.1264 11.6904 75.2735 11.8619 75.4638 11.9839C75.654 12.1058 75.8792 12.1668 76.1394 12.1668C76.3166 12.1668 76.4719 12.1392 76.6053 12.0839C76.7402 12.0286 76.8532 11.9546 76.9443 11.8619C77.037 11.7676 77.1069 11.6644 77.154 11.5522L77.5663 11.6863C77.5093 11.844 77.4158 11.9896 77.2858 12.1229C77.1573 12.2562 76.9963 12.3636 76.8028 12.4449C76.6109 12.5245 76.3898 12.5644 76.1394 12.5644ZM79.3873 12.5717C79.1613 12.5717 78.9548 12.5278 78.7678 12.44C78.5808 12.3506 78.432 12.2221 78.3214 12.0546C78.2108 11.8855 78.1556 11.6806 78.1556 11.44C78.1556 11.2546 78.1905 11.0985 78.2604 10.9717C78.3304 10.8448 78.4295 10.7408 78.558 10.6595C78.6865 10.5782 78.8385 10.5139 79.0141 10.4668C79.1897 10.4196 79.3832 10.383 79.5946 10.357C79.8044 10.331 79.9816 10.3082 80.1263 10.2887C80.2727 10.2692 80.3841 10.2383 80.4605 10.196C80.5369 10.1538 80.5751 10.0855 80.5751 9.99116V9.90335C80.5751 9.64806 80.4987 9.44725 80.3458 9.3009C80.1946 9.15293 79.9767 9.07895 79.6922 9.07895C79.4222 9.07895 79.2019 9.1383 79.0312 9.257C78.8621 9.3757 78.7434 9.51554 78.6751 9.67652L78.2629 9.52774C78.3474 9.32285 78.4645 9.15944 78.6141 9.03748C78.7637 8.9139 78.9312 8.82528 79.1165 8.77162C79.3019 8.71634 79.4897 8.6887 79.68 8.6887C79.8231 8.6887 79.9718 8.7074 80.1263 8.74479C80.2824 8.78219 80.4271 8.84724 80.5605 8.93992C80.6938 9.03098 80.8019 9.15862 80.8849 9.32285C80.9678 9.48546 81.0093 9.69197 81.0093 9.94238V12.4863H80.5751V11.8936H80.5483C80.4962 12.0042 80.419 12.1115 80.3166 12.2156C80.2141 12.3197 80.0857 12.405 79.9312 12.4717C79.7767 12.5384 79.5954 12.5717 79.3873 12.5717ZM79.4458 12.1741C79.6767 12.1741 79.8767 12.1229 80.0458 12.0205C80.2149 11.918 80.345 11.7822 80.4361 11.6131C80.5288 11.4424 80.5751 11.2546 80.5751 11.0497V10.5082C80.5426 10.5391 80.4881 10.5668 80.4117 10.5912C80.3369 10.6156 80.2499 10.6375 80.1507 10.657C80.0532 10.6749 79.9556 10.6904 79.858 10.7034C79.7605 10.7164 79.6727 10.7278 79.5946 10.7375C79.3832 10.7635 79.2027 10.8042 79.0531 10.8595C78.9035 10.9148 78.7889 10.9912 78.7092 11.0887C78.6295 11.1847 78.5897 11.3083 78.5897 11.4595C78.5897 11.6871 78.671 11.8636 78.8336 11.9888C78.9962 12.1123 79.2003 12.1741 79.4458 12.1741ZM83.3651 8.73992V9.11797H81.5772V8.73992H83.3651ZM82.1358 7.84234H82.5724V11.5083C82.5724 11.6644 82.5992 11.7871 82.6529 11.8766C82.7065 11.9644 82.7764 12.027 82.8626 12.0644C82.9488 12.1001 83.0407 12.118 83.1382 12.118C83.1951 12.118 83.2439 12.1148 83.2846 12.1083C83.3252 12.1001 83.361 12.092 83.3919 12.0839L83.4846 12.4766C83.4423 12.4928 83.3903 12.5075 83.3285 12.5205C83.2667 12.5351 83.1903 12.5424 83.0992 12.5424C82.9399 12.5424 82.7862 12.5075 82.6382 12.4375C82.4919 12.3676 82.3716 12.2636 82.2772 12.1253C82.1829 11.9871 82.1358 11.8156 82.1358 11.6107V7.84234ZM85.5507 12.5644C85.2011 12.5644 84.8987 12.4831 84.6434 12.3205C84.3881 12.1562 84.1906 11.9294 84.0507 11.64C83.9125 11.3489 83.8434 11.0139 83.8434 10.6351C83.8434 10.2578 83.9125 9.92287 84.0507 9.63018C84.1906 9.33586 84.3832 9.10578 84.6288 8.93992C84.8759 8.77244 85.1613 8.6887 85.4849 8.6887C85.6881 8.6887 85.8841 8.72609 86.0727 8.80089C86.2613 8.87406 86.4304 8.98708 86.58 9.13992C86.7313 9.29115 86.8508 9.48221 86.9386 9.71311C87.0264 9.94238 87.0703 10.2139 87.0703 10.5278V10.7424H84.1434V10.3595H86.6264C86.6264 10.1188 86.5776 9.90254 86.48 9.71067C86.3841 9.51717 86.2499 9.36432 86.0776 9.25212C85.9068 9.13992 85.7093 9.08383 85.4849 9.08383C85.2475 9.08383 85.0385 9.14724 84.858 9.27407C84.6776 9.4009 84.5361 9.56839 84.4336 9.77652C84.3328 9.98466 84.2816 10.2123 84.28 10.4595V10.6887C84.28 10.9863 84.3312 11.2465 84.4336 11.4692C84.5377 11.6904 84.6849 11.8619 84.8751 11.9839C85.0654 12.1058 85.2906 12.1668 85.5507 12.1668C85.728 12.1668 85.8833 12.1392 86.0166 12.0839C86.1516 12.0286 86.2646 11.9546 86.3556 11.8619C86.4483 11.7676 86.5182 11.6644 86.5654 11.5522L86.9776 11.6863C86.9207 11.844 86.8272 11.9896 86.6971 12.1229C86.5686 12.2562 86.4077 12.3636 86.2142 12.4449C86.0223 12.5245 85.8012 12.5644 85.5507 12.5644ZM89.7117 13.8912C89.6255 13.8912 89.5451 13.8831 89.4703 13.8668C89.3955 13.8506 89.3361 13.8327 89.2922 13.8132L89.4093 13.4302C89.5572 13.4758 89.689 13.492 89.8044 13.479C89.9199 13.4676 90.0223 13.4156 90.1117 13.3229C90.2012 13.2319 90.2808 13.092 90.3508 12.9034L90.4873 12.5229L89.1093 8.73992H89.58L90.6922 11.9131H90.7264L91.8386 8.73992H92.3093L90.7239 13.079C90.6573 13.2595 90.5752 13.4099 90.4776 13.5303C90.38 13.6522 90.267 13.7424 90.1386 13.801C90.0117 13.8612 89.8694 13.8912 89.7117 13.8912ZM94.206 12.5644C93.8824 12.5644 93.5962 12.4823 93.3474 12.318C93.1003 12.1538 92.9068 11.927 92.7669 11.6375C92.6271 11.3465 92.5572 11.0107 92.5572 10.6302C92.5572 10.2464 92.6271 9.90904 92.7669 9.61798C92.9068 9.32529 93.1003 9.09765 93.3474 8.93504C93.5962 8.77081 93.8824 8.6887 94.206 8.6887C94.5296 8.6887 94.8149 8.77081 95.0621 8.93504C95.3092 9.09927 95.5027 9.32692 95.6426 9.61798C95.7841 9.90904 95.8548 10.2464 95.8548 10.6302C95.8548 11.0107 95.7849 11.3465 95.645 11.6375C95.5052 11.927 95.3109 12.1538 95.0621 12.318C94.8149 12.4823 94.5296 12.5644 94.206 12.5644ZM94.206 12.1668C94.4661 12.1668 94.6865 12.0969 94.867 11.957C95.0475 11.8172 95.184 11.631 95.2767 11.3985C95.371 11.166 95.4182 10.9099 95.4182 10.6302C95.4182 10.3505 95.371 10.0936 95.2767 9.85945C95.184 9.6253 95.0475 9.43749 94.867 9.29602C94.6865 9.15456 94.4661 9.08383 94.206 9.08383C93.9474 9.08383 93.7271 9.15456 93.545 9.29602C93.3645 9.43749 93.2271 9.6253 93.1328 9.85945C93.0401 10.0936 92.9938 10.3505 92.9938 10.6302C92.9938 10.9099 93.0401 11.166 93.1328 11.3985C93.2271 11.631 93.3645 11.8172 93.545 11.957C93.7255 12.0969 93.9458 12.1668 94.206 12.1668ZM98.9137 11.0546V8.73992H99.3478V12.4863H98.9137V11.8644H98.8795C98.7917 12.0562 98.6527 12.2164 98.4624 12.3449C98.2722 12.4717 98.0397 12.5351 97.7648 12.5351C97.5258 12.5351 97.3136 12.4831 97.1283 12.379C96.9429 12.2733 96.7974 12.1188 96.6917 11.9156C96.586 11.7123 96.5331 11.4627 96.5331 11.1668V8.73992H96.9673V11.14C96.9673 11.4326 97.0535 11.6684 97.2258 11.8473C97.3982 12.0245 97.6193 12.1132 97.8892 12.1132C98.0583 12.1132 98.221 12.0725 98.3771 11.9912C98.5332 11.9099 98.6616 11.7912 98.7624 11.6351C98.8632 11.4774 98.9137 11.2839 98.9137 11.0546ZM100.222 12.4863V8.73992H100.644V9.31554H100.676C100.751 9.12692 100.881 8.97488 101.066 8.85943C101.253 8.74236 101.465 8.68382 101.701 8.68382C101.736 8.68382 101.776 8.68463 101.82 8.68626C101.864 8.68788 101.901 8.68951 101.93 8.69114V9.13261C101.91 9.12935 101.876 9.12448 101.827 9.11797C101.779 9.11147 101.726 9.10822 101.669 9.10822C101.474 9.10822 101.3 9.14968 101.147 9.23261C100.996 9.31391 100.876 9.42692 100.788 9.57164C100.701 9.71636 100.657 9.8814 100.657 10.0668V12.4863H100.222Z" fill="black"/>
<path d="M73.7913 17.7906H75.7442V23.7891C75.7442 24.4626 75.5834 25.0519 75.2616 25.557C74.9429 26.0622 74.4964 26.4561 73.9221 26.7387C73.3478 27.0183 72.6788 27.1581 71.9151 27.1581C71.1484 27.1581 70.4779 27.0183 69.9036 26.7387C69.3293 26.4561 68.8828 26.0622 68.5641 25.557C68.2454 25.0519 68.086 24.4626 68.086 23.7891V17.7906H70.0389V23.6222C70.0389 23.974 70.1156 24.2867 70.2689 24.5603C70.4253 24.8339 70.6448 25.0489 70.9274 25.2052C71.21 25.3616 71.5393 25.4398 71.9151 25.4398C72.294 25.4398 72.6232 25.3616 72.9028 25.2052C73.1855 25.0489 73.4035 24.8339 73.5568 24.5603C73.7132 24.2867 73.7913 23.974 73.7913 23.6222V17.7906ZM78.7282 23.0223V27.0273H76.8068V20.0998H78.638V21.322H78.7191C78.8725 20.9191 79.1296 20.6004 79.4904 20.3659C79.8512 20.1283 80.2887 20.0096 80.8028 20.0096C81.2839 20.0096 81.7034 20.1148 82.0612 20.3253C82.419 20.5358 82.6971 20.8364 82.8955 21.2273C83.094 21.6152 83.1932 22.0782 83.1932 22.6164V27.0273H81.2719V22.9592C81.2749 22.5352 81.1666 22.2045 80.9472 21.967C80.7277 21.7264 80.4255 21.6062 80.0406 21.6062C79.782 21.6062 79.5535 21.6618 79.3551 21.773C79.1596 21.8843 79.0063 22.0467 78.895 22.2601C78.7868 22.4706 78.7312 22.7247 78.7282 23.0223ZM84.1995 27.0273V20.0998H86.1208V27.0273H84.1995ZM85.1646 19.2068C84.879 19.2068 84.6339 19.1121 84.4295 18.9226C84.228 18.7302 84.1273 18.5002 84.1273 18.2326C84.1273 17.968 84.228 17.741 84.4295 17.5516C84.6339 17.3591 84.879 17.2629 85.1646 17.2629C85.4503 17.2629 85.6938 17.3591 85.8953 17.5516C86.0997 17.741 86.202 17.968 86.202 18.2326C86.202 18.5002 86.0997 18.7302 85.8953 18.9226C85.6938 19.1121 85.4503 19.2068 85.1646 19.2068ZM93.6103 20.0998L91.1884 27.0273H89.0235L86.6016 20.0998H88.6312L90.0699 25.0564H90.1421L91.5763 20.0998H93.6103ZM97.0194 27.1626C96.3068 27.1626 95.6934 27.0183 95.1792 26.7297C94.6681 26.438 94.2742 26.0261 93.9976 25.4939C93.721 24.9587 93.5827 24.3258 93.5827 23.5951C93.5827 22.8825 93.721 22.2571 93.9976 21.7189C94.2742 21.1807 94.6636 20.7613 95.1657 20.4606C95.6708 20.1599 96.2632 20.0096 96.9427 20.0096C97.3997 20.0096 97.8252 20.0832 98.2191 20.2306C98.616 20.3749 98.9617 20.5929 99.2564 20.8845C99.5541 21.1762 99.7856 21.543 99.951 21.985C100.116 22.424 100.199 22.9382 100.199 23.5275V24.0552H94.3494V22.8645H98.3905C98.3905 22.5879 98.3303 22.3428 98.2101 22.1293C98.0898 21.9159 97.9229 21.749 97.7094 21.6287C97.499 21.5054 97.2539 21.4438 96.9743 21.4438C96.6826 21.4438 96.424 21.5114 96.1985 21.6468C95.976 21.7791 95.8016 21.958 95.6754 22.1835C95.5491 22.406 95.4844 22.654 95.4814 22.9276V24.0597C95.4814 24.4024 95.5446 24.6986 95.6708 24.9482C95.8001 25.1977 95.982 25.3902 96.2166 25.5255C96.4511 25.6608 96.7292 25.7284 97.0509 25.7284C97.2644 25.7284 97.4599 25.6984 97.6373 25.6382C97.8147 25.5781 97.9665 25.4879 98.0928 25.3676C98.2191 25.2473 98.3153 25.1 98.3814 24.9256L100.158 25.0429C100.068 25.4698 99.8833 25.8427 99.6037 26.1614C99.3271 26.4771 98.9693 26.7237 98.5303 26.9011C98.0943 27.0755 97.5907 27.1626 97.0194 27.1626ZM100.945 27.0273V20.0998H102.808V21.3085H102.88C103.006 20.8785 103.218 20.5538 103.516 20.3343C103.813 20.1118 104.156 20.0006 104.544 20.0006C104.64 20.0006 104.744 20.0066 104.855 20.0186C104.966 20.0306 105.064 20.0472 105.148 20.0682V21.773C105.058 21.746 104.933 21.7219 104.774 21.7009C104.615 21.6798 104.469 21.6693 104.336 21.6693C104.054 21.6693 103.801 21.7309 103.579 21.8542C103.359 21.9745 103.185 22.1429 103.056 22.3594C102.929 22.5758 102.866 22.8254 102.866 23.108V27.0273H100.945ZM111.398 22.0752L109.639 22.1835C109.609 22.0331 109.544 21.8978 109.445 21.7775C109.345 21.6543 109.215 21.5566 109.052 21.4844C108.893 21.4092 108.702 21.3716 108.479 21.3716C108.182 21.3716 107.931 21.4348 107.726 21.5611C107.522 21.6843 107.42 21.8497 107.42 22.0572C107.42 22.2225 107.486 22.3624 107.618 22.4766C107.75 22.5909 107.977 22.6826 108.299 22.7517L109.553 23.0043C110.226 23.1426 110.729 23.3651 111.059 23.6718C111.39 23.9785 111.555 24.3814 111.555 24.8805C111.555 25.3345 111.422 25.7329 111.154 26.0757C110.889 26.4185 110.526 26.6861 110.063 26.8785C109.603 27.0679 109.072 27.1626 108.47 27.1626C107.553 27.1626 106.823 26.9717 106.279 26.5899C105.737 26.205 105.42 25.6818 105.327 25.0203L107.217 24.9211C107.274 25.2007 107.412 25.4142 107.632 25.5615C107.851 25.7059 108.132 25.778 108.475 25.778C108.812 25.778 109.082 25.7134 109.287 25.5841C109.494 25.4518 109.6 25.2819 109.603 25.0745C109.6 24.9001 109.526 24.7572 109.382 24.646C109.237 24.5317 109.015 24.4445 108.714 24.3844L107.514 24.1454C106.838 24.0101 106.334 23.7755 106.003 23.4418C105.676 23.108 105.512 22.6826 105.512 22.1654C105.512 21.7204 105.632 21.3371 105.873 21.0153C106.116 20.6936 106.457 20.4456 106.896 20.2712C107.338 20.0968 107.856 20.0096 108.448 20.0096C109.323 20.0096 110.011 20.1945 110.514 20.5643C111.019 20.9342 111.313 21.4378 111.398 22.0752ZM114.233 27.1581C113.791 27.1581 113.397 27.0815 113.051 26.9281C112.705 26.7718 112.432 26.5418 112.23 26.2381C112.032 25.9314 111.932 25.5495 111.932 25.0925C111.932 24.7076 112.003 24.3844 112.144 24.1228C112.286 23.8612 112.478 23.6508 112.722 23.4914C112.965 23.332 113.242 23.2118 113.552 23.1306C113.864 23.0494 114.192 22.9923 114.535 22.9592C114.938 22.9171 115.262 22.878 115.509 22.8419C115.756 22.8029 115.934 22.7457 116.046 22.6706C116.157 22.5954 116.213 22.4841 116.213 22.3368V22.3097C116.213 22.0241 116.122 21.8031 115.942 21.6468C115.765 21.4904 115.512 21.4122 115.184 21.4122C114.839 21.4122 114.563 21.4889 114.359 21.6422C114.154 21.7926 114.019 21.982 113.953 22.2105L112.176 22.0662C112.266 21.6452 112.444 21.2814 112.708 20.9747C112.973 20.665 113.314 20.4275 113.732 20.2621C114.153 20.0938 114.64 20.0096 115.193 20.0096C115.578 20.0096 115.947 20.0547 116.298 20.1449C116.653 20.2351 116.967 20.3749 117.241 20.5643C117.518 20.7537 117.736 20.9973 117.895 21.295C118.054 21.5896 118.134 21.9429 118.134 22.3548V27.0273H116.312V26.0667H116.258C116.146 26.2832 115.998 26.4741 115.811 26.6395C115.625 26.8018 115.401 26.9296 115.139 27.0228C114.878 27.113 114.575 27.1581 114.233 27.1581ZM114.783 25.8322C115.066 25.8322 115.315 25.7765 115.532 25.6653C115.748 25.551 115.918 25.3977 116.041 25.2052C116.165 25.0128 116.226 24.7948 116.226 24.5513V23.8161C116.166 23.8552 116.083 23.8913 115.978 23.9244C115.876 23.9544 115.76 23.983 115.631 24.0101C115.502 24.0341 115.372 24.0567 115.243 24.0777C115.114 24.0958 114.996 24.1123 114.891 24.1273C114.666 24.1604 114.469 24.213 114.3 24.2852C114.132 24.3573 114.001 24.4551 113.908 24.5783C113.815 24.6986 113.768 24.8489 113.768 25.0294C113.768 25.2909 113.863 25.4909 114.052 25.6292C114.245 25.7645 114.488 25.8322 114.783 25.8322ZM121.038 17.7906V27.0273H119.117V17.7906H121.038ZM68.086 40.0273V30.7906H71.7843C72.4638 30.7906 73.0306 30.8913 73.4846 31.0928C73.9387 31.2942 74.2799 31.5738 74.5084 31.9317C74.737 32.2864 74.8512 32.6954 74.8512 33.1584C74.8512 33.5192 74.779 33.8364 74.6347 34.11C74.4904 34.3807 74.292 34.6032 74.0394 34.7775C73.7898 34.9489 73.5042 35.0707 73.1825 35.1429V35.2331C73.5342 35.2481 73.8635 35.3473 74.1702 35.5307C74.4799 35.7142 74.7309 35.9712 74.9234 36.302C75.1158 36.6297 75.212 37.0206 75.212 37.4746C75.212 37.9647 75.0902 38.4022 74.8467 38.7871C74.6062 39.1689 74.2499 39.4711 73.7778 39.6936C73.3057 39.9161 72.7239 40.0273 72.0324 40.0273H68.086ZM70.0389 38.4308H71.631C72.1752 38.4308 72.5721 38.327 72.8216 38.1196C73.0712 37.9091 73.196 37.6295 73.196 37.2807C73.196 37.0251 73.1344 36.7996 73.0111 36.6042C72.8878 36.4087 72.7119 36.2554 72.4834 36.1441C72.2579 36.0329 71.9888 35.9772 71.6761 35.9772H70.0389V38.4308ZM70.0389 34.6558H71.4866C71.7542 34.6558 71.9918 34.6092 72.1992 34.516C72.4097 34.4197 72.5751 34.2844 72.6954 34.11C72.8186 33.9357 72.8803 33.7267 72.8803 33.4831C72.8803 33.1494 72.7615 32.8803 72.524 32.6758C72.2895 32.4714 71.9557 32.3691 71.5227 32.3691H70.0389V34.6558ZM79.0687 40.1626C78.3681 40.1626 77.7622 40.0138 77.2511 39.7161C76.743 39.4155 76.3506 38.9975 76.074 38.4623C75.7973 37.9241 75.659 37.3002 75.659 36.5906C75.659 35.875 75.7973 35.2496 76.074 34.7144C76.3506 34.1762 76.743 33.7583 77.2511 33.4606C77.7622 33.1599 78.3681 33.0096 79.0687 33.0096C79.7693 33.0096 80.3736 33.1599 80.8818 33.4606C81.3929 33.7583 81.7868 34.1762 82.0634 34.7144C82.34 35.2496 82.4783 35.875 82.4783 36.5906C82.4783 37.3002 82.34 37.9241 82.0634 38.4623C81.7868 38.9975 81.3929 39.4155 80.8818 39.7161C80.3736 40.0138 79.7693 40.1626 79.0687 40.1626ZM79.0777 38.6743C79.3964 38.6743 79.6625 38.5841 79.876 38.4037C80.0895 38.2203 80.2503 37.9707 80.3586 37.655C80.4698 37.3393 80.5255 36.98 80.5255 36.5771C80.5255 36.1742 80.4698 35.8149 80.3586 35.4992C80.2503 35.1835 80.0895 34.9339 79.876 34.7505C79.6625 34.5671 79.3964 34.4754 79.0777 34.4754C78.756 34.4754 78.4854 34.5671 78.2659 34.7505C78.0494 34.9339 77.8855 35.1835 77.7743 35.4992C77.666 35.8149 77.6119 36.1742 77.6119 36.5771C77.6119 36.98 77.666 37.3393 77.7743 37.655C77.8855 37.9707 78.0494 38.2203 78.2659 38.4037C78.4854 38.5841 78.756 38.6743 79.0777 38.6743ZM86.3497 40.1626C85.6491 40.1626 85.0432 40.0138 84.5321 39.7161C84.0239 39.4155 83.6316 38.9975 83.3549 38.4623C83.0783 37.9241 82.94 37.3002 82.94 36.5906C82.94 35.875 83.0783 35.2496 83.3549 34.7144C83.6316 34.1762 84.0239 33.7583 84.5321 33.4606C85.0432 33.1599 85.6491 33.0096 86.3497 33.0096C87.0502 33.0096 87.6546 33.1599 88.1627 33.4606C88.6739 33.7583 89.0678 34.1762 89.3444 34.7144C89.621 35.2496 89.7593 35.875 89.7593 36.5906C89.7593 37.3002 89.621 37.9241 89.3444 38.4623C89.0678 38.9975 88.6739 39.4155 88.1627 39.7161C87.6546 40.0138 87.0502 40.1626 86.3497 40.1626ZM86.3587 38.6743C86.6774 38.6743 86.9435 38.5841 87.157 38.4037C87.3705 38.2203 87.5313 37.9707 87.6396 37.655C87.7508 37.3393 87.8064 36.98 87.8064 36.5771C87.8064 36.1742 87.7508 35.8149 87.6396 35.4992C87.5313 35.1835 87.3705 34.9339 87.157 34.7505C86.9435 34.5671 86.6774 34.4754 86.3587 34.4754C86.037 34.4754 85.7664 34.5671 85.5469 34.7505C85.3304 34.9339 85.1665 35.1835 85.0553 35.4992C84.947 35.8149 84.8929 36.1742 84.8929 36.5771C84.8929 36.98 84.947 37.3393 85.0553 37.655C85.1665 37.9707 85.3304 38.2203 85.5469 38.4037C85.7664 38.5841 86.037 38.6743 86.3587 38.6743ZM92.2415 38.0339L92.246 35.7292H92.5257L94.7446 33.0998H96.9501L93.9689 36.5816H93.5134L92.2415 38.0339ZM90.5006 40.0273V30.7906H92.4219V40.0273H90.5006ZM94.8303 40.0273L92.7918 37.0101L94.0726 35.6525L97.0809 40.0273H94.8303ZM97.3847 40.0273V33.0998H99.2158V34.322H99.297C99.4413 33.9161 99.6819 33.5959 100.019 33.3614C100.355 33.1268 100.758 33.0096 101.227 33.0096C101.702 33.0096 102.107 33.1283 102.441 33.3659C102.774 33.6004 102.997 33.9191 103.108 34.322H103.18C103.322 33.9251 103.577 33.6079 103.947 33.3704C104.32 33.1298 104.76 33.0096 105.268 33.0096C105.915 33.0096 106.44 33.2155 106.842 33.6275C107.248 34.0364 107.451 34.6167 107.451 35.3684V40.0273H105.535V35.7472C105.535 35.3624 105.432 35.0737 105.228 34.8813C105.023 34.6888 104.768 34.5926 104.461 34.5926C104.112 34.5926 103.84 34.7039 103.645 34.9264C103.449 35.1459 103.352 35.436 103.352 35.7968V40.0273H101.489V35.7066C101.489 35.3669 101.391 35.0963 101.196 34.8948C101.003 34.6934 100.749 34.5926 100.434 34.5926C100.22 34.5926 100.028 34.6468 99.8563 34.755C99.6879 34.8602 99.5541 35.0091 99.4548 35.2015C99.3556 35.3909 99.306 35.6134 99.306 35.869V40.0273H97.3847ZM110.436 40.1581C109.994 40.1581 109.601 40.0815 109.255 39.9281C108.909 39.7718 108.635 39.5418 108.434 39.2381C108.235 38.9314 108.136 38.5495 108.136 38.0925C108.136 37.7076 108.207 37.3844 108.348 37.1228C108.49 36.8612 108.682 36.6508 108.925 36.4914C109.169 36.332 109.446 36.2118 109.755 36.1306C110.068 36.0494 110.396 35.9923 110.739 35.9592C111.141 35.9171 111.466 35.878 111.713 35.8419C111.959 35.8029 112.138 35.7457 112.249 35.6706C112.361 35.5954 112.416 35.4841 112.416 35.3368V35.3097C112.416 35.0241 112.326 34.8031 112.146 34.6468C111.968 34.4904 111.716 34.4122 111.388 34.4122C111.042 34.4122 110.767 34.4889 110.563 34.6422C110.358 34.7926 110.223 34.982 110.157 35.2105L108.38 35.0662C108.47 34.6452 108.647 34.2814 108.912 33.9747C109.177 33.665 109.518 33.4275 109.936 33.2621C110.357 33.0938 110.844 33.0096 111.397 33.0096C111.782 33.0096 112.15 33.0547 112.502 33.1449C112.857 33.2351 113.171 33.3749 113.445 33.5643C113.721 33.7537 113.939 33.9973 114.099 34.295C114.258 34.5896 114.338 34.9429 114.338 35.3548V40.0273H112.516V39.0667H112.461C112.35 39.2832 112.201 39.4741 112.015 39.6395C111.829 39.8018 111.605 39.9296 111.343 40.0228C111.081 40.113 110.779 40.1581 110.436 40.1581ZM110.987 38.8322C111.269 38.8322 111.519 38.7765 111.735 38.6653C111.952 38.551 112.122 38.3977 112.245 38.2052C112.368 38.0128 112.43 37.7948 112.43 37.5513V36.8161C112.37 36.8552 112.287 36.8913 112.182 36.9244C112.08 36.9544 111.964 36.983 111.835 37.0101C111.705 37.0341 111.576 37.0567 111.447 37.0777C111.317 37.0958 111.2 37.1123 111.095 37.1273C110.869 37.1604 110.672 37.213 110.504 37.2852C110.336 37.3573 110.205 37.4551 110.112 37.5783C110.018 37.6986 109.972 37.8489 109.972 38.0294C109.972 38.2909 110.067 38.4909 110.256 38.6292C110.448 38.7645 110.692 38.8322 110.987 38.8322ZM115.32 40.0273V33.0998H117.183V34.3085H117.255C117.381 33.8785 117.593 33.5538 117.891 33.3343C118.189 33.1118 118.531 33.0006 118.919 33.0006C119.016 33.0006 119.119 33.0066 119.231 33.0186C119.342 33.0306 119.439 33.0472 119.524 33.0682V34.773C119.433 34.746 119.309 34.7219 119.149 34.7009C118.99 34.6798 118.844 34.6693 118.712 34.6693C118.429 34.6693 118.177 34.7309 117.954 34.8542C117.735 34.9745 117.56 35.1429 117.431 35.3594C117.305 35.5758 117.242 35.8254 117.242 36.108V40.0273H115.32ZM121.75 38.0339L121.754 35.7292H122.034L124.253 33.0998H126.459L123.477 36.5816H123.022L121.75 38.0339ZM120.009 40.0273V30.7906H121.93V40.0273H120.009ZM124.339 40.0273L122.3 37.0101L123.581 35.6525L126.589 40.0273H124.339ZM128.814 30.7906V40.0273H126.893V30.7906H128.814ZM133.003 40.1626C132.29 40.1626 131.677 40.0183 131.162 39.7297C130.651 39.438 130.257 39.0261 129.981 38.4939C129.704 37.9587 129.566 37.3258 129.566 36.5951C129.566 35.8825 129.704 35.2571 129.981 34.7189C130.257 34.1807 130.647 33.7613 131.149 33.4606C131.654 33.1599 132.246 33.0096 132.926 33.0096C133.383 33.0096 133.808 33.0832 134.202 33.2306C134.599 33.3749 134.945 33.5929 135.24 33.8845C135.537 34.1762 135.769 34.543 135.934 34.985C136.1 35.424 136.182 35.9382 136.182 36.5275V37.0552H130.333V35.8645H134.374C134.374 35.5879 134.314 35.3428 134.193 35.1293C134.073 34.9159 133.906 34.749 133.693 34.6287C133.482 34.5054 133.237 34.4438 132.957 34.4438C132.666 34.4438 132.407 34.5114 132.182 34.6468C131.959 34.7791 131.785 34.958 131.659 35.1835C131.532 35.406 131.468 35.654 131.465 35.9276V37.0597C131.465 37.4024 131.528 37.6986 131.654 37.9482C131.783 38.1977 131.965 38.3902 132.2 38.5255C132.434 38.6608 132.712 38.7284 133.034 38.7284C133.248 38.7284 133.443 38.6984 133.62 38.6382C133.798 38.5781 133.95 38.4879 134.076 38.3676C134.202 38.2473 134.298 38.1 134.365 37.9256L136.142 38.0429C136.051 38.4698 135.867 38.8427 135.587 39.1614C135.31 39.4771 134.952 39.7237 134.513 39.9011C134.077 40.0755 133.574 40.1626 133.003 40.1626ZM140.613 33.0998V34.543H136.441V33.0998H140.613ZM137.388 31.44H139.309V37.8986C139.309 38.076 139.336 38.2143 139.391 38.3135C139.445 38.4097 139.52 38.4774 139.616 38.5164C139.715 38.5555 139.83 38.5751 139.959 38.5751C140.049 38.5751 140.139 38.5676 140.229 38.5525C140.32 38.5345 140.389 38.521 140.437 38.5119L140.739 39.9417C140.643 39.9717 140.508 40.0063 140.333 40.0454C140.159 40.0875 139.947 40.113 139.697 40.1221C139.234 40.1401 138.828 40.0785 138.48 39.9371C138.134 39.7958 137.865 39.5763 137.672 39.2787C137.48 38.981 137.385 38.6051 137.388 38.1511V31.44ZM143.571 35.9863L143.684 34.2408L142.222 35.2195L141.618 34.1551L143.192 33.3884L141.618 32.6217L142.222 31.5573L143.684 32.536L143.571 30.7906H144.784L144.667 32.536L146.128 31.5573L146.732 32.6217L145.163 33.3884L146.732 34.1551L146.128 35.2195L144.667 34.2408L144.784 35.9863H143.571Z" fill="black"/>
<path d="M69.1982 46.1701L69.2251 45.031L68.2519 45.6261L68.0714 45.3091L69.0763 44.7652L68.0714 44.2212L68.2519 43.9042L69.2251 44.4993L69.1982 43.3603H69.5641L69.5373 44.4993L70.5105 43.9042L70.6909 44.2212L69.6861 44.7652L70.6909 45.3091L70.5105 45.6261L69.5373 45.031L69.5641 46.1701H69.1982ZM70.951 48.3555H70.4729L72.29 43.3603H72.7778L74.5949 48.3555H74.1169L72.551 43.9529H72.5169L70.951 48.3555ZM71.2949 46.4408H73.773V46.8506H71.2949V46.4408ZM75.5202 46.014V48.3555H75.0861V44.6091H75.508V45.1969H75.5471C75.6349 45.005 75.7715 44.8513 75.9568 44.7359C76.1438 44.6188 76.3747 44.5603 76.6495 44.5603C76.9016 44.5603 77.1227 44.6131 77.313 44.7188C77.5048 44.8229 77.6536 44.9765 77.7593 45.1798C77.8666 45.3831 77.9203 45.6327 77.9203 45.9286V48.3555H77.4861V45.9554C77.4861 45.6481 77.3999 45.405 77.2276 45.2261C77.0568 45.0473 76.8276 44.9578 76.5398 44.9578C76.343 44.9578 76.1682 45.0001 76.0154 45.0847C75.8625 45.1692 75.7414 45.2912 75.6519 45.4505C75.5641 45.6083 75.5202 45.7961 75.5202 46.014ZM78.9572 49.7604C78.871 49.7604 78.7905 49.7522 78.7157 49.736C78.6409 49.7197 78.5815 49.7018 78.5376 49.6823L78.6547 49.2994C78.8027 49.3449 78.9344 49.3612 79.0498 49.3482C79.1653 49.3368 79.2677 49.2848 79.3572 49.1921C79.4466 49.101 79.5263 48.9612 79.5962 48.7725L79.7328 48.3921L78.3547 44.6091H78.8254L79.9377 47.7823H79.9718L81.084 44.6091H81.5548L79.9694 48.9482C79.9027 49.1287 79.8206 49.2791 79.723 49.3994C79.6255 49.5213 79.5124 49.6116 79.384 49.6701C79.2572 49.7303 79.1149 49.7604 78.9572 49.7604ZM83.8767 48.3555V43.3603H84.3133V45.3237H84.3523C84.4011 45.2115 84.471 45.0961 84.5621 44.9774C84.6547 44.8587 84.7759 44.7595 84.9255 44.6798C85.0767 44.5985 85.267 44.5578 85.4962 44.5578C85.8035 44.5578 86.0735 44.6391 86.306 44.8017C86.5385 44.9627 86.7198 45.1887 86.8499 45.4798C86.98 45.7692 87.045 46.1066 87.045 46.492C87.045 46.879 86.98 47.218 86.8499 47.5091C86.7215 47.8002 86.541 48.027 86.3084 48.1896C86.0775 48.3522 85.8092 48.4335 85.5035 48.4335C85.2759 48.4335 85.0856 48.3929 84.9328 48.3116C84.7816 48.2303 84.6596 48.1303 84.5669 48.0116C84.4743 47.8912 84.4027 47.7742 84.3523 47.6603H84.2986V48.3555H83.8767ZM84.306 46.4847C84.306 46.7871 84.3507 47.0554 84.4401 47.2896C84.5312 47.5221 84.6613 47.7051 84.8304 47.8384C85.0011 47.9701 85.2076 48.036 85.4499 48.036C85.6987 48.036 85.9092 47.9677 86.0816 47.8311C86.254 47.6929 86.3849 47.5067 86.4743 47.2725C86.5637 47.0384 86.6084 46.7758 86.6084 46.4847C86.6084 46.1969 86.5637 45.9375 86.4743 45.7066C86.3865 45.4757 86.2564 45.2928 86.084 45.1578C85.9117 45.0213 85.7003 44.953 85.4499 44.953C85.206 44.953 84.9987 45.0188 84.8279 45.1505C84.6588 45.2806 84.5295 45.4611 84.4401 45.692C84.3507 45.9213 84.306 46.1855 84.306 46.4847ZM87.724 48.3555V44.6091H88.1459V45.1847H88.1776C88.2524 44.9961 88.3825 44.844 88.5679 44.7286C88.7549 44.6115 88.9663 44.553 89.2021 44.553C89.2378 44.553 89.2777 44.5538 89.3216 44.5554C89.3655 44.557 89.4021 44.5586 89.4313 44.5603V45.0017C89.4118 44.9985 89.3777 44.9936 89.3289 44.9871C89.2801 44.9806 89.2273 44.9774 89.1703 44.9774C88.9752 44.9774 88.8012 45.0188 88.6484 45.1017C88.4972 45.1831 88.3776 45.2961 88.2898 45.4408C88.202 45.5855 88.1581 45.7505 88.1581 45.9359V48.3555H87.724ZM91.2396 48.4335C90.916 48.4335 90.6298 48.3514 90.381 48.1872C90.1338 48.0229 89.9403 47.7961 89.8005 47.5067C89.6607 47.2156 89.5907 46.8798 89.5907 46.4993C89.5907 46.1156 89.6607 45.7782 89.8005 45.4871C89.9403 45.1944 90.1338 44.9668 90.381 44.8042C90.6298 44.64 90.916 44.5578 91.2396 44.5578C91.5631 44.5578 91.8485 44.64 92.0957 44.8042C92.3428 44.9684 92.5363 45.1961 92.6762 45.4871C92.8176 45.7782 92.8884 46.1156 92.8884 46.4993C92.8884 46.8798 92.8184 47.2156 92.6786 47.5067C92.5388 47.7961 92.3445 48.0229 92.0957 48.1872C91.8485 48.3514 91.5631 48.4335 91.2396 48.4335ZM91.2396 48.036C91.4997 48.036 91.7201 47.966 91.9005 47.8262C92.081 47.6864 92.2176 47.5002 92.3103 47.2676C92.4046 47.0351 92.4518 46.779 92.4518 46.4993C92.4518 46.2197 92.4046 45.9627 92.3103 45.7286C92.2176 45.4944 92.081 45.3066 91.9005 45.1652C91.7201 45.0237 91.4997 44.953 91.2396 44.953C90.981 44.953 90.7607 45.0237 90.5786 45.1652C90.3981 45.3066 90.2607 45.4944 90.1664 45.7286C90.0737 45.9627 90.0273 46.2197 90.0273 46.4993C90.0273 46.779 90.0737 47.0351 90.1664 47.2676C90.2607 47.5002 90.3981 47.6864 90.5786 47.8262C90.7591 47.966 90.9794 48.036 91.2396 48.036ZM94.271 48.3555L93.1392 44.6091H93.5978L94.4856 47.6994H94.5173L95.4027 44.6091H95.8637L96.7418 47.692H96.7759L97.6637 44.6091H98.1223L96.9905 48.3555H96.5418L95.6539 45.2847H95.6076L94.7198 48.3555H94.271ZM101.209 45.431L100.811 45.5432C100.772 45.431 100.717 45.3294 100.645 45.2383C100.574 45.1473 100.48 45.0749 100.365 45.0213C100.251 44.9676 100.109 44.9408 99.9403 44.9408C99.6866 44.9408 99.4785 45.0009 99.3159 45.1213C99.1532 45.2416 99.0719 45.3969 99.0719 45.5871C99.0719 45.7481 99.1272 45.879 99.2378 45.9798C99.35 46.079 99.5224 46.1579 99.7549 46.2164L100.321 46.3554C100.635 46.4319 100.87 46.553 101.026 46.7189C101.183 46.8847 101.262 47.0928 101.262 47.3433C101.262 47.5546 101.204 47.7424 101.087 47.9067C100.97 48.0709 100.806 48.2002 100.596 48.2945C100.388 48.3872 100.147 48.4335 99.872 48.4335C99.5061 48.4335 99.2045 48.3514 98.9671 48.1872C98.7297 48.0213 98.5776 47.7823 98.511 47.4701L98.928 47.3676C98.9817 47.5904 99.0866 47.7587 99.2427 47.8725C99.4004 47.9864 99.6077 48.0433 99.8646 48.0433C100.152 48.0433 100.383 47.979 100.555 47.8506C100.727 47.7205 100.813 47.5579 100.813 47.3628C100.813 47.2115 100.763 47.0847 100.662 46.9823C100.561 46.8782 100.409 46.8018 100.204 46.753L99.5915 46.6067C99.2663 46.5286 99.0256 46.405 98.8695 46.2359C98.7134 46.0668 98.6354 45.857 98.6354 45.6066C98.6354 45.4001 98.6915 45.2188 98.8036 45.0627C98.9158 44.905 99.0703 44.7814 99.2671 44.692C99.4638 44.6026 99.6882 44.5578 99.9403 44.5578C100.283 44.5578 100.557 44.6359 100.762 44.792C100.969 44.9465 101.118 45.1595 101.209 45.431ZM103.453 48.4335C103.103 48.4335 102.801 48.3522 102.545 48.1896C102.29 48.0254 102.093 47.7985 101.953 47.5091C101.815 47.218 101.745 46.8831 101.745 46.5042C101.745 46.127 101.815 45.792 101.953 45.4993C102.093 45.205 102.285 44.9749 102.531 44.8091C102.778 44.6416 103.063 44.5578 103.387 44.5578C103.59 44.5578 103.786 44.5952 103.975 44.67C104.163 44.7432 104.332 44.8562 104.482 45.0091C104.633 45.1603 104.753 45.3513 104.841 45.5822C104.928 45.8115 104.972 46.0831 104.972 46.3969V46.6115H102.045V46.2286H104.528C104.528 45.9879 104.48 45.7717 104.382 45.5798C104.286 45.3863 104.152 45.2335 103.98 45.1213C103.809 45.0091 103.611 44.953 103.387 44.953C103.15 44.953 102.941 45.0164 102.76 45.1432C102.58 45.27 102.438 45.4375 102.336 45.6457C102.235 45.8538 102.184 46.0814 102.182 46.3286V46.5579C102.182 46.8554 102.233 47.1156 102.336 47.3384C102.44 47.5595 102.587 47.7311 102.777 47.853C102.967 47.975 103.193 48.036 103.453 48.036C103.63 48.036 103.785 48.0083 103.919 47.953C104.054 47.8977 104.167 47.8238 104.258 47.7311C104.35 47.6368 104.42 47.5335 104.467 47.4213L104.88 47.5555C104.823 47.7132 104.729 47.8587 104.599 47.992C104.471 48.1254 104.31 48.2327 104.116 48.314C103.924 48.3937 103.703 48.4335 103.453 48.4335ZM105.654 48.3555V44.6091H106.076V45.1847H106.108C106.183 44.9961 106.313 44.844 106.498 44.7286C106.685 44.6115 106.897 44.553 107.132 44.553C107.168 44.553 107.208 44.5538 107.252 44.5554C107.296 44.557 107.332 44.5586 107.362 44.5603V45.0017C107.342 44.9985 107.308 44.9936 107.259 44.9871C107.21 44.9806 107.158 44.9774 107.101 44.9774C106.906 44.9774 106.732 45.0188 106.579 45.1017C106.427 45.1831 106.308 45.2961 106.22 45.4408C106.132 45.5855 106.088 45.7505 106.088 45.9359V48.3555H105.654ZM108.12 47.6725L108.077 47.9335C108.049 48.1091 108.01 48.3026 107.96 48.514C107.909 48.7254 107.857 48.9262 107.803 49.1165C107.75 49.3067 107.703 49.4596 107.664 49.575H107.33C107.351 49.4644 107.378 49.3238 107.411 49.153C107.445 48.9823 107.48 48.7929 107.516 48.5847C107.551 48.3782 107.584 48.1652 107.613 47.9457L107.647 47.6725H108.12ZM110.657 48.3555V44.6091H111.094V48.3555H110.657ZM110.879 43.9651C110.79 43.9651 110.713 43.9351 110.65 43.8749C110.586 43.8131 110.555 43.7391 110.555 43.6529C110.555 43.5668 110.586 43.4936 110.65 43.4334C110.713 43.3716 110.79 43.3407 110.879 43.3407C110.968 43.3407 111.045 43.3716 111.108 43.4334C111.172 43.4936 111.203 43.5668 111.203 43.6529C111.203 43.7391 111.172 43.8131 111.108 43.8749C111.045 43.9351 110.968 43.9651 110.879 43.9651ZM116.153 45.8579C116.153 46.3782 116.06 46.831 115.874 47.2164C115.689 47.6002 115.434 47.8977 115.109 48.1091C114.785 48.3189 114.413 48.4238 113.992 48.4238C113.57 48.4238 113.197 48.3189 112.872 48.1091C112.548 47.8977 112.294 47.6002 112.109 47.2164C111.925 46.831 111.833 46.3782 111.833 45.8579C111.833 45.3375 111.925 44.8855 112.109 44.5017C112.294 44.1164 112.549 43.8188 112.874 43.609C113.2 43.3977 113.572 43.292 113.992 43.292C114.413 43.292 114.785 43.3977 115.109 43.609C115.434 43.8188 115.689 44.1164 115.874 44.5017C116.06 44.8855 116.153 45.3375 116.153 45.8579ZM115.709 45.8579C115.709 45.4107 115.634 45.0278 115.484 44.7091C115.335 44.3887 115.131 44.144 114.872 43.9749C114.613 43.8058 114.32 43.7212 113.992 43.7212C113.665 43.7212 113.372 43.8058 113.113 43.9749C112.855 44.144 112.65 44.3879 112.499 44.7066C112.349 45.0253 112.274 45.4091 112.274 45.8579C112.274 46.305 112.349 46.688 112.499 47.0067C112.648 47.3254 112.852 47.5701 113.111 47.7408C113.37 47.9099 113.663 47.9945 113.992 47.9945C114.32 47.9945 114.613 47.9099 114.872 47.7408C115.132 47.5717 115.337 47.3278 115.487 47.0091C115.636 46.6888 115.71 46.305 115.709 45.8579ZM119.693 44.6091C119.665 44.331 119.543 44.1099 119.325 43.9456C119.107 43.7814 118.833 43.6993 118.503 43.6993C118.27 43.6993 118.065 43.7391 117.888 43.8188C117.713 43.8985 117.574 44.009 117.474 44.1505C117.374 44.2904 117.325 44.4497 117.325 44.6286C117.325 44.7603 117.353 44.8757 117.41 44.9749C117.467 45.0741 117.543 45.1595 117.639 45.231C117.737 45.3009 117.844 45.3611 117.961 45.4115C118.08 45.4619 118.2 45.5042 118.32 45.5383L118.847 45.6896C119.006 45.7335 119.165 45.7896 119.325 45.8579C119.484 45.9262 119.63 46.0123 119.761 46.1164C119.895 46.2188 120.001 46.3449 120.081 46.4945C120.162 46.6424 120.203 46.8205 120.203 47.0286C120.203 47.2953 120.134 47.5351 119.996 47.7481C119.857 47.9612 119.659 48.1303 119.4 48.2555C119.142 48.379 118.832 48.4408 118.471 48.4408C118.131 48.4408 117.836 48.3847 117.586 48.2725C117.335 48.1587 117.139 48.0018 116.996 47.8018C116.852 47.6018 116.772 47.3701 116.754 47.1067H117.222C117.239 47.3034 117.304 47.4701 117.417 47.6067C117.531 47.7433 117.679 47.8473 117.861 47.9189C118.043 47.9888 118.247 48.0238 118.471 48.0238C118.72 48.0238 118.941 47.9823 119.135 47.8994C119.33 47.8148 119.483 47.6977 119.593 47.5481C119.705 47.3969 119.761 47.2213 119.761 47.0213C119.761 46.8522 119.718 46.7107 119.63 46.5969C119.542 46.4814 119.419 46.3847 119.261 46.3066C119.105 46.2286 118.924 46.1595 118.717 46.0993L118.12 45.9237C117.728 45.8066 117.424 45.6448 117.208 45.4383C116.991 45.2318 116.883 44.9684 116.883 44.6481C116.883 44.3798 116.955 44.144 117.098 43.9408C117.243 43.7359 117.438 43.5765 117.683 43.4627C117.93 43.3472 118.208 43.2895 118.515 43.2895C118.826 43.2895 119.1 43.3464 119.339 43.4603C119.578 43.5741 119.768 43.731 119.908 43.931C120.049 44.1294 120.125 44.3554 120.135 44.6091H119.693ZM124.214 43.1261L122.605 49.1067H122.197L123.807 43.1261H124.214ZM126.447 48.3555H125.969L127.786 43.3603H128.274L130.091 48.3555H129.613L128.047 43.9529H128.013L126.447 48.3555ZM126.791 46.4408H129.269V46.8506H126.791V46.4408ZM131.016 46.014V48.3555H130.582V44.6091H131.004V45.1969H131.043C131.131 45.005 131.267 44.8513 131.453 44.7359C131.64 44.6188 131.87 44.5603 132.145 44.5603C132.397 44.5603 132.618 44.6131 132.809 44.7188C133.001 44.8229 133.149 44.9765 133.255 45.1798C133.362 45.3831 133.416 45.6327 133.416 45.9286V48.3555H132.982V45.9554C132.982 45.6481 132.896 45.405 132.723 45.2261C132.553 45.0473 132.323 44.9578 132.036 44.9578C131.839 44.9578 131.664 45.0001 131.511 45.0847C131.358 45.1692 131.237 45.2912 131.148 45.4505C131.06 45.6083 131.016 45.7961 131.016 46.014ZM135.633 48.4335C135.326 48.4335 135.057 48.3522 134.826 48.1896C134.595 48.027 134.415 47.8002 134.285 47.5091C134.156 47.218 134.092 46.879 134.092 46.492C134.092 46.1066 134.156 45.7692 134.285 45.4798C134.415 45.1887 134.596 44.9627 134.829 44.8017C135.061 44.6391 135.332 44.5578 135.641 44.5578C135.868 44.5578 136.058 44.5985 136.209 44.6798C136.36 44.7595 136.481 44.8587 136.572 44.9774C136.664 45.0961 136.734 45.2115 136.785 45.3237H136.824V43.3603H137.26V48.3555H136.836V47.6603H136.785C136.734 47.7742 136.663 47.8912 136.57 48.0116C136.477 48.1303 136.355 48.2303 136.202 48.3116C136.051 48.3929 135.861 48.4335 135.633 48.4335ZM135.685 48.036C135.927 48.036 136.133 47.9701 136.304 47.8384C136.475 47.7051 136.605 47.5221 136.694 47.2896C136.785 47.0554 136.831 46.7871 136.831 46.4847C136.831 46.1855 136.786 45.9213 136.697 45.692C136.607 45.4611 136.477 45.2806 136.307 45.1505C136.136 45.0188 135.929 44.953 135.685 44.953C135.434 44.953 135.223 45.0213 135.05 45.1578C134.88 45.2928 134.75 45.4757 134.66 45.7066C134.572 45.9375 134.529 46.1969 134.529 46.4847C134.529 46.7758 134.573 47.0384 134.663 47.2725C134.752 47.5067 134.882 47.6929 135.053 47.8311C135.225 47.9677 135.436 48.036 135.685 48.036ZM138.222 48.3555V44.6091H138.644V45.1847H138.676C138.751 44.9961 138.881 44.844 139.066 44.7286C139.253 44.6115 139.464 44.553 139.7 44.553C139.736 44.553 139.776 44.5538 139.82 44.5554C139.864 44.557 139.9 44.5586 139.93 44.5603V45.0017C139.91 44.9985 139.876 44.9936 139.827 44.9871C139.778 44.9806 139.725 44.9774 139.669 44.9774C139.473 44.9774 139.299 45.0188 139.147 45.1017C138.995 45.1831 138.876 45.2961 138.788 45.4408C138.7 45.5855 138.656 45.7505 138.656 45.9359V48.3555H138.222ZM141.738 48.4335C141.414 48.4335 141.128 48.3514 140.879 48.1872C140.632 48.0229 140.439 47.7961 140.299 47.5067C140.159 47.2156 140.089 46.8798 140.089 46.4993C140.089 46.1156 140.159 45.7782 140.299 45.4871C140.439 45.1944 140.632 44.9668 140.879 44.8042C141.128 44.64 141.414 44.5578 141.738 44.5578C142.061 44.5578 142.347 44.64 142.594 44.8042C142.841 44.9684 143.035 45.1961 143.174 45.4871C143.316 45.7782 143.387 46.1156 143.387 46.4993C143.387 46.8798 143.317 47.2156 143.177 47.5067C143.037 47.7961 142.843 48.0229 142.594 48.1872C142.347 48.3514 142.061 48.4335 141.738 48.4335ZM141.738 48.036C141.998 48.036 142.218 47.966 142.399 47.8262C142.579 47.6864 142.716 47.5002 142.809 47.2676C142.903 47.0351 142.95 46.779 142.95 46.4993C142.95 46.2197 142.903 45.9627 142.809 45.7286C142.716 45.4944 142.579 45.3066 142.399 45.1652C142.218 45.0237 141.998 44.953 141.738 44.953C141.479 44.953 141.259 45.0237 141.077 45.1652C140.896 45.3066 140.759 45.4944 140.665 45.7286C140.572 45.9627 140.526 46.2197 140.526 46.4993C140.526 46.779 140.572 47.0351 140.665 47.2676C140.759 47.5002 140.896 47.6864 141.077 47.8262C141.257 47.966 141.478 48.036 141.738 48.036ZM144.07 48.3555V44.6091H144.506V48.3555H144.07ZM144.292 43.9651C144.202 43.9651 144.126 43.9351 144.062 43.8749C143.999 43.8131 143.967 43.7391 143.967 43.6529C143.967 43.5668 143.999 43.4936 144.062 43.4334C144.126 43.3716 144.202 43.3407 144.292 43.3407C144.381 43.3407 144.458 43.3716 144.521 43.4334C144.584 43.4936 144.616 43.5668 144.616 43.6529C144.616 43.7391 144.584 43.8131 144.521 43.8749C144.458 43.9351 144.381 43.9651 144.292 43.9651ZM146.729 48.4335C146.421 48.4335 146.152 48.3522 145.921 48.1896C145.69 48.027 145.51 47.8002 145.38 47.5091C145.251 47.218 145.187 46.879 145.187 46.492C145.187 46.1066 145.251 45.7692 145.38 45.4798C145.51 45.1887 145.691 44.9627 145.924 44.8017C146.156 44.6391 146.427 44.5578 146.736 44.5578C146.964 44.5578 147.153 44.5985 147.304 44.6798C147.455 44.7595 147.577 44.8587 147.668 44.9774C147.759 45.0961 147.829 45.2115 147.88 45.3237H147.919V43.3603H148.355V48.3555H147.931V47.6603H147.88C147.829 47.7742 147.758 47.8912 147.665 48.0116C147.573 48.1303 147.45 48.2303 147.297 48.3116C147.146 48.3929 146.956 48.4335 146.729 48.4335ZM146.78 48.036C147.022 48.036 147.229 47.9701 147.399 47.8384C147.57 47.7051 147.7 47.5221 147.79 47.2896C147.881 47.0554 147.926 46.7871 147.926 46.4847C147.926 46.1855 147.881 45.9213 147.792 45.692C147.703 45.4611 147.573 45.2806 147.402 45.1505C147.231 45.0188 147.024 44.953 146.78 44.953C146.529 44.953 146.318 45.0213 146.146 45.1578C145.975 45.2928 145.845 45.4757 145.755 45.7066C145.668 45.9375 145.624 46.1969 145.624 46.4847C145.624 46.7758 145.668 47.0384 145.758 47.2725C145.847 47.5067 145.977 47.6929 146.148 47.8311C146.32 47.9677 146.531 48.036 146.78 48.036Z" fill="black"/>
<rect x="14" y="6" width="45" height="45" rx="15.3409" fill="url(#paint0_linear_4104_9467)"/>
<ellipse cx="36.5" cy="26.2148" rx="17.5781" ry="16.3477" fill="url(#paint1_linear_4104_9467)"/>
<ellipse cx="36.5" cy="26.3906" rx="15.8203" ry="14.4141" fill="url(#paint2_linear_4104_9467)" fill-opacity="0.8"/>
<g filter="url(#filter0_d_4104_9467)">
<path d="M30.7729 43.6954C25.8393 43.6954 21.8398 39.6959 21.8398 34.7623V24.4467C21.8398 19.5131 25.8393 15.5137 30.7729 15.5137H42.152C47.0856 15.5137 51.085 19.5132 51.085 24.4468V34.7623C51.085 39.6959 47.0856 43.6954 42.152 43.6954H30.7729Z" fill="#D9D9D9"/>
<path d="M30.7729 43.6954C25.8393 43.6954 21.8398 39.6959 21.8398 34.7623V24.4467C21.8398 19.5131 25.8393 15.5137 30.7729 15.5137H42.152C47.0856 15.5137 51.085 19.5132 51.085 24.4468V34.7623C51.085 39.6959 47.0856 43.6954 42.152 43.6954H30.7729Z" fill="url(#paint3_linear_4104_9467)"/>
</g>
<path fill-rule="evenodd" clip-rule="evenodd" d="M29.8405 17.0116C29.5094 17.059 29.2623 17.1032 29.2158 17.1232C29.19 17.1344 29.1338 17.1491 29.0909 17.1559C28.93 17.1815 28.2127 17.4204 27.9821 17.5251C27.319 17.8262 27.201 17.8929 26.5916 18.3112C26.4235 18.4266 26.0285 18.7853 25.6392 19.176C25.4011 19.415 25.2893 19.5382 25.0991 19.7712C24.9505 19.9531 24.5091 20.6512 24.3889 20.8941C24.3635 20.9456 24.3297 21.0088 24.314 21.0346C24.2899 21.074 24.2193 21.2258 24.0603 21.5807C24.0312 21.6455 23.8572 22.2022 23.7726 22.5012C23.7458 22.5956 23.7148 22.7361 23.7037 22.8133C23.6925 22.8905 23.6705 22.9958 23.6548 23.0473C23.6391 23.0988 23.6052 23.4569 23.5795 23.8431C23.5408 24.423 23.535 25.1781 23.5459 28.1807C23.5626 32.7807 23.5929 35.6906 23.6267 35.9508C23.6863 36.4096 23.7872 36.8857 23.8739 37.1179C23.8874 37.1539 23.9226 37.2607 23.9521 37.3551C24.0825 37.7726 24.3262 38.3122 24.5581 38.6969C24.5943 38.757 24.6378 38.8378 24.6548 38.8764C24.6717 38.915 24.6985 38.9466 24.7142 38.9466C24.73 38.9466 24.7509 38.9782 24.7608 39.0168C24.7708 39.0554 24.8111 39.1221 24.8504 39.165C24.8898 39.2079 24.9466 39.2813 24.9766 39.3282C25.0066 39.375 25.1251 39.5224 25.2399 39.6558C26.0177 40.5597 26.9716 41.2557 27.9736 41.6503C28.1329 41.713 28.2766 41.7763 28.2929 41.7909C28.3092 41.8055 28.3558 41.8175 28.3965 41.8175C28.4371 41.8175 28.5001 41.8334 28.5364 41.8528C28.5728 41.8723 28.6808 41.9081 28.7764 41.9325C28.8721 41.9568 29.0347 41.9982 29.1377 42.0243C29.2408 42.0505 29.4376 42.0855 29.575 42.1021C29.7124 42.1187 29.8712 42.1448 29.9278 42.16C30.0442 42.1914 35.7581 42.1876 35.7896 42.1562C35.8007 42.1451 35.8166 41.0497 35.8249 39.7221C35.8332 38.3945 35.8532 37.1462 35.8694 36.948C35.9376 36.1118 36.2481 35.4315 36.8052 34.8977C36.9677 34.7421 37.5752 34.3281 37.6412 34.3281C37.6656 34.3281 37.723 34.309 37.7686 34.2857C38.1195 34.1058 38.4287 34.0805 40.272 34.0805C41.8784 34.0805 42.3708 34.1065 42.5468 34.2006C42.5818 34.2192 42.6306 34.2345 42.6553 34.2345C42.7516 34.2345 43.3971 34.5726 43.4889 34.6711C43.4975 34.6803 43.5778 34.7482 43.6674 34.822C43.8335 34.9589 44.1448 35.325 44.1448 35.3835C44.1448 35.4013 44.1624 35.4347 44.1838 35.4576C44.2282 35.505 44.3027 35.6583 44.3705 35.8416C44.5046 36.2044 44.5295 36.3261 44.544 36.692C44.5524 36.9022 44.5697 37.0742 44.5825 37.0742C44.6336 37.0742 44.7921 36.8792 44.8921 36.6933L44.9978 36.4969L45.0249 35.6232C45.0399 35.1426 45.0482 32.0874 45.0435 28.8338L45.0349 22.9181L44.9412 22.7361C44.8897 22.636 44.7935 22.5107 44.7275 22.4575C44.6096 22.3625 44.5999 22.3605 44.1654 22.3404C43.9221 22.3292 43.6633 22.3029 43.5901 22.2819C43.1062 22.1434 42.9302 21.448 43.2965 21.122C43.3483 21.0759 43.4501 21.0079 43.5227 20.9708C43.6461 20.908 43.6881 20.9045 44.1574 20.9183C44.6975 20.9341 44.7586 20.9479 45.1598 21.1438C45.4199 21.2708 45.6746 21.4762 45.8782 21.7233C46.1195 22.0161 46.3115 22.4558 46.3609 22.8289C46.407 23.1761 46.4093 36.3857 46.3634 36.6374C46.2894 37.0424 46.1565 37.3484 45.9212 37.6553C45.6955 37.9498 45.3478 38.2325 45.1546 38.2787C45.106 38.2904 45.0464 38.3155 45.0223 38.3346C44.9914 38.3591 44.338 38.3719 42.7947 38.3781L40.6108 38.3869L40.4649 38.3161C40.2016 38.1884 40.0835 38.0083 40.086 37.7384C40.0893 37.3791 40.3081 37.1042 40.6491 37.0307C40.6934 37.0212 41.1782 37.0105 41.7266 37.007C42.2751 37.0035 42.8326 36.995 42.9658 36.9881L43.2078 36.9757L43.2065 36.8455C43.202 36.4127 42.9727 35.9968 42.5895 35.7264C42.4744 35.6451 42.3584 35.5781 42.3318 35.5775C42.3052 35.5769 42.2694 35.5625 42.2524 35.5454C42.1604 35.4535 41.89 35.4388 40.2876 35.4382L40.1593 35.4382C38.8848 35.4377 38.6122 35.4376 38.376 35.5302C38.3117 35.5555 38.2502 35.5876 38.1718 35.6284L38.1579 35.6357L38.1428 35.6435C37.8066 35.8183 37.539 36.0858 37.3853 36.4008L37.3776 36.4164L37.3707 36.4306C37.3675 36.437 37.3644 36.4433 37.3614 36.4494L37.3565 36.4594C37.3256 36.5219 37.2996 36.5745 37.278 36.6285C37.1677 36.9036 37.1668 37.2225 37.1613 39.1641L37.161 39.281L37.1607 39.3783L37.1603 39.5193C37.1558 41.0118 37.1646 42.0734 37.1817 42.1184L37.2106 42.1944L40.2327 42.1814C43.4107 42.1677 43.4353 42.1667 44.0043 42.0231C44.1073 41.9971 44.2745 41.955 44.3757 41.9296C44.4769 41.9042 44.5746 41.8686 44.5928 41.8505C44.6109 41.8323 44.6493 41.8175 44.678 41.8175C44.7411 41.8175 44.9384 41.7352 45.3195 41.5501C45.476 41.474 45.6152 41.4118 45.6289 41.4118C45.6425 41.4118 45.6997 41.3767 45.756 41.3338C45.8124 41.2909 45.8713 41.2558 45.887 41.2558C45.9028 41.2558 45.9739 41.2137 46.045 41.1622C46.1161 41.1107 46.1818 41.0686 46.1909 41.0686C46.2525 41.0686 46.9886 40.4489 47.2637 40.1654C47.6332 39.7847 48.0801 39.2369 48.0801 39.1647C48.0801 39.1477 48.0919 39.1338 48.1063 39.1338C48.1207 39.1338 48.149 39.1022 48.1691 39.0636C48.1892 39.025 48.2301 38.9558 48.26 38.9097C48.4942 38.549 48.742 38.0726 48.89 37.6984C48.9274 37.604 48.9701 37.4986 48.9851 37.4643C49.0309 37.3591 49.142 36.9732 49.142 36.9192C49.142 36.8912 49.1544 36.855 49.1697 36.8386C49.2395 36.7642 49.3542 35.9325 49.3783 35.3267C49.4108 34.5098 49.421 24.8209 49.39 24.1395C49.3552 23.3727 49.2715 22.713 49.1743 22.4388C49.159 22.3959 49.1162 22.2555 49.0791 22.1268C49.042 21.998 48.9917 21.8485 48.9675 21.7944C48.9432 21.7403 48.9233 21.6818 48.9233 21.6643C48.9233 21.6468 48.9031 21.5928 48.8784 21.5442C48.8537 21.4956 48.81 21.3997 48.7813 21.331C48.6867 21.105 48.5979 20.928 48.4827 20.7363C48.4203 20.6323 48.3594 20.5165 48.3474 20.4788C48.3355 20.4412 48.3151 20.4104 48.3021 20.4104C48.2891 20.4104 48.2474 20.3483 48.2095 20.2723C48.1715 20.1963 48.1303 20.1296 48.118 20.124C48.1057 20.1185 48.0472 20.0438 47.9879 19.958C47.7963 19.6805 47.5227 19.3609 47.1886 19.0242C47.0356 18.87 46.6304 18.5098 46.5383 18.446C46.4674 18.397 46.4519 18.385 46.3341 18.2879C46.2928 18.2539 46.2416 18.2261 46.2203 18.2261C46.199 18.2261 46.1735 18.205 46.1636 18.1792C46.1537 18.1535 46.1253 18.1324 46.1004 18.1324C46.0755 18.1324 46.0505 18.1212 46.0448 18.1074C46.0329 18.0789 45.6633 17.8516 45.6288 17.8516C45.6163 17.8516 45.5469 17.8116 45.4745 17.7628C45.2535 17.6138 44.392 17.2668 43.9886 17.1643C43.7697 17.1086 43.4024 17.0414 43.1454 17.0099C42.8588 16.9748 30.0862 16.9764 29.8405 17.0116ZM32.1267 20.402C32.149 20.3809 32.2164 20.34 32.2766 20.311C32.5235 20.1922 32.8899 20.2561 33.1055 20.4557C33.2688 20.6069 33.4009 20.9556 33.4009 21.2353C33.401 21.4423 33.5066 22.0728 33.5713 22.2516C33.6545 22.4815 33.7236 22.6261 33.7505 22.6261C33.7644 22.6261 33.7757 22.6407 33.7757 22.6585C33.7757 22.718 33.9134 22.8887 34.1523 23.1257C34.3214 23.2934 34.4549 23.3926 34.621 23.4741C34.8427 23.5829 34.9757 23.6212 35.5403 23.7382C35.8268 23.7976 35.9397 23.8565 36.0701 24.0146C36.2843 24.2743 36.3287 24.5928 36.1893 24.8682C36.0425 25.1581 35.8342 25.2832 35.3217 25.3891C35.1843 25.4175 35.0257 25.4604 34.9693 25.4845C34.9129 25.5085 34.8481 25.5282 34.8253 25.5282C34.7644 25.5282 34.4351 25.7086 34.2911 25.8209C34.0653 25.997 33.682 26.4609 33.682 26.5581C33.682 26.5724 33.6623 26.6239 33.6383 26.6725C33.6142 26.721 33.579 26.8111 33.5601 26.8727C33.5087 27.039 33.401 27.6457 33.4002 27.7732C33.3993 27.9054 33.2979 28.3009 33.2393 28.4002C33.0335 28.7496 32.5546 28.9104 32.2292 28.7393C31.9436 28.5892 31.7866 28.317 31.7449 27.8998C31.6579 27.0296 31.5652 26.7128 31.2727 26.2854C31.1525 26.1096 30.8589 25.8193 30.7744 25.7925C30.7417 25.7821 30.715 25.7605 30.715 25.7445C30.715 25.7285 30.6985 25.7154 30.6784 25.7154C30.6583 25.7154 30.6196 25.6962 30.5925 25.6727C30.4644 25.5617 30.045 25.4319 29.5136 25.3389C29.4111 25.3209 29.3127 25.2949 29.295 25.2811C29.2772 25.2672 29.2275 25.2474 29.1846 25.237C29.0731 25.21 28.9466 25.0814 28.8564 24.9036C28.7547 24.7031 28.747 24.3682 28.84 24.1929C29.0033 23.8849 29.093 23.8406 29.9654 23.6369C30.0942 23.6068 30.3318 23.5197 30.4934 23.4433C30.7282 23.3322 30.8318 23.2597 31.0103 23.0822C31.2472 22.8464 31.4165 22.6065 31.5084 22.3764C31.5393 22.2992 31.5845 22.1892 31.609 22.1319C31.6334 22.0747 31.6748 21.829 31.701 21.5858C31.7271 21.3427 31.7628 21.0704 31.7803 20.9807C31.8168 20.7941 31.9422 20.5409 32.0279 20.481C32.0599 20.4586 32.1043 20.423 32.1267 20.402ZM27.0064 21.7991C27.269 21.4113 27.5241 21.2249 28.0914 21.0059C28.3122 20.9208 28.3538 20.9154 28.8132 20.9126C29.289 20.9098 29.3037 20.9117 29.4223 20.9911C29.5555 21.0802 29.6814 21.2167 29.6832 21.2738C29.6838 21.2938 29.7019 21.3161 29.7233 21.3232C29.7508 21.3324 29.7621 21.419 29.7615 21.6145C29.7606 21.9167 29.7295 21.9972 29.5482 22.1649C29.4209 22.2827 29.3212 22.3061 28.8672 22.3248C28.2893 22.3486 28.1423 22.43 28.0068 22.8008C27.9537 22.946 27.9509 23.2957 27.9516 29.7097C27.9516 30.0417 27.9516 30.3577 27.9516 30.6585V30.6692C27.9519 36.3649 27.9519 36.6028 28.0662 36.7551C28.0712 36.7618 28.0764 36.7682 28.0818 36.775C28.0884 36.7833 28.0954 36.7919 28.1028 36.8019C28.1876 36.9166 28.3539 37.0118 28.4697 37.0118C28.5804 37.0118 28.8192 37.1148 28.9033 37.1988C29.1507 37.446 29.1243 37.9258 28.85 38.1693C28.7323 38.2738 28.4955 38.3537 28.3031 38.3537C28.0988 38.3537 27.7588 38.2662 27.6158 38.1768C27.5517 38.1368 27.4908 38.104 27.4805 38.104C27.4541 38.104 27.1776 37.8798 27.1342 37.8232C27.1145 37.7974 27.0618 37.7342 27.0171 37.6827C26.9725 37.6313 26.9359 37.5716 26.9359 37.5501C26.9359 37.5287 26.925 37.5111 26.9117 37.5111C26.8665 37.5111 26.6924 37.1289 26.6204 36.8714C26.5836 36.7399 26.5767 35.6247 26.5767 29.7877C26.5767 23.0937 26.5787 22.8518 26.6359 22.6144C26.7037 22.3332 26.8239 22.0686 27.0064 21.7991ZM39.88 22.1334C40.0696 21.9012 40.2094 21.7972 40.3886 21.755C40.5623 21.7142 40.6187 21.7161 40.7978 21.7693C41.1318 21.8683 41.3422 22.2006 41.3798 22.6885C41.4546 23.6561 41.6244 24.1082 42.0848 24.5656C42.4553 24.9336 42.6993 25.0403 43.4733 25.1727C43.8317 25.234 43.992 25.3034 44.1271 25.4559C44.4027 25.767 44.3964 26.2157 44.1118 26.5396C43.983 26.6861 43.8493 26.7514 43.5358 26.821C43.0867 26.9205 42.9131 26.9657 42.7862 27.016C42.5876 27.0948 42.3958 27.1955 42.3958 27.221C42.3958 27.2339 42.3797 27.2445 42.36 27.2445C42.3288 27.2445 42.0961 27.4178 42.0047 27.5091C41.8319 27.6818 41.5525 28.157 41.5525 28.2783C41.5525 28.3035 41.5396 28.3376 41.5238 28.3538C41.4859 28.393 41.4054 28.8773 41.3815 29.2104C41.3505 29.6423 41.2528 29.8935 41.0378 30.0941C40.7922 30.3232 40.4898 30.3662 40.2252 30.2096C40.0414 30.1009 39.9285 30.0081 39.9285 29.966C39.9285 29.9494 39.9088 29.9195 39.8848 29.8996C39.8608 29.8797 39.8182 29.7933 39.7901 29.7075C39.7437 29.5655 39.7226 29.4442 39.6632 28.9764C39.6161 28.6058 39.5993 28.6017 39.3076 28.8906C39.1906 29.0064 38.8591 29.3259 38.5709 29.6005C38.2827 29.8751 37.8203 30.3192 37.5432 30.5874C37.2662 30.8556 36.9001 31.2067 36.7298 31.3676C36.3643 31.7128 36.291 31.7836 35.1819 32.8615C34.174 33.8409 33.9816 34.0272 33.1871 34.7919C32.8548 35.1118 32.3168 35.6368 31.9914 35.9586C31.6662 36.2805 31.3874 36.5437 31.372 36.5437C31.3567 36.5437 31.3255 36.5618 31.3028 36.5839C31.2801 36.606 31.1912 36.6517 31.1054 36.6854C30.8993 36.7661 30.4034 36.7689 30.2621 36.69C30.2106 36.6613 30.1564 36.6377 30.1417 36.6375C30.0857 36.6371 29.7739 36.3708 29.7368 36.2917C29.7253 36.2673 29.7038 36.2262 29.6891 36.2005C29.5622 35.9794 29.5437 35.9018 29.5437 35.5906L29.5437 35.5624C29.5436 35.4545 29.5435 35.37 29.5589 35.2884C29.6144 34.9948 29.8709 34.739 31.0509 33.5623L31.1366 33.4769C31.8924 32.7231 32.882 31.7461 33.3357 31.3059C33.7894 30.8656 34.6327 30.0392 35.2096 29.4693C37.365 27.3405 37.5596 27.1509 37.5881 27.1509C37.6041 27.1509 37.6173 27.1402 37.6173 27.1271C37.6173 27.1141 37.6536 27.0642 37.6981 27.0163C37.792 26.9152 37.7779 26.8388 37.6656 26.8388C37.555 26.8388 37.3094 26.7788 37.18 26.7201C36.901 26.5936 36.7424 26.3339 36.7435 26.0051C36.7445 25.6881 36.8641 25.4676 37.1258 25.3004C37.2136 25.2444 37.2661 25.231 37.8203 25.123C38.3474 25.0204 38.4898 24.9726 38.7324 24.817C38.8992 24.7099 39.2885 24.3156 39.3389 24.2027C39.3544 24.168 39.395 24.0933 39.4293 24.0367C39.5723 23.8004 39.6953 23.3021 39.7232 22.8462C39.7411 22.5545 39.8166 22.211 39.88 22.1334ZM32.4539 22.2516C32.4795 22.14 32.5077 21.9268 32.5165 21.7778C32.5292 21.5625 32.5414 21.5104 32.5763 21.5237C32.6091 21.5363 32.6201 21.6062 32.6201 21.8005C32.6201 22.446 32.9262 23.2107 33.3761 23.6894C33.7604 24.0982 34.1304 24.2996 34.8688 24.5021C34.9677 24.5292 34.9908 24.5446 34.9469 24.5541C34.9126 24.5615 34.8704 24.5784 34.8532 24.5918C34.836 24.6051 34.7728 24.6257 34.7127 24.6376C34.4422 24.691 34.009 24.8826 33.7628 25.0578C33.5837 25.1852 33.3454 25.4173 33.2422 25.565C33.2024 25.622 33.1515 25.6798 33.1292 25.6936C33.1069 25.7073 33.0886 25.7377 33.0886 25.7612C33.0886 25.7846 33.0763 25.8085 33.0613 25.8142C33.0215 25.8294 32.8502 26.1802 32.7795 26.3916C32.6693 26.7209 32.6271 26.9135 32.6093 27.1679C32.5835 27.5375 32.5458 27.5916 32.5234 27.2913C32.5003 26.9827 32.4417 26.6676 32.3833 26.5376C32.3589 26.4836 32.339 26.4256 32.339 26.4089C32.339 26.3357 32.1637 25.9915 32.0091 25.7612C31.8576 25.5355 31.4755 25.1225 31.4181 25.1225C31.4057 25.1225 31.3442 25.0835 31.2816 25.0357C31.219 24.9881 31.0975 24.917 31.0117 24.8778C30.9258 24.8386 30.8311 24.7934 30.8013 24.7773C30.7715 24.7612 30.7223 24.7479 30.692 24.7478C30.6617 24.7477 30.5996 24.7282 30.554 24.7044C30.5084 24.6807 30.3819 24.6511 30.2729 24.6388C29.9429 24.6013 29.9253 24.5371 30.2309 24.4856C30.4531 24.4481 30.996 24.2563 30.996 24.2152C30.996 24.203 31.0346 24.1834 31.0816 24.1716C31.1287 24.1598 31.1743 24.1407 31.1831 24.1292C31.1919 24.1176 31.2595 24.0672 31.3334 24.0171C31.4983 23.9053 31.793 23.6209 31.9179 23.453C31.969 23.3844 32.0191 23.3212 32.0294 23.3126C32.0495 23.2958 32.2694 22.8385 32.307 22.7353C32.3876 22.5138 32.4122 22.4327 32.4539 22.2516ZM40.547 23.0005C40.5355 23.0434 40.5172 23.1979 40.5062 23.3438C40.477 23.7334 40.3994 24.054 40.2521 24.3939C40.2287 24.448 40.2095 24.5077 40.2095 24.5265C40.2095 24.5454 40.1969 24.5608 40.1814 24.5608C40.1659 24.5608 40.1372 24.5994 40.1177 24.6466C40.0981 24.6938 40.0596 24.7746 40.0321 24.8261C39.9719 24.939 39.4445 25.4689 39.3307 25.5309C39.2862 25.5551 39.1808 25.6122 39.0966 25.6576C39.0124 25.7031 38.8033 25.785 38.6318 25.8395C38.4603 25.8941 38.2956 25.9517 38.2658 25.9675C38.2359 25.9833 38.1832 25.9963 38.1487 25.9963C38.1136 25.9963 38.0858 26.0169 38.0858 26.0431C38.0858 26.0762 38.1194 26.0899 38.2008 26.0899C38.3274 26.0899 38.6333 26.1643 38.8041 26.2366C39.0687 26.3487 39.3345 26.4979 39.3349 26.5346C39.335 26.5474 39.3554 26.558 39.3803 26.558C39.4053 26.558 39.4369 26.5759 39.4506 26.5978C39.4643 26.6197 39.5356 26.6843 39.6088 26.7413C39.8938 26.9629 40.1864 27.4411 40.3462 27.9466C40.405 28.1323 40.4901 28.5713 40.492 28.6987C40.4928 28.7484 40.5127 28.8313 40.5364 28.8828C40.579 28.9757 40.5793 28.9751 40.5818 28.8017C40.5844 28.621 40.6641 28.1995 40.7525 27.8994C40.8021 27.7307 41.0425 27.231 41.1219 27.1316C41.194 27.0413 41.597 26.637 41.6917 26.5599C41.9206 26.3736 42.5959 26.0921 42.8223 26.0885C42.8712 26.0877 42.9533 26.0678 43.0048 26.0442L43.0985 26.0013L42.9989 25.9988C42.9441 25.9974 42.8915 25.9838 42.8821 25.9686C42.8727 25.9534 42.8121 25.9311 42.7475 25.9192C42.6052 25.8928 42.2759 25.7886 42.201 25.7461C42.1712 25.7292 42.1311 25.7154 42.1119 25.7154C42.0926 25.7154 42.0145 25.6733 41.9381 25.6218C41.8617 25.5703 41.7876 25.5282 41.7734 25.5282C41.7592 25.5282 41.6507 25.4386 41.5323 25.3291C41.2261 25.0458 40.9581 24.6678 40.8472 24.3629C40.6907 23.9324 40.6146 23.5925 40.5875 23.2034C40.5748 23.021 40.5607 22.9499 40.547 23.0005ZM37.6557 28.062C37.9867 27.7367 38.3208 27.4075 38.3981 27.3305C38.4754 27.2534 38.5683 27.1885 38.6045 27.1862C38.6738 27.1819 38.87 27.3002 38.9759 27.4102C39.1136 27.5533 39.2745 27.7925 39.266 27.8415C39.261 27.8701 38.9215 28.234 38.5116 28.6503L37.7662 29.4071L37.6464 29.2854C37.5805 29.2184 37.526 29.147 37.5251 29.1267C37.5243 29.1064 37.4967 29.0813 37.4638 29.0709C37.431 29.0605 37.3253 28.9623 37.229 28.8527L37.054 28.6535L37.6557 28.062Z" fill="white"/>
<path d="M36.3524 29.494C36.3352 29.5109 36.0532 29.7876 35.7256 30.1088C35.3981 30.4299 34.2808 31.5305 33.2427 32.5546C32.2046 33.5785 31.2623 34.5053 31.1488 34.6141C31.0352 34.7229 30.828 34.9211 30.6881 35.0547C30.4398 35.2919 30.4339 35.301 30.4339 35.4456C30.4339 35.5659 30.4511 35.6125 30.5258 35.6942C30.6065 35.7825 30.6373 35.7948 30.7777 35.7948C30.9036 35.7948 30.9623 35.7765 31.0528 35.709C31.1681 35.6231 31.6271 35.1829 32.5743 34.2501C33.5497 33.2897 35.0891 31.7985 35.6025 31.3168C35.7854 31.1452 36.0022 30.9416 36.0841 30.8643C36.166 30.7871 36.3969 30.5716 36.5972 30.3854C36.7975 30.1992 36.9614 30.0328 36.9614 30.0156C36.9614 29.9792 36.4407 29.4593 36.4066 29.4616C36.3939 29.4625 36.3695 29.4771 36.3524 29.494Z" fill="#1CAEFF"/>
<path fill-rule="evenodd" clip-rule="evenodd" d="M34.654 18.3682C34.6649 18.3212 34.6769 18.2314 34.6806 18.1686C34.6861 18.0779 34.6913 18.0559 34.7061 18.0615C34.7201 18.0668 34.7248 18.0963 34.7248 18.1781C34.7248 18.4501 34.8551 18.7723 35.0468 18.9739C35.2105 19.1462 35.368 19.2311 35.6825 19.3164C35.7246 19.3278 35.7345 19.3343 35.7158 19.3383C35.7012 19.3414 35.6832 19.3485 35.6759 19.3541C35.6686 19.3598 35.6416 19.3684 35.616 19.3735C35.5009 19.3959 35.3163 19.4767 35.2115 19.5505C35.1352 19.6041 35.0337 19.7019 34.9898 19.7642C34.9728 19.7882 34.9511 19.8126 34.9416 19.8183C34.9321 19.8241 34.9243 19.8369 34.9243 19.8468C34.9243 19.8567 34.9191 19.8668 34.9127 19.8692C34.8957 19.8756 34.8228 20.0234 34.7927 20.1124C34.7458 20.2512 34.7278 20.3323 34.7202 20.4395C34.7092 20.5952 34.6931 20.618 34.6836 20.4915C34.6737 20.3615 34.6488 20.2287 34.6239 20.174C34.6135 20.1512 34.6051 20.1268 34.6051 20.1197C34.6051 20.0889 34.5304 19.9438 34.4645 19.8468C34.4 19.7518 34.2373 19.5777 34.2128 19.5777C34.2075 19.5777 34.1814 19.5613 34.1547 19.5412C34.128 19.5211 34.0763 19.4911 34.0397 19.4746C34.0031 19.4581 33.9628 19.4391 33.9501 19.4323C33.9374 19.4255 33.9165 19.4199 33.9036 19.4199C33.8907 19.4198 33.8642 19.4116 33.8448 19.4016C33.8254 19.3916 33.7715 19.3792 33.7251 19.3739C33.5845 19.3582 33.577 19.3311 33.7072 19.3094C33.8018 19.2936 34.0331 19.2128 34.0331 19.1955C34.0331 19.1904 34.0495 19.1821 34.0695 19.1771C34.0896 19.1722 34.109 19.1641 34.1127 19.1592C34.1165 19.1544 34.1453 19.1331 34.1767 19.112C34.247 19.0649 34.3725 18.9451 34.4257 18.8744C34.4474 18.8454 34.4688 18.8188 34.4732 18.8152C34.4818 18.8081 34.5754 18.6155 34.5914 18.572C34.6258 18.4787 34.6362 18.4445 34.654 18.3682Z" fill="#2BB8FF"/>
<path fill-rule="evenodd" clip-rule="evenodd" d="M37.9124 19.1309C37.929 19.0594 37.9473 18.9229 37.953 18.8275C37.9613 18.6896 37.9692 18.6562 37.9919 18.6648C38.0131 18.6728 38.0203 18.7176 38.0203 18.842C38.0203 19.2554 38.2189 19.7451 38.5109 20.0516C38.7604 20.3135 39.0005 20.4424 39.4797 20.5721C39.5439 20.5895 39.5589 20.5993 39.5304 20.6054C39.5081 20.6101 39.4808 20.621 39.4696 20.6295C39.4585 20.6381 39.4174 20.6513 39.3784 20.6589C39.2029 20.6931 38.9217 20.8158 38.7619 20.9279C38.6457 21.0095 38.491 21.1582 38.4241 21.2528C38.3982 21.2893 38.3652 21.3263 38.3507 21.3351C38.3362 21.3439 38.3244 21.3634 38.3244 21.3784C38.3244 21.3934 38.3164 21.4087 38.3066 21.4124C38.2808 21.4221 38.1697 21.6468 38.1238 21.7821C38.0522 21.993 38.0248 22.1163 38.0133 22.2793C37.9966 22.516 37.9721 22.5506 37.9575 22.3583C37.9425 22.1606 37.9045 21.9589 37.8666 21.8757C37.8508 21.841 37.8379 21.8039 37.8379 21.7932C37.8379 21.7463 37.7241 21.5259 37.6237 21.3784C37.5254 21.2339 37.2774 20.9694 37.2402 20.9694C37.2321 20.9694 37.1922 20.9444 37.1516 20.9138C37.111 20.8833 37.0321 20.8378 36.9764 20.8127C36.9206 20.7876 36.8592 20.7586 36.8399 20.7483C36.8205 20.738 36.7886 20.7295 36.7689 20.7295C36.7492 20.7294 36.7089 20.7169 36.6794 20.7017C36.6498 20.6865 36.5677 20.6675 36.4969 20.6596C36.2828 20.6357 36.2713 20.5945 36.4696 20.5615C36.6139 20.5375 36.9663 20.4147 36.9663 20.3884C36.9663 20.3806 36.9912 20.368 37.0218 20.3605C37.0523 20.3529 37.082 20.3407 37.0877 20.3333C37.0934 20.3259 37.1372 20.2936 37.1852 20.2615C37.2922 20.1899 37.4835 20.0078 37.5645 19.9003C37.5977 19.8563 37.6303 19.8158 37.6369 19.8103C37.65 19.7996 37.7927 19.5067 37.8171 19.4406C37.8694 19.2988 37.8854 19.2469 37.9124 19.1309Z" fill="#2BB8FF"/>
<path fill-rule="evenodd" clip-rule="evenodd" d="M33.5274 37.7799C33.5274 38.1339 33.2404 38.4209 32.8864 38.4209H30.6429C30.2889 38.4209 30.0019 38.1339 30.0019 37.7799C30.0019 37.4259 30.2889 37.1389 30.6429 37.1389H32.8864C33.2404 37.1389 33.5274 37.4259 33.5274 37.7799Z" fill="#8CBAF1"/>
</g>
<rect x="0.697368" y="0.572368" width="164.079" height="56.8553" stroke="#ECEDEF" stroke-width="1.14474"/>
<defs>
<filter id="filter0_d_4104_9467" x="20.1875" y="15.2676" width="32.5508" height="31.4863" filterUnits="userSpaceOnUse" color-interpolation-filters="sRGB">
<feFlood flood-opacity="0" result="BackgroundImageFix"/>
<feColorMatrix in="SourceAlpha" type="matrix" values="0 0 0 0 0 0 0 0 0 0 0 0 0 0 0 0 0 0 127 0" result="hardAlpha"/>
<feOffset dy="1.40625"/>
<feGaussianBlur stdDeviation="0.826172"/>
<feComposite in2="hardAlpha" operator="out"/>
<feColorMatrix type="matrix" values="0 0 0 0 0.00392157 0 0 0 0 0.0901961 0 0 0 0 0.231373 0 0 0 0.5 0"/>
<feBlend mode="normal" in2="BackgroundImageFix" result="effect1_dropShadow_4104_9467"/>
<feBlend mode="normal" in="SourceGraphic" in2="effect1_dropShadow_4104_9467" result="shape"/>
</filter>
<linearGradient id="paint0_linear_4104_9467" x1="36.5" y1="6" x2="36.5" y2="51" gradientUnits="userSpaceOnUse">
<stop stop-color="#6CCCFB"/>
<stop offset="1" stop-color="#3B6CF2"/>
</linearGradient>
<linearGradient id="paint1_linear_4104_9467" x1="36.5" y1="9.86719" x2="36.5" y2="42.5625" gradientUnits="userSpaceOnUse">
<stop stop-color="#6CCCFB" stop-opacity="0.2"/>
<stop offset="1" stop-color="#8EEBFD" stop-opacity="0.5"/>
</linearGradient>
<linearGradient id="paint2_linear_4104_9467" x1="36.5" y1="11.9766" x2="36.5" y2="40.8047" gradientUnits="userSpaceOnUse">
<stop stop-color="#8DEAFC"/>
<stop offset="1" stop-color="#8EEBFD" stop-opacity="0.5"/>
</linearGradient>
<linearGradient id="paint3_linear_4104_9467" x1="36.4624" y1="15.5137" x2="36.4624" y2="43.6954" gradientUnits="userSpaceOnUse">
<stop stop-color="#1B4680"/>
<stop offset="1" stop-color="#001539"/>
</linearGradient>
<clipPath id="clip0_4104_9467">
<rect x="0.125" width="165.224" height="58" fill="white"/>
</clipPath>
</defs>
</svg>
