<svg width="128" height="128" viewBox="0 0 128 128" fill="none" xmlns="http://www.w3.org/2000/svg">
<rect width="128" height="128" rx="64" fill="url(#paint0_linear_3755_14591)"/>
<ellipse cx="64" cy="57.5" rx="50" ry="46.5" fill="url(#paint1_linear_3755_14591)"/>
<ellipse cx="64" cy="58" rx="45" ry="41" fill="url(#paint2_linear_3755_14591)" fill-opacity="0.8"/>
<g filter="url(#filter0_d_3755_14591)">
<path d="M47.7085 107.222C33.6751 107.222 22.2988 95.8456 22.2988 81.8123V52.4702C22.2988 38.4368 33.6751 27.0605 47.7085 27.0605H80.0755C94.1089 27.0605 105.485 38.4368 105.485 52.4702V81.8123C105.485 95.8456 94.1089 107.222 80.0755 107.222H47.7085Z" fill="#D9D9D9"/>
<path d="M47.7085 107.222C33.6751 107.222 22.2988 95.8456 22.2988 81.8123V52.4702C22.2988 38.4368 33.6751 27.0605 47.7085 27.0605H80.0755C94.1089 27.0605 105.485 38.4368 105.485 52.4702V81.8123C105.485 95.8456 94.1089 107.222 80.0755 107.222H47.7085Z" fill="url(#paint3_linear_3755_14591)"/>
</g>
<path fill-rule="evenodd" clip-rule="evenodd" d="M45.0561 31.3216C44.1144 31.4565 43.4114 31.5821 43.2793 31.6391C43.206 31.6708 43.0461 31.7126 42.924 31.732C42.4664 31.8049 40.4259 32.4843 39.7702 32.7821C37.8841 33.6387 37.5484 33.8285 35.8149 35.0182C35.3367 35.3463 34.2131 36.3667 33.1058 37.4781C32.4286 38.1579 32.1106 38.5083 31.5696 39.171C31.1469 39.6886 29.8912 41.6743 29.5496 42.3652C29.4771 42.5117 29.3812 42.6914 29.3364 42.7647C29.2678 42.8769 29.0672 43.3087 28.6148 44.318C28.5321 44.5025 28.0372 46.0861 27.7963 46.9365C27.7203 47.205 27.6322 47.6045 27.6004 47.8242C27.5685 48.0438 27.506 48.3434 27.4613 48.4899C27.4167 48.6363 27.3203 49.6549 27.2471 50.7533C27.1371 52.4028 27.1205 54.5507 27.1515 63.0913C27.1992 76.1758 27.2852 84.453 27.3814 85.1932C27.5509 86.498 27.8378 87.8523 28.0847 88.5128C28.1231 88.6153 28.2231 88.919 28.307 89.1875C28.678 90.375 29.3712 91.9099 30.0307 93.0043C30.1337 93.1752 30.2574 93.4049 30.3057 93.5147C30.3539 93.6245 30.43 93.7144 30.4748 93.7144C30.5196 93.7144 30.5793 93.8043 30.6074 93.9141C30.6357 94.0239 30.7503 94.2137 30.8622 94.3357C30.9742 94.4578 31.1357 94.6666 31.2211 94.7998C31.3066 94.9329 31.6436 95.3523 31.9701 95.7318C34.1824 98.3029 36.8959 100.283 39.746 101.405C40.199 101.583 40.6078 101.763 40.6542 101.805C40.7006 101.847 40.8332 101.881 40.9487 101.881C41.0643 101.881 41.2435 101.926 41.3468 101.981C41.4502 102.036 41.7574 102.138 42.0296 102.208C42.3016 102.277 42.7641 102.394 43.0572 102.469C43.3504 102.543 43.9101 102.643 44.301 102.69C44.6919 102.737 45.1435 102.811 45.3047 102.855C45.6357 102.944 61.8885 102.933 61.9781 102.844C62.0096 102.812 62.0549 99.6967 62.0785 95.9204C62.1021 92.1441 62.1591 88.5932 62.2051 88.0296C62.3991 85.6509 63.2823 83.7159 64.867 82.1976C65.3291 81.755 67.0572 80.5775 67.2448 80.5775C67.3144 80.5775 67.4776 80.5231 67.6073 80.4567C68.6055 79.9452 69.485 79.873 74.7281 79.873C79.2973 79.873 80.6981 79.947 81.1987 80.2147C81.298 80.2677 81.4369 80.3113 81.5073 80.3113C81.7812 80.3113 83.6171 81.2728 83.8784 81.5531C83.9028 81.5793 84.1313 81.7725 84.386 81.9824C84.8586 82.3716 85.744 83.4131 85.744 83.5795C85.744 83.6302 85.7939 83.725 85.8551 83.7902C85.9812 83.925 86.1931 84.361 86.386 84.8825C86.7675 85.9144 86.8381 86.2606 86.8795 87.3013C86.9034 87.8993 86.9527 88.3886 86.9892 88.3886C87.1343 88.3886 87.5852 87.8338 87.8696 87.3052L88.1703 86.7465L88.2475 84.2612C88.29 82.8942 88.3137 74.2038 88.3003 64.949L88.2759 48.1222L88.0094 47.6046C87.8628 47.32 87.5893 46.9633 87.4016 46.8121C87.0661 46.5419 87.0384 46.5361 85.8025 46.4791C85.1107 46.4472 84.3743 46.3723 84.1661 46.3127C82.7899 45.9187 82.2892 43.9408 83.331 43.0134C83.4783 42.8823 83.7679 42.6888 83.9745 42.5834C84.3254 42.4047 84.4448 42.3947 85.78 42.4339C87.3162 42.479 87.49 42.5182 88.6313 43.0754C89.3708 43.4366 90.0953 44.021 90.6745 44.7238C91.3608 45.5565 91.907 46.8072 92.0477 47.8685C92.1788 48.8562 92.1853 86.4303 92.0546 87.146C91.8442 88.2982 91.4661 89.1686 90.7969 90.0416C90.1548 90.8791 89.1659 91.6833 88.6164 91.8147C88.478 91.8478 88.3087 91.9193 88.2401 91.9736C88.152 92.0433 86.2935 92.0797 81.9037 92.0974L75.6919 92.1224L75.2766 91.921C74.5278 91.5578 74.1918 91.0456 74.199 90.2777C74.2084 89.2557 74.8306 88.4738 75.8008 88.2648C75.9266 88.2377 77.3058 88.2074 78.8657 88.1974C80.4256 88.1874 82.0117 88.1633 82.3904 88.1437L83.0789 88.1083L83.075 87.7381C83.0622 86.5071 82.4099 85.324 81.3201 84.5549C80.9926 84.3237 80.6627 84.1331 80.587 84.1313C80.5113 84.1295 80.4096 84.0884 80.3612 84.0401C80.0996 83.7787 79.3303 83.7367 74.7725 83.7351L74.4074 83.7349C70.7823 83.7335 70.0068 83.7332 69.335 83.9968C69.1522 84.0686 68.977 84.1598 68.7542 84.276L68.7145 84.2967L68.6717 84.319C67.7153 84.8161 66.9541 85.5771 66.517 86.473L66.4952 86.5176L66.4754 86.5577C66.4665 86.576 66.4576 86.5939 66.4489 86.6115L66.435 86.6396C66.3471 86.8175 66.2732 86.9671 66.2116 87.1206C65.898 87.9032 65.8955 88.8103 65.8799 94.3332L65.879 94.6656L65.8782 94.9425L65.877 95.3434C65.8643 99.5887 65.8892 102.608 65.9379 102.736L66.0202 102.953L74.6161 102.916C83.6559 102.877 83.7259 102.874 85.3442 102.465C85.6374 102.391 86.1129 102.272 86.4008 102.2C86.6887 102.127 86.9666 102.026 87.0182 101.974C87.0698 101.923 87.179 101.881 87.2608 101.881C87.44 101.881 88.0015 101.646 89.0853 101.12C89.5305 100.904 89.9265 100.727 89.9653 100.727C90.0042 100.727 90.1669 100.627 90.3271 100.505C90.4873 100.383 90.6549 100.283 90.6997 100.283C90.7445 100.283 90.9467 100.163 91.149 100.017C91.3514 99.8701 91.5381 99.7502 91.5641 99.7502C91.7394 99.7502 93.8329 97.9877 94.6154 97.1814C95.6665 96.0984 96.9377 94.5402 96.9377 94.3348C96.9377 94.2865 96.9712 94.247 97.0122 94.247C97.0532 94.247 97.1336 94.1571 97.1908 94.0473C97.248 93.9375 97.3644 93.7405 97.4494 93.6096C98.1156 92.5836 98.8205 91.2283 99.2415 90.1639C99.3477 89.8954 99.4694 89.5958 99.5119 89.4982C99.6422 89.1989 99.9581 88.1011 99.9581 87.9477C99.9581 87.868 99.9937 87.7649 100.037 87.7185C100.236 87.5067 100.562 85.141 100.63 83.4179C100.723 81.0941 100.752 53.5346 100.664 51.5966C100.565 49.4153 100.327 47.539 100.05 46.759C100.007 46.637 99.8849 46.2375 99.7793 45.8714C99.6738 45.5052 99.5308 45.0798 99.4618 44.926C99.3928 44.7721 99.3363 44.6056 99.3363 44.5559C99.3363 44.5062 99.2788 44.3525 99.2084 44.2143C99.1382 44.0761 99.0138 43.8032 98.9322 43.6079C98.6631 42.9649 98.4105 42.4615 98.0829 41.9163C97.9054 41.6205 97.7322 41.291 97.6982 41.184C97.6642 41.0769 97.6062 40.9894 97.5693 40.9894C97.5323 40.9894 97.4137 40.8125 97.3057 40.5964C97.1977 40.3801 97.0806 40.1905 97.0457 40.1747C97.0107 40.159 96.8441 39.9465 96.6756 39.7024C96.1306 38.9132 95.3522 38.004 94.4019 37.0463C93.9666 36.6076 92.8143 35.5831 92.5521 35.4017C92.3506 35.2622 92.3065 35.228 91.9713 34.9519C91.8539 34.8552 91.7083 34.776 91.6477 34.776C91.5871 34.776 91.5145 34.7161 91.4863 34.6429C91.4583 34.5697 91.3773 34.5097 91.3066 34.5097C91.2358 34.5097 91.1647 34.4777 91.1483 34.4385C91.1147 34.3573 90.0633 33.7109 89.9651 33.7109C89.9297 33.7109 89.7322 33.5972 89.5261 33.4583C88.8977 33.0345 86.4471 32.0474 85.2998 31.7559C84.677 31.5976 83.6323 31.4064 82.9012 31.3168C82.0862 31.2168 45.7551 31.2215 45.0561 31.3216ZM51.5591 40.9653C51.6226 40.9053 51.8145 40.7889 51.9855 40.7066C52.6879 40.3685 53.7302 40.5504 54.3433 41.1181C54.8078 41.5483 55.1837 42.5399 55.1837 43.3356C55.1837 43.9244 55.4844 45.718 55.6683 46.2264C55.9049 46.8805 56.1016 47.2916 56.1779 47.2916C56.2175 47.2916 56.2497 47.3331 56.2497 47.3839C56.2497 47.553 56.6413 48.0388 57.321 48.7129C57.8019 49.1898 58.1816 49.472 58.654 49.7039C59.2847 50.0134 59.6632 50.1221 61.2691 50.455C62.0839 50.6239 62.4051 50.7916 62.776 51.2413C63.3851 51.9798 63.5116 52.886 63.1151 53.6692C62.6974 54.4939 62.105 54.8496 60.6472 55.151C60.2563 55.2318 59.8052 55.3538 59.6448 55.4222C59.4843 55.4906 59.3001 55.5465 59.2353 55.5465C59.0621 55.5465 58.1253 56.0598 57.7158 56.3791C57.0735 56.88 55.9832 58.1997 55.9832 58.4762C55.9832 58.5169 55.9272 58.6631 55.8588 58.8013C55.7904 58.9395 55.6903 59.1958 55.6363 59.3708C55.4903 59.8439 55.1839 61.5697 55.1815 61.9324C55.179 62.3084 54.8905 63.4333 54.724 63.7158C54.1385 64.7096 52.7763 65.167 51.8509 64.6804C51.0384 64.2533 50.5917 63.479 50.4731 62.2925C50.2256 59.8171 49.9621 58.9162 49.1301 57.7003C48.788 57.2004 47.9531 56.3745 47.7127 56.2983C47.6197 56.2688 47.5436 56.2074 47.5436 56.1619C47.5436 56.1164 47.4967 56.0791 47.4395 56.0791C47.3823 56.0791 47.2723 56.0244 47.1952 55.9576C46.8308 55.6418 45.6379 55.2727 44.1263 55.008C43.8348 54.9569 43.555 54.8829 43.5044 54.8436C43.4539 54.8043 43.3126 54.7479 43.1905 54.7183C42.8735 54.6414 42.5135 54.2758 42.2571 53.77C41.9678 53.1997 41.9458 52.247 42.2102 51.7484C42.675 50.8722 42.9299 50.7462 45.4114 50.167C45.7779 50.0814 46.4537 49.8336 46.9133 49.6161C47.5812 49.3001 47.876 49.0941 48.3835 48.589C49.0574 47.9183 49.5391 47.2358 49.8006 46.5815C49.8884 46.3618 50.017 46.0489 50.0866 45.8861C50.1561 45.7233 50.2738 45.0243 50.3482 44.3328C50.4226 43.6412 50.5242 42.8666 50.574 42.6115C50.6778 42.0807 51.0345 41.3606 51.2782 41.1901C51.3692 41.1264 51.4956 41.0252 51.5591 40.9653ZM36.9947 44.9394C37.7417 43.8363 38.4672 43.3059 40.0812 42.6833C40.7091 42.441 40.8273 42.4258 42.1342 42.4179C43.4875 42.4098 43.5294 42.4152 43.8665 42.6409C44.2454 42.8945 44.6037 43.2828 44.6087 43.4452C44.6105 43.5021 44.6619 43.5654 44.723 43.5858C44.801 43.6118 44.8333 43.8583 44.8316 44.4142C44.829 45.2739 44.7404 45.5027 44.2248 45.9798C43.8627 46.3148 43.5792 46.3814 42.2878 46.4347C40.6439 46.5025 40.2258 46.7338 39.8403 47.7886C39.6895 48.2016 39.6815 49.1963 39.6832 67.4407C39.6833 68.385 39.6834 69.2839 39.6834 70.1395V70.1699C39.6841 86.371 39.6841 87.0478 40.0093 87.4809C40.0235 87.4998 40.0383 87.5182 40.0537 87.5374C40.0726 87.561 40.0924 87.5857 40.1133 87.6139C40.3545 87.9404 40.8277 88.2111 41.1572 88.2111C41.4719 88.2111 42.1512 88.5041 42.3903 88.7431C43.094 89.4462 43.0191 90.8108 42.2389 91.5036C41.9039 91.8009 41.2305 92.0279 40.6832 92.0279C40.1021 92.0279 39.135 91.7791 38.7281 91.5249C38.5458 91.411 38.3727 91.3178 38.3433 91.3178C38.2682 91.3178 37.4818 90.68 37.3583 90.5189C37.3022 90.4457 37.1523 90.266 37.0253 90.1195C36.8983 89.9731 36.7943 89.8033 36.7942 89.7423C36.7942 89.6813 36.7632 89.6313 36.7255 89.6313C36.5967 89.6313 36.1016 88.5442 35.8967 87.8117C35.792 87.4377 35.7725 84.2656 35.7725 67.6626C35.7725 48.6218 35.7782 47.9337 35.9409 47.2583C36.1337 46.4585 36.4757 45.7058 36.9947 44.9394ZM73.6131 45.8902C74.1524 45.2298 74.55 44.934 75.0597 44.814C75.5538 44.6977 75.7143 44.7033 76.2238 44.8545C77.1737 45.1363 77.7721 46.0815 77.8793 47.4691C78.0918 50.2215 78.5748 51.5074 79.8845 52.8085C80.9383 53.8554 81.6324 54.1589 83.834 54.5354C84.8534 54.7097 85.3093 54.9072 85.6936 55.341C86.4777 56.2259 86.4597 57.5022 85.6501 58.4235C85.2839 58.8402 84.9035 59.026 84.0117 59.2238C82.7342 59.507 82.2404 59.6355 81.8796 59.7786C81.3147 60.0027 80.7691 60.2891 80.7691 60.3617C80.7691 60.3984 80.7232 60.4284 80.6672 60.4284C80.5785 60.4284 79.9166 60.9214 79.6567 61.1811C79.1652 61.6723 78.3704 63.024 78.3704 63.3691C78.3704 63.4409 78.3337 63.5376 78.2888 63.584C78.1809 63.6954 77.952 65.0729 77.8841 66.0205C77.7958 67.2488 77.5179 67.9633 76.9062 68.5341C76.2078 69.1858 75.3475 69.3081 74.5948 68.8626C74.0721 68.5532 73.7509 68.2894 73.7509 68.1696C73.7509 68.1224 73.695 68.0374 73.6267 67.9808C73.5585 67.9243 73.4373 67.6783 73.3574 67.4343C73.2252 67.0305 73.1653 66.6855 72.9963 65.3548C72.8623 64.3005 72.8145 64.289 71.9848 65.1107C71.652 65.4402 70.709 66.3489 69.8893 67.13C69.0696 67.9111 67.7542 69.1744 66.9662 69.9372C66.1781 70.7001 65.137 71.6987 64.6526 72.1563C63.6129 73.1384 63.4044 73.3397 60.2495 76.4057C57.3828 79.1917 56.8352 79.7216 54.5755 81.8967C53.6302 82.8066 52.0998 84.3001 51.1745 85.2154C50.2492 86.1308 49.4563 86.8797 49.4125 86.8797C49.3688 86.8797 49.2802 86.9312 49.2156 86.994C49.1511 87.0568 48.8983 87.1867 48.654 87.2825C48.068 87.5123 46.6575 87.52 46.2554 87.2957C46.1088 87.214 45.9547 87.1469 45.9128 87.1465C45.7537 87.1453 44.8667 86.3877 44.7611 86.1628C44.7285 86.0933 44.6675 85.9765 44.6255 85.9033C44.2647 85.2745 44.2121 85.0538 44.2121 84.1685L44.2121 84.0883C44.2118 83.7813 44.2115 83.541 44.2554 83.309C44.4132 82.4737 45.1428 81.7462 48.4991 78.3992L48.7429 78.1561C50.8928 76.012 53.7076 73.2331 54.9981 71.9809C56.2886 70.7286 58.6873 68.3779 60.3284 66.757C66.4593 60.7015 67.0126 60.1622 67.0938 60.1622C67.1394 60.1622 67.1768 60.1318 67.1768 60.0947C67.1768 60.0576 67.2802 59.9158 67.4067 59.7795C67.6737 59.4918 67.6338 59.2745 67.3142 59.2745C66.9997 59.2745 66.3011 59.1038 65.9331 58.937C65.1393 58.5771 64.6883 57.8384 64.6913 56.9031C64.6942 56.0013 65.0345 55.3742 65.779 54.8987C66.0285 54.7393 66.1778 54.7011 67.7543 54.3941C69.2538 54.1021 69.6588 53.9662 70.3487 53.5235C70.8232 53.2191 71.9306 52.0975 72.0738 51.7764C72.1179 51.6774 72.2336 51.465 72.331 51.3042C72.7377 50.632 73.0878 49.2144 73.1671 47.9178C73.2178 47.088 73.4327 46.111 73.6131 45.8902ZM52.4898 46.2264C52.5628 45.9091 52.6429 45.3027 52.6679 44.8789C52.7041 44.2663 52.7389 44.1181 52.8381 44.1561C52.9312 44.1918 52.9627 44.3906 52.9627 44.9433C52.9627 46.7794 53.8332 48.9546 55.1129 50.3161C56.2062 51.4791 57.2585 52.052 59.3591 52.628C59.6401 52.705 59.7061 52.7489 59.5812 52.7758C59.4834 52.7968 59.3635 52.845 59.3146 52.8829C59.2658 52.9208 59.0859 52.9795 58.9149 53.0133C58.1456 53.1652 56.9134 53.7102 56.2129 54.2084C55.7035 54.5708 55.0258 55.2311 54.7323 55.6512C54.619 55.8133 54.4743 55.9779 54.4108 56.017C54.3472 56.056 54.2953 56.1425 54.2953 56.2092C54.2953 56.276 54.2603 56.3439 54.2175 56.3602C54.1043 56.4032 53.6173 57.4012 53.4161 58.0024C53.1027 58.9392 52.9826 59.4869 52.9321 60.2106C52.8587 61.262 52.7514 61.4159 52.6875 60.5616C52.6218 59.6837 52.4553 58.7877 52.289 58.4179C52.2197 58.2641 52.1632 58.0992 52.1632 58.0517C52.1632 57.8434 51.6644 56.8643 51.2247 56.2092C50.7938 55.5674 49.7068 54.3926 49.5438 54.3926C49.5082 54.3926 49.3335 54.2815 49.1554 54.1458C48.9774 54.0102 48.6318 53.8079 48.3875 53.6965C48.1432 53.585 47.874 53.4564 47.7891 53.4106C47.7043 53.3649 47.5644 53.3272 47.4782 53.3269C47.392 53.3266 47.2154 53.2711 47.0858 53.2034C46.9561 53.1359 46.5963 53.0518 46.2862 53.0166C45.3476 52.9102 45.2974 52.7273 46.1666 52.5809C46.7988 52.4743 48.3431 51.9286 48.3431 51.8117C48.3431 51.7772 48.4526 51.7215 48.5865 51.6879C48.7204 51.6544 48.8503 51.5999 48.8752 51.5671C48.9001 51.5342 49.0925 51.3907 49.3026 51.2484C49.7717 50.9302 50.6099 50.1213 50.9652 49.6438C51.1105 49.4485 51.2533 49.2688 51.2825 49.2444C51.3397 49.1966 51.965 47.8959 52.0719 47.6023C52.3014 46.9722 52.3714 46.7416 52.4898 46.2264ZM75.5104 48.3567C75.4776 48.4788 75.4254 48.9182 75.3943 49.3331C75.3111 50.4414 75.0905 51.3532 74.6716 52.3201C74.6049 52.4739 74.5504 52.6437 74.5504 52.6973C74.5504 52.751 74.5143 52.7949 74.4703 52.7949C74.4262 52.7949 74.3446 52.9047 74.289 53.039C74.2334 53.1733 74.124 53.4029 74.0458 53.5494C73.8744 53.8705 72.3743 55.3779 72.0506 55.5542C71.9239 55.6232 71.6243 55.7855 71.3848 55.9148C71.1453 56.0441 70.5503 56.2769 70.0625 56.4322C69.5747 56.5874 69.1063 56.7512 69.0215 56.7962C68.9366 56.8411 68.7867 56.8779 68.6883 56.8779C68.5885 56.8779 68.5094 56.9368 68.5094 57.0111C68.5094 57.1054 68.605 57.1442 68.8367 57.1442C69.1967 57.1442 70.0667 57.3558 70.5527 57.5617C71.3054 57.8804 72.0615 58.3048 72.0624 58.4091C72.0627 58.4458 72.1209 58.4757 72.1917 58.4757C72.2626 58.4757 72.3525 58.5267 72.3916 58.589C72.4307 58.6513 72.6333 58.835 72.8417 58.9971C73.6524 59.6274 74.4847 60.9877 74.9392 62.4256C75.1063 62.9539 75.3483 64.2025 75.3539 64.5648C75.3562 64.7064 75.4128 64.942 75.48 65.0885C75.6012 65.3528 75.6021 65.3511 75.6093 64.8579C75.6167 64.3438 75.8434 63.1449 76.0947 62.2913C76.2359 61.8114 76.9198 60.39 77.1454 60.1074C77.3507 59.8505 78.4969 58.7004 78.7663 58.4812C79.4175 57.9514 81.3382 57.1504 81.9822 57.1402C82.1212 57.138 82.3548 57.0814 82.5014 57.0143L82.7679 56.8923L82.4845 56.8851C82.3286 56.8812 82.179 56.8425 82.1523 56.7992C82.1255 56.756 81.9533 56.6927 81.7695 56.6587C81.3647 56.5838 80.428 56.2872 80.2151 56.1665C80.1302 56.1184 80.0161 56.0791 79.9614 56.0791C79.9067 56.0791 79.6844 55.9593 79.4671 55.8128C79.2499 55.6663 79.0391 55.5465 78.9987 55.5465C78.9582 55.5465 78.6497 55.2917 78.313 54.9802C77.4419 54.1745 76.6795 53.0992 76.3641 52.2319C75.919 51.0075 75.7025 50.0406 75.6255 48.9337C75.5895 48.415 75.5491 48.2127 75.5104 48.3567ZM67.2863 62.7538C68.2277 61.8285 69.1779 60.8921 69.3978 60.673C69.6177 60.4538 69.8819 60.2692 69.985 60.2627C70.1821 60.2503 70.74 60.5868 71.0413 60.8999C71.4331 61.3068 71.8907 61.9873 71.8665 62.1267C71.8524 62.208 70.8867 63.2432 69.7206 64.4272L67.6005 66.5799L67.2597 66.2336C67.0723 66.0431 66.9171 65.8401 66.9147 65.7823C66.9123 65.7246 66.8338 65.6532 66.7404 65.6236C66.6469 65.5939 66.3464 65.3146 66.0725 65.0029L65.5745 64.4363L67.2863 62.7538Z" fill="white"/>
<path d="M63.5789 66.8271C63.53 66.8752 62.7278 67.6621 61.7962 68.5757C60.8645 69.4892 57.6863 72.6199 54.7335 75.5326C51.7807 78.4453 49.1005 81.0815 48.7776 81.391C48.4546 81.7003 47.865 82.2642 47.4673 82.6442C46.761 83.3189 46.744 83.3449 46.744 83.7561C46.744 84.0983 46.7931 84.2309 47.0056 84.4633C47.235 84.7143 47.3228 84.7494 47.7221 84.7494C48.0801 84.7494 48.2473 84.6973 48.5045 84.5054C48.8325 84.2608 50.1382 83.0088 52.8325 80.3556C55.6068 77.6236 59.9855 73.382 61.446 72.012C61.9663 71.5238 62.5827 70.9446 62.8157 70.7249C63.0487 70.5052 63.7055 69.8922 64.2753 69.3626C64.845 68.833 65.3112 68.3597 65.3112 68.3108C65.3112 68.2072 63.8301 66.7285 63.733 66.735C63.6971 66.7374 63.6277 66.7789 63.5789 66.8271Z" fill="#1CAEFF"/>
<path fill-rule="evenodd" clip-rule="evenodd" d="M58.7479 35.1803C58.779 35.0466 58.8131 34.7911 58.8238 34.6126C58.8392 34.3545 58.854 34.2921 58.8962 34.3081C58.9359 34.3231 58.9493 34.4069 58.9493 34.6397C58.9493 35.4133 59.3201 36.3298 59.8651 36.9034C60.3308 37.3934 60.7789 37.6347 61.6736 37.8774C61.7933 37.9099 61.8214 37.9283 61.7682 37.9397C61.7266 37.9485 61.6755 37.9688 61.6547 37.9848C61.6339 38.0008 61.5573 38.0255 61.4844 38.0397C61.1568 38.1037 60.632 38.3333 60.3336 38.5432C60.1166 38.6959 59.828 38.9741 59.703 39.1511C59.6548 39.2194 59.5931 39.2888 59.5661 39.3052C59.539 39.3217 59.5169 39.3581 59.5169 39.3862C59.5169 39.4143 59.502 39.4429 59.4838 39.4498C59.4355 39.468 59.2281 39.8884 59.1424 40.1417C59.0089 40.5364 58.9578 40.7671 58.9363 41.0721C58.905 41.515 58.8593 41.5799 58.8321 41.2199C58.8041 40.8501 58.7332 40.4725 58.6623 40.3168C58.6329 40.2519 58.6088 40.1825 58.6088 40.1625C58.6088 40.0747 58.3963 39.6622 58.2091 39.3862C58.0255 39.1158 57.5626 38.6208 57.4931 38.6208C57.478 38.6208 57.4036 38.5741 57.3277 38.5169C57.2519 38.4597 57.1047 38.3745 57.0007 38.3276C56.8966 38.2806 56.7819 38.2264 56.7458 38.2071C56.7097 38.1879 56.6501 38.172 56.6134 38.1719C56.5767 38.1717 56.5014 38.1483 56.4462 38.1198C56.391 38.0914 56.2378 38.056 56.1057 38.0411C55.7059 37.9963 55.6845 37.9192 56.0547 37.8575C56.324 37.8126 56.9818 37.5827 56.9818 37.5335C56.9818 37.5189 57.0284 37.4955 57.0854 37.4813C57.1424 37.4672 57.1978 37.4443 57.2084 37.4304C57.219 37.4166 57.3009 37.3561 57.3904 37.2961C57.5902 37.1621 57.9472 36.8213 58.0985 36.6201C58.1604 36.5378 58.2212 36.4621 58.2337 36.4518C58.2581 36.4317 58.5244 35.8837 58.5699 35.76C58.6676 35.4945 58.6975 35.3974 58.7479 35.1803Z" fill="#2BB8FF"/>
<path fill-rule="evenodd" clip-rule="evenodd" d="M68.0163 37.3498C68.0636 37.1466 68.1157 36.7582 68.1319 36.4868C68.1554 36.0945 68.178 35.9996 68.2423 36.024C68.3028 36.0468 68.3232 36.1741 68.3232 36.528C68.3232 37.7039 68.8882 39.0969 69.7188 39.9688C70.4283 40.7136 71.1112 41.0804 72.4745 41.4493C72.657 41.4986 72.6997 41.5267 72.6187 41.5439C72.5553 41.5574 72.4774 41.5883 72.4457 41.6125C72.414 41.6368 72.2972 41.6744 72.1863 41.696C71.687 41.7933 70.8873 42.1423 70.4327 42.4614C70.102 42.6935 69.6622 43.1163 69.4717 43.3853C69.3982 43.4892 69.3043 43.5946 69.263 43.6196C69.2218 43.6446 69.1881 43.7 69.1881 43.7427C69.1881 43.7854 69.1654 43.8289 69.1376 43.8394C69.0641 43.8669 68.748 44.506 68.6175 44.891C68.4141 45.491 68.3361 45.8417 68.3033 46.3052C68.2557 46.9785 68.1861 47.077 68.1446 46.5299C68.102 45.9678 67.9939 45.3939 67.886 45.1571C67.841 45.0586 67.8043 44.953 67.8043 44.9226C67.8043 44.7892 67.4806 44.1622 67.1952 43.7427C66.9156 43.3317 66.2101 42.5793 66.1043 42.5793C66.0812 42.5793 65.9678 42.5082 65.8523 42.4213C65.7367 42.3345 65.5124 42.2049 65.3539 42.1336C65.1953 42.0622 65.0206 41.9798 64.9655 41.9505C64.9104 41.9212 64.8196 41.897 64.7637 41.8969C64.7078 41.8966 64.5931 41.8611 64.509 41.8178C64.4248 41.7745 64.1913 41.7207 63.9901 41.6982C63.3809 41.63 63.3483 41.5129 63.9124 41.4191C64.3228 41.3508 65.325 41.0014 65.325 40.9266C65.325 40.9045 65.3961 40.8688 65.483 40.8473C65.5699 40.8258 65.6542 40.7909 65.6704 40.7699C65.6866 40.7488 65.8114 40.657 65.9477 40.5658C66.2522 40.3621 66.7962 39.844 67.0268 39.5382C67.1211 39.4132 67.2138 39.2981 67.2327 39.2824C67.2699 39.2519 67.6757 38.4189 67.7451 38.2308C67.894 37.8274 67.9395 37.6797 68.0163 37.3498Z" fill="#2BB8FF"/>
<path fill-rule="evenodd" clip-rule="evenodd" d="M55.5433 90.3959C55.5433 91.4029 54.727 92.2192 53.7201 92.2192H47.3387C46.3317 92.2192 45.5154 91.4029 45.5154 90.3959C45.5154 89.389 46.3317 88.5727 47.3387 88.5727H53.7201C54.727 88.5727 55.5433 89.389 55.5433 90.3959Z" fill="#8CBAF1"/>
<defs>
<filter id="filter0_d_3755_14591" x="17.5988" y="26.3605" width="92.5865" height="89.5611" filterUnits="userSpaceOnUse" color-interpolation-filters="sRGB">
<feFlood flood-opacity="0" result="BackgroundImageFix"/>
<feColorMatrix in="SourceAlpha" type="matrix" values="0 0 0 0 0 0 0 0 0 0 0 0 0 0 0 0 0 0 127 0" result="hardAlpha"/>
<feOffset dy="4"/>
<feGaussianBlur stdDeviation="2.35"/>
<feComposite in2="hardAlpha" operator="out"/>
<feColorMatrix type="matrix" values="0 0 0 0 0.00392157 0 0 0 0 0.0901961 0 0 0 0 0.231373 0 0 0 0.5 0"/>
<feBlend mode="normal" in2="BackgroundImageFix" result="effect1_dropShadow_3755_14591"/>
<feBlend mode="normal" in="SourceGraphic" in2="effect1_dropShadow_3755_14591" result="shape"/>
</filter>
<linearGradient id="paint0_linear_3755_14591" x1="64" y1="0" x2="64" y2="128" gradientUnits="userSpaceOnUse">
<stop stop-color="#6CCCFB"/>
<stop offset="1" stop-color="#3B6CF2"/>
</linearGradient>
<linearGradient id="paint1_linear_3755_14591" x1="64" y1="11" x2="64" y2="104" gradientUnits="userSpaceOnUse">
<stop stop-color="#6CCCFB" stop-opacity="0.2"/>
<stop offset="1" stop-color="#8EEBFD" stop-opacity="0.5"/>
</linearGradient>
<linearGradient id="paint2_linear_3755_14591" x1="64" y1="17" x2="64" y2="99" gradientUnits="userSpaceOnUse">
<stop stop-color="#8DEAFC"/>
<stop offset="1" stop-color="#8EEBFD" stop-opacity="0.5"/>
</linearGradient>
<linearGradient id="paint3_linear_3755_14591" x1="63.892" y1="27.0605" x2="63.892" y2="107.222" gradientUnits="userSpaceOnUse">
<stop stop-color="#1B4680"/>
<stop offset="1" stop-color="#001539"/>
</linearGradient>
</defs>
</svg>
