<svg width="20" height="22" viewBox="0 0 20 22" fill="none" xmlns="http://www.w3.org/2000/svg">
<path d="M7.99981 0.999989C9.23753 0.285293 10.7625 0.285294 12.0002 0.99999L17.6602 4.26826C18.8977 4.98282 19.66 6.30326 19.66 7.73224V14.2678C19.66 15.6967 18.8977 17.0172 17.6602 17.7317L12.0002 21C10.7625 21.7147 9.23753 21.7147 7.99981 21L2.33981 17.7317C1.10233 17.0172 0.340027 15.6967 0.340027 14.2678V7.73224C0.340027 6.30326 1.10233 4.98282 2.33981 4.26826L7.99981 0.999989ZM11.9999 3.30947C10.7623 2.59507 9.23771 2.59507 8.0002 3.30947L4.3402 5.42233C3.1025 6.13684 2.34003 7.4574 2.34003 8.88653V13.1135C2.34003 14.5426 3.1025 15.8632 4.3402 16.5777L8.0002 18.6905C9.23772 19.4049 10.7623 19.4049 11.9999 18.6905L15.6599 16.5777C16.8976 15.8632 17.66 14.5426 17.66 13.1135V8.88653C17.66 7.4574 16.8976 6.13684 15.6599 5.42233L11.9999 3.30947ZM10 8C9.20438 8 8.44132 8.31607 7.87871 8.87868C7.3161 9.44129 7.00003 10.2044 7.00003 11C7.00003 11.7957 7.3161 12.5587 7.87871 13.1213C8.44132 13.6839 9.20438 14 10 14C10.7957 14 11.5587 13.6839 12.1213 13.1213C12.684 12.5587 13 11.7957 13 11C13 10.2044 12.684 9.44129 12.1213 8.87868C11.5587 8.31607 10.7957 8 10 8ZM5.00003 11C5.00003 9.67392 5.52681 8.40215 6.46449 7.46447C7.40217 6.52679 8.67394 6 10 6C11.3261 6 12.5979 6.52679 13.5356 7.46447C14.4732 8.40215 15 9.67392 15 11C15 12.3261 14.4732 13.5979 13.5356 14.5355C12.5979 15.4732 11.3261 16 10 16C8.67394 16 7.40217 15.4732 6.46449 14.5355C5.52681 13.5979 5.00003 12.3261 5.00003 11Z" fill="white"/>
</svg>
